<svg width="250" height="245" viewBox="0 0 250 245" fill="none" xmlns="http://www.w3.org/2000/svg">
<g clip-path="url(#clip0_9700_6456)">
<path d="M158.71 54.8817H91.3459C89.8108 54.8836 88.3391 55.4942 87.2537 56.5797C86.1682 57.6652 85.5575 59.1369 85.5557 60.672V210.389L84.7836 210.625L68.2581 215.686C67.4749 215.925 66.629 215.843 65.906 215.458C65.183 215.074 64.6421 214.419 64.4019 213.636L15.2461 53.0713C15.0069 52.2881 15.0884 51.4419 15.4728 50.7188C15.8571 49.9957 16.5129 49.4548 17.2959 49.2149L42.7616 41.4173L116.588 18.8198L142.053 11.0222C142.441 10.9029 142.848 10.8612 143.252 10.8995C143.656 10.9378 144.048 11.0554 144.406 11.2454C144.764 11.4354 145.081 11.6942 145.339 12.007C145.597 12.3197 145.791 12.6803 145.91 13.0681L158.475 54.1096L158.71 54.8817Z" fill="#F2F2F2"/>
<path d="M173.41 54.1096L158.267 4.64508C158.015 3.82091 157.603 3.05446 157.054 2.38953C156.506 1.7246 155.832 1.17423 155.071 0.769859C154.31 0.365488 153.477 0.11504 152.619 0.0328377C151.761 -0.0493646 150.895 0.038289 150.071 0.290781L114.268 11.2499L40.4459 33.8513L4.64264 44.8142C2.9794 45.325 1.58676 46.4747 0.770382 48.0112C-0.0459949 49.5476 -0.219405 51.3453 0.288223 53.0094L52.0457 222.059C52.4581 223.402 53.2901 224.578 54.4198 225.414C55.5495 226.25 56.9173 226.701 58.3225 226.703C58.9729 226.703 59.6196 226.605 60.2409 226.413L84.784 218.901L85.556 218.662V217.855L84.784 218.091L60.0132 225.676C58.5451 226.123 56.9594 225.97 55.604 225.25C54.2486 224.53 53.2341 223.302 52.7831 221.835L1.02954 52.7817C0.806068 52.0548 0.728182 51.2909 0.800339 50.5339C0.872496 49.7768 1.09327 49.0414 1.45004 48.3698C1.8068 47.6982 2.29255 47.1036 2.87946 46.62C3.46636 46.1364 4.14289 45.7733 4.87032 45.5515L40.6736 34.5886L114.496 11.991L150.299 1.02808C150.851 0.859703 151.425 0.773848 152.001 0.773311C153.24 0.77609 154.444 1.17522 155.439 1.91223C156.434 2.64924 157.166 3.68542 157.529 4.86897L172.603 54.1096L172.843 54.8816H173.646L173.41 54.1096Z" fill="#3F3D56"/>
<path d="M47.3572 49.3413C46.6132 49.3408 45.8889 49.1019 45.2907 48.6596C44.6924 48.2172 44.2517 47.5948 44.0331 46.8837L39.061 30.6432C38.9274 30.2069 38.881 29.7486 38.9245 29.2945C38.9681 28.8403 39.1006 28.3991 39.3147 27.9962C39.5287 27.5933 39.8201 27.2365 40.172 26.9462C40.524 26.6559 40.9297 26.4377 41.366 26.3042L109.282 5.51177C110.163 5.24292 111.115 5.33461 111.928 5.76672C112.742 6.19883 113.35 6.93605 113.621 7.81658L118.593 24.0573C118.862 24.9383 118.77 25.89 118.338 26.7034C117.906 27.5169 117.169 28.1257 116.288 28.3964L48.3722 49.1889C48.0433 49.2898 47.7012 49.3412 47.3572 49.3413Z" fill="#6366F1"/>
<path d="M73.403 17.3529C77.6669 17.3529 81.1234 13.8963 81.1234 9.63249C81.1234 5.36864 77.6669 1.91211 73.403 1.91211C69.1392 1.91211 65.6826 5.36864 65.6826 9.63249C65.6826 13.8963 69.1392 17.3529 73.403 17.3529Z" fill="#6366F1"/>
<path d="M73.4029 14.5217C76.1029 14.5217 78.2917 12.3329 78.2917 9.63293C78.2917 6.93293 76.1029 4.74414 73.4029 4.74414C70.7029 4.74414 68.5142 6.93293 68.5142 9.63293C68.5142 12.3329 70.7029 14.5217 73.4029 14.5217Z" fill="white"/>
<path d="M232.629 224.73H102.155C101.285 224.729 100.451 224.383 99.8357 223.768C99.2205 223.153 98.8745 222.319 98.8735 221.449V65.1112C98.8745 64.2413 99.2205 63.4073 99.8356 62.7922C100.451 62.1771 101.285 61.831 102.155 61.8301H232.629C233.499 61.8311 234.333 62.1771 234.948 62.7922C235.563 63.4073 235.909 64.2413 235.91 65.1112V221.449C235.909 222.319 235.563 223.153 234.948 223.768C234.333 224.383 233.499 224.729 232.629 224.73Z" fill="#E6E6E6"/>
<path d="M172.603 54.1094H91.346C89.6063 54.1118 87.9386 54.804 86.7085 56.0342C85.4783 57.2643 84.7862 58.932 84.7837 60.6717V218.09L85.5557 217.855V60.6717C85.5576 59.1366 86.1682 57.6649 87.2537 56.5794C88.3392 55.4939 89.8109 54.8833 91.346 54.8814H172.842L172.603 54.1094ZM243.438 54.1094H91.346C89.6063 54.1118 87.9386 54.804 86.7085 56.0342C85.4783 57.2643 84.7862 58.932 84.7837 60.6717V237.468C84.7862 239.208 85.4783 240.876 86.7085 242.106C87.9386 243.336 89.6063 244.028 91.346 244.031H243.438C245.177 244.028 246.845 243.336 248.075 242.106C249.305 240.876 249.997 239.208 250 237.468V60.6717C249.997 58.932 249.305 57.2643 248.075 56.0342C246.845 54.804 245.177 54.1118 243.438 54.1094ZM249.228 237.468C249.226 239.004 248.615 240.475 247.53 241.561C246.444 242.646 244.973 243.257 243.438 243.259H91.346C89.8109 243.257 88.3392 242.646 87.2537 241.561C86.1682 240.475 85.5576 239.004 85.5557 237.468V60.6717C85.5576 59.1366 86.1682 57.6649 87.2537 56.5794C88.3392 55.4939 89.8109 54.8833 91.346 54.8814H243.438C244.973 54.8833 246.444 55.4939 247.53 56.5794C248.615 57.6649 249.226 59.1366 249.228 60.6717V237.468Z" fill="#3F3D56"/>
<path d="M202.906 71.0943H131.878C130.957 71.0933 130.074 70.7269 129.423 70.0756C128.772 69.4243 128.405 68.5412 128.404 67.6201V50.6353C128.405 49.7142 128.772 48.8311 129.423 48.1798C130.074 47.5285 130.957 47.1622 131.878 47.1611H202.906C203.827 47.1622 204.71 47.5285 205.361 48.1798C206.013 48.8311 206.379 49.7142 206.38 50.6353V67.6201C206.379 68.5412 206.013 69.4243 205.361 70.0756C204.71 70.7269 203.827 71.0933 202.906 71.0943Z" fill="#6366F1"/>
<path d="M167.392 48.3197C171.656 48.3197 175.112 44.8631 175.112 40.5993C175.112 36.3354 171.656 32.8789 167.392 32.8789C163.128 32.8789 159.671 36.3354 159.671 40.5993C159.671 44.8631 163.128 48.3197 167.392 48.3197Z" fill="#6366F1"/>
<path d="M167.392 45.3014C169.989 45.3014 172.094 43.196 172.094 40.5989C172.094 38.0018 169.989 35.8965 167.392 35.8965C164.795 35.8965 162.689 38.0018 162.689 40.5989C162.689 43.196 164.795 45.3014 167.392 45.3014Z" fill="white"/>
</g>
<defs>
<clipPath id="clip0_9700_6456">
<rect width="250" height="244.031" fill="white"/>
</clipPath>
</defs>
</svg>
