<svg width="300" height="270" viewBox="0 0 300 270" fill="none" xmlns="http://www.w3.org/2000/svg">
<g clip-path="url(#clip0_9714_4537)">
<path d="M297.368 102.987C297.261 102.987 297.156 102.954 297.068 102.892L151.511 1.52215C151.068 1.2151 150.541 1.051 150.002 1.05192C149.463 1.05284 148.938 1.21873 148.496 1.52729L3.98691 102.891C3.87261 102.972 3.73115 103.003 3.59363 102.979C3.45612 102.955 3.33382 102.877 3.25365 102.763C3.17348 102.648 3.142 102.507 3.16613 102.369C3.19026 102.232 3.26804 102.11 3.38234 102.029L147.891 0.665344C148.51 0.233423 149.246 0.00124506 150.001 4.99346e-06C150.755 -0.00123508 151.492 0.228521 152.112 0.658406L297.67 102.028C297.762 102.092 297.831 102.184 297.867 102.29C297.903 102.396 297.904 102.511 297.871 102.618C297.837 102.725 297.77 102.818 297.68 102.885C297.59 102.951 297.481 102.987 297.368 102.987Z" fill="#3F3D56"/>
<path d="M12.2441 106.58L150.145 4.37891L289.093 113.853L157.25 192.01L85.6715 175.695L12.2441 106.58Z" fill="#E6E6E6"/>
<path d="M91.7138 240.285H23.5873C23.169 240.285 22.7547 240.203 22.368 240.044C21.9814 239.884 21.6301 239.649 21.3341 239.354C21.0381 239.058 20.8033 238.707 20.6431 238.321C20.4829 237.934 20.4004 237.52 20.4004 237.102C20.4004 236.683 20.4829 236.269 20.6431 235.883C20.8033 235.496 21.0381 235.145 21.3341 234.85C21.6301 234.554 21.9814 234.32 22.368 234.16C22.7547 234 23.169 233.918 23.5873 233.919H91.7138C92.1321 233.918 92.5464 234 92.9331 234.16C93.3197 234.32 93.671 234.554 93.967 234.85C94.263 235.145 94.4978 235.496 94.658 235.883C94.8182 236.269 94.9007 236.683 94.9007 237.102C94.9007 237.52 94.8182 237.934 94.658 238.321C94.4978 238.707 94.263 239.058 93.967 239.354C93.671 239.649 93.3197 239.884 92.9331 240.044C92.5464 240.203 92.1321 240.285 91.7138 240.285Z" fill="#6366F1"/>
<path d="M48.0296 226.601H23.5873C23.169 226.602 22.7547 226.52 22.368 226.36C21.9814 226.2 21.6301 225.966 21.3341 225.67C21.0381 225.375 20.8033 225.024 20.6431 224.637C20.4829 224.251 20.4004 223.836 20.4004 223.418C20.4004 223 20.4829 222.586 20.6431 222.199C20.8033 221.813 21.0381 221.462 21.3341 221.166C21.6301 220.871 21.9814 220.636 22.368 220.476C22.7547 220.317 23.169 220.235 23.5873 220.235H48.0296C48.4479 220.235 48.8622 220.317 49.2489 220.476C49.6355 220.636 49.9868 220.871 50.2828 221.166C50.5788 221.462 50.8136 221.813 50.9738 222.199C51.134 222.586 51.2165 223 51.2165 223.418C51.2165 223.836 51.134 224.251 50.9738 224.637C50.8136 225.024 50.5788 225.375 50.2828 225.67C49.9868 225.966 49.6355 226.2 49.2489 226.36C48.8622 226.52 48.4479 226.602 48.0296 226.601Z" fill="#6366F1"/>
<path d="M152.084 163.505C151.566 163.506 151.053 163.405 150.574 163.209L65.5264 127.921V17.4606C65.5275 16.4838 65.916 15.5474 66.6067 14.8567C67.2974 14.166 68.2338 13.7775 69.2106 13.7764H232.368C233.345 13.7775 234.282 14.166 234.972 14.8567C235.663 15.5474 236.052 16.4838 236.053 17.4606V127.998L235.893 128.066L153.64 163.192C153.147 163.399 152.619 163.506 152.084 163.505Z" fill="white"/>
<path d="M152.085 163.768C151.533 163.768 150.986 163.661 150.474 163.453L65.2637 128.096V17.4601C65.2649 16.4135 65.6811 15.4102 66.4211 14.6702C67.1612 13.9301 68.1645 13.5139 69.211 13.5127H232.369C233.415 13.5139 234.419 13.9301 235.159 14.6702C235.899 15.4102 236.315 16.4135 236.316 17.4601V128.171L153.744 163.434C153.219 163.655 152.654 163.768 152.085 163.768ZM66.3163 127.393L150.876 162.479C151.665 162.799 152.548 162.794 153.333 162.465L235.264 127.476V17.4601C235.263 16.6926 234.958 15.9569 234.415 15.4142C233.872 14.8715 233.136 14.5662 232.369 14.5653H69.2111C68.4436 14.5662 67.7078 14.8715 67.1652 15.4142C66.6225 15.9569 66.3172 16.6926 66.3163 17.4601L66.3163 127.393Z" fill="#3F3D56"/>
<path d="M296.316 101.935H296.21L235.789 127.735L153.121 163.035C152.798 163.17 152.451 163.241 152.101 163.243C151.751 163.245 151.403 163.178 151.079 163.045L65.7895 127.661L3.88415 101.977L3.78958 101.935H3.68421C2.70743 101.936 1.77096 102.324 1.08027 103.015C0.389585 103.706 0.00108382 104.642 0 105.619V265.619C0.00108521 266.596 0.389586 267.532 1.08027 268.223C1.77096 268.913 2.70743 269.302 3.68421 269.303H296.316C297.293 269.302 298.229 268.913 298.92 268.223C299.61 267.532 299.999 266.596 300 265.619V105.619C299.999 104.642 299.61 103.706 298.92 103.015C298.229 102.324 297.293 101.936 296.316 101.935ZM298.947 265.619C298.947 266.317 298.67 266.986 298.176 267.479C297.683 267.973 297.014 268.25 296.316 268.25H3.68421C2.98636 268.25 2.31717 267.973 1.82371 267.479C1.33026 266.986 1.05291 266.317 1.05263 265.619V105.619C1.05359 104.938 1.31756 104.284 1.78936 103.794C2.26116 103.304 2.90426 103.014 3.58424 102.987L65.7895 128.798L150.674 164.019C151.593 164.393 152.622 164.387 153.537 164.003L235.789 128.877L296.421 102.987C297.1 103.017 297.741 103.306 298.212 103.797C298.682 104.287 298.946 104.939 298.947 105.619V265.619Z" fill="#3F3D56"/>
<path d="M151.234 132.183C148.094 132.189 145.038 131.173 142.526 129.29L142.37 129.173L109.575 104.064C108.056 102.9 106.781 101.449 105.823 99.7924C104.866 98.136 104.243 96.3072 103.992 94.4104C103.741 92.5135 103.866 90.5858 104.36 88.7373C104.854 86.8887 105.707 85.1556 106.871 83.6368C108.035 82.1179 109.486 80.8432 111.142 79.8854C112.799 78.9275 114.628 78.3052 116.524 78.0542C118.421 77.8031 120.349 77.928 122.197 78.422C124.046 78.9159 125.779 79.7691 127.298 80.9328L148.54 97.2211L198.739 31.7544C199.903 30.2359 201.355 28.9617 203.012 28.0044C204.669 27.0471 206.498 26.4255 208.395 26.1751C210.292 25.9247 212.219 26.0504 214.068 26.545C215.916 27.0396 217.649 27.8935 219.167 29.0578L218.855 29.4815L219.175 29.0639C222.238 31.4179 224.242 34.8907 224.748 38.7204C225.253 42.5501 224.219 46.424 221.872 49.4921L162.826 126.497C161.46 128.271 159.704 129.707 157.694 130.693C155.684 131.679 153.473 132.189 151.234 132.183Z" fill="#6366F1"/>
</g>
<defs>
<clipPath id="clip0_9714_4537">
<rect width="300" height="269.303" fill="white"/>
</clipPath>
</defs>
</svg>
