<svg width="350" height="353" viewBox="0 0 350 353" fill="none" xmlns="http://www.w3.org/2000/svg">
<g clip-path="url(#clip0_9699_4417)">
<path d="M88.2892 338.362C87.903 338.379 87.5207 338.278 87.194 338.071C86.8674 337.864 86.6122 337.562 86.463 337.206C86.3139 336.849 86.278 336.455 86.3602 336.077C86.4424 335.699 86.6388 335.356 86.9227 335.094C86.9702 334.905 87.0043 334.769 87.0519 334.58C86.6823 333.641 86.0407 332.834 85.2094 332.262C84.3782 331.69 83.395 331.38 82.3861 331.37C81.3771 331.361 80.3883 331.653 79.5463 332.209C78.7044 332.765 78.0477 333.56 77.6605 334.491C75.4259 339.722 72.5338 345.137 73.9721 350.898C64.4716 330.763 67.7025 305.717 81.7429 288.497C85.6238 286.359 88.7694 282.561 89.5883 278.151C87.6676 278.802 85.2729 277.239 86.717 275.216C87.343 274.443 87.975 273.676 88.6009 272.902C81.3048 265.132 72.6116 277.344 80.6425 287.832C78.0154 291.126 75.7398 294.685 73.8528 298.452C74.2886 294.452 73.7685 290.406 72.3353 286.646C70.8828 283.142 68.1603 280.191 65.7628 277.162C62.8478 273.471 56.8484 275.173 56.4561 279.857C59.1463 280.742 59.4958 284.628 56.4185 285.159C57.2245 293.873 62.9171 301.881 70.7576 305.702C67.8622 313.826 66.7316 322.474 67.4411 331.069C66.0572 321.024 55.2743 318.586 47.7375 314.594C47.2578 314.286 46.6989 314.125 46.1291 314.129C45.5593 314.134 45.0031 314.304 44.5284 314.619C44.0537 314.934 43.681 315.381 43.4558 315.905C43.2306 316.428 43.1626 317.006 43.2601 317.567C44.3003 317.99 45.296 318.515 46.2324 319.135C46.6711 319.43 47.0079 319.854 47.1966 320.348C47.3852 320.842 47.4165 321.382 47.2861 321.894C47.1557 322.407 46.87 322.866 46.4682 323.21C46.0664 323.553 45.5682 323.764 45.0417 323.814C48.8408 333.216 58.6628 339.53 68.7505 339.494C69.72 343.707 71.1246 347.807 72.9417 351.73H87.914C87.9677 351.563 88.016 351.392 88.0643 351.225C86.6784 351.312 85.2871 351.23 83.9214 350.978C87.588 346.637 90.4236 344.422 88.2896 338.362L88.2892 338.362Z" fill="#F2F2F2"/>
<path d="M221.77 338.362C222.156 338.379 222.538 338.278 222.865 338.071C223.192 337.864 223.447 337.562 223.596 337.206C223.745 336.849 223.781 336.455 223.699 336.077C223.617 335.699 223.42 335.356 223.136 335.094C223.089 334.905 223.055 334.769 223.007 334.58C223.377 333.641 224.018 332.834 224.85 332.262C225.681 331.69 226.664 331.38 227.673 331.37C228.682 331.361 229.671 331.653 230.513 332.209C231.355 332.765 232.011 333.56 232.399 334.491C234.633 339.722 237.525 345.137 236.087 350.898C245.587 330.763 242.357 305.717 228.316 288.497C224.435 286.359 221.29 282.561 220.471 278.151C222.391 278.802 224.786 277.239 223.342 275.216C222.716 274.443 222.084 273.676 221.458 272.902C228.754 265.132 237.447 277.344 229.417 287.832C232.044 291.126 234.319 294.685 236.206 298.452C235.77 294.452 236.291 290.406 237.724 286.646C239.176 283.142 241.899 280.191 244.296 277.162C247.211 273.471 253.211 275.173 253.603 279.857C250.913 280.742 250.563 284.628 253.641 285.159C252.835 293.873 247.142 301.881 239.301 305.702C242.197 313.826 243.327 322.474 242.618 331.069C244.002 321.024 254.785 318.586 262.322 314.594C262.801 314.286 263.36 314.125 263.93 314.129C264.5 314.134 265.056 314.304 265.531 314.619C266.005 314.934 266.378 315.381 266.603 315.905C266.828 316.428 266.896 317.006 266.799 317.567C265.759 317.99 264.763 318.515 263.827 319.135C263.388 319.43 263.051 319.854 262.862 320.348C262.674 320.842 262.643 321.382 262.773 321.894C262.903 322.407 263.189 322.866 263.591 323.21C263.993 323.553 264.491 323.764 265.017 323.814C261.218 333.216 251.396 339.53 241.308 339.494C240.339 343.707 238.934 347.807 237.117 351.73H222.145C222.091 351.563 222.043 351.392 221.995 351.225C223.381 351.312 224.772 351.23 226.138 350.978C222.471 346.637 219.636 344.422 221.77 338.362Z" fill="#F2F2F2"/>
<path d="M227.321 340.585L220.874 342.051L212.146 317.879L221.663 315.714L227.321 340.585Z" fill="#FFB6B6"/>
<path d="M229.08 347.26L209.251 351.771L209.194 351.52C208.729 349.474 209.095 347.326 210.213 345.549C211.331 343.772 213.109 342.513 215.156 342.047L218.153 338.475L225.536 339.685L227.266 339.291L229.08 347.26Z" fill="#2F2E41"/>
<path d="M331.337 222.76L334.881 228.342L315.037 244.672L309.805 236.433L331.337 222.76Z" fill="#FFB6B6"/>
<path d="M337.034 218.865L347.936 236.031L347.719 236.169C345.947 237.294 343.8 237.67 341.751 237.212C339.703 236.755 337.92 235.503 336.794 233.731L332.424 232.106L331.087 224.745L330.136 223.246L337.034 218.865Z" fill="#2F2E41"/>
<path d="M125.801 163.079L124.208 153.849L148.42 142.916L153.648 133.658C153.48 132.846 153.538 132.003 153.819 131.222C154.099 130.441 154.59 129.753 155.237 129.233C155.884 128.713 156.661 128.383 157.484 128.278C158.307 128.172 159.144 128.297 159.9 128.637C160.657 128.977 161.305 129.52 161.773 130.205C162.241 130.89 162.51 131.691 162.551 132.52C162.592 133.349 162.403 134.173 162.005 134.901C161.607 135.629 161.016 136.233 160.296 136.646L151.695 149.944L125.801 163.079Z" fill="#A0616A"/>
<path d="M118.441 155.533L129.345 149.964L132.231 160.801L124.657 166.415L118.441 155.533Z" fill="#6366F1"/>
<path d="M93.9752 339.745L100.568 339.745L103.704 314.316L93.9736 314.317L93.9752 339.745Z" fill="#A0616A"/>
<path d="M102.761 340.338V335.869L101.027 335.975L93.9724 336.393L92.3396 336.493L91.0913 351.462L91.0244 352.264H95.7055L95.8559 351.467L96.5358 347.845L98.2912 351.467L98.6757 352.264H111.086C111.825 352.259 112.531 351.964 113.053 351.441C113.575 350.918 113.869 350.211 113.872 349.472C114.396 347.026 104.076 341.737 102.761 340.338Z" fill="#2F2E41"/>
<path d="M15.7194 238.83L14.1826 245.241L38.1791 254.22L40.447 244.758L15.7194 238.83Z" fill="#A0616A"/>
<path d="M13.6152 247.236L17.9613 248.278L18.2625 246.568L19.501 239.61L19.7841 237.999L5.51948 233.295L4.75471 233.043L3.66327 237.595L4.40312 237.927L7.76702 239.433L3.83531 240.295L2.97072 240.483L0.0771199 252.552C-0.0905235 253.271 0.0323258 254.027 0.419015 254.656C0.805705 255.286 1.425 255.737 2.14241 255.912C4.39927 256.992 11.9484 248.189 13.6152 247.236Z" fill="#2F2E41"/>
<path d="M104.168 175.174L95.6828 171.207L78.7607 191.686L68.4533 194.293C67.714 193.916 66.8851 193.751 66.0579 193.815C65.2307 193.88 64.4375 194.172 63.766 194.66C63.0944 195.147 62.5706 195.81 62.2524 196.577C61.9342 197.343 61.834 198.182 61.9628 199.002C62.0917 199.821 62.4446 200.59 62.9826 201.221C63.5205 201.853 64.2226 202.324 65.0113 202.581C65.8 202.839 66.6446 202.874 67.4517 202.681C68.2589 202.489 68.9972 202.078 69.5852 201.492L84.6786 196.696L104.168 175.174Z" fill="#A0616A"/>
<path d="M224.471 99.3645C222.673 99.3645 220.914 98.8312 219.419 97.8319C217.923 96.8326 216.758 95.4122 216.069 93.7504C215.381 92.0886 215.201 90.2601 215.552 88.4959C215.903 86.7318 216.769 85.1113 218.041 83.8395C219.313 82.5676 220.933 81.7014 222.697 81.3505C224.461 80.9996 226.29 81.1797 227.952 81.8681C229.613 82.5564 231.034 83.722 232.033 85.2176C233.032 86.7132 233.566 88.4715 233.566 90.2701C233.563 92.6813 232.604 94.9929 230.899 96.6979C229.194 98.4028 226.882 99.3618 224.471 99.3645ZM224.471 82.2195C222.879 82.2195 221.323 82.6916 219.999 83.5762C218.675 84.4609 217.643 85.7182 217.033 87.1893C216.424 88.6604 216.265 90.2791 216.575 91.8408C216.886 93.4025 217.653 94.837 218.779 95.9629C219.905 97.0888 221.339 97.8555 222.901 98.1662C224.462 98.4768 226.081 98.3174 227.552 97.708C229.023 97.0987 230.281 96.0668 231.165 94.7429C232.05 93.4189 232.522 91.8624 232.522 90.2701C232.52 88.1357 231.671 86.0894 230.161 84.5801C228.652 83.0708 226.606 82.2219 224.471 82.2195Z" fill="#E6E6E6"/>
<path d="M223.829 93.6964C223.811 93.6964 223.793 93.6958 223.774 93.6949C223.613 93.6871 223.455 93.6445 223.312 93.57C223.168 93.4955 223.043 93.3908 222.943 93.2632L221.511 91.4213C221.42 91.3051 221.354 91.1722 221.315 91.0301C221.276 90.8881 221.265 90.7398 221.283 90.5936C221.301 90.4474 221.348 90.3063 221.421 90.1782C221.494 90.0502 221.591 89.9377 221.707 89.8473L221.759 89.8072C221.875 89.7166 222.008 89.6499 222.15 89.6108C222.292 89.5717 222.441 89.561 222.587 89.5793C222.733 89.5975 222.874 89.6444 223.002 89.7173C223.13 89.7902 223.243 89.8876 223.333 90.0039C223.406 90.0968 223.497 90.173 223.602 90.2273C223.706 90.2815 223.821 90.3126 223.939 90.3183C224.057 90.324 224.174 90.3043 224.283 90.2604C224.393 90.2166 224.491 90.1497 224.572 90.0642L227.481 86.9934C227.686 86.7777 227.968 86.652 228.265 86.644C228.562 86.6359 228.851 86.746 229.067 86.9503L229.114 86.9957C229.221 87.097 229.307 87.2184 229.367 87.3529C229.427 87.4874 229.46 87.6324 229.464 87.7797C229.468 87.927 229.443 88.0736 229.391 88.2111C229.338 88.3487 229.259 88.4745 229.157 88.5814L224.643 93.3461C224.539 93.4568 224.412 93.5449 224.272 93.6051C224.132 93.6654 223.982 93.6964 223.829 93.6964Z" fill="#E6E6E6"/>
<path d="M179.072 209.471C177.273 209.471 175.515 208.938 174.019 207.938C172.524 206.939 171.358 205.519 170.67 203.857C169.981 202.195 169.801 200.367 170.152 198.602C170.503 196.838 171.369 195.218 172.641 193.946C173.913 192.674 175.534 191.808 177.298 191.457C179.062 191.106 180.89 191.286 182.552 191.975C184.214 192.663 185.634 193.828 186.634 195.324C187.633 196.82 188.166 198.578 188.166 200.377C188.164 202.788 187.205 205.099 185.5 206.804C183.795 208.509 181.483 209.468 179.072 209.471ZM179.072 192.326C177.48 192.326 175.923 192.798 174.599 193.683C173.275 194.567 172.243 195.825 171.634 197.296C171.025 198.767 170.865 200.386 171.176 201.947C171.487 203.509 172.253 204.943 173.379 206.069C174.505 207.195 175.94 207.962 177.501 208.273C179.063 208.583 180.682 208.424 182.153 207.814C183.624 207.205 184.881 206.173 185.766 204.849C186.65 203.525 187.123 201.969 187.123 200.377C187.12 198.242 186.271 196.196 184.762 194.687C183.253 193.177 181.206 192.328 179.072 192.326Z" fill="#E6E6E6"/>
<path d="M178.43 203.803C178.412 203.803 178.393 203.802 178.375 203.801C178.214 203.794 178.056 203.751 177.912 203.676C177.769 203.602 177.643 203.497 177.544 203.37L176.111 201.528C176.021 201.412 175.954 201.279 175.915 201.137C175.876 200.995 175.865 200.846 175.884 200.7C175.902 200.554 175.949 200.413 176.022 200.285C176.094 200.157 176.192 200.044 176.308 199.954L176.36 199.914C176.476 199.823 176.609 199.756 176.751 199.717C176.893 199.678 177.041 199.667 177.188 199.686C177.334 199.704 177.475 199.751 177.603 199.824C177.731 199.897 177.844 199.994 177.934 200.11C178.006 200.203 178.098 200.279 178.202 200.334C178.307 200.388 178.422 200.419 178.54 200.425C178.657 200.43 178.775 200.411 178.884 200.367C178.993 200.323 179.092 200.256 179.173 200.171L182.082 197.1C182.286 196.884 182.568 196.758 182.866 196.75C183.163 196.742 183.451 196.852 183.667 197.057L183.715 197.102C183.822 197.203 183.908 197.325 183.968 197.459C184.028 197.594 184.061 197.739 184.065 197.886C184.069 198.033 184.044 198.18 183.991 198.318C183.938 198.455 183.859 198.581 183.758 198.688L179.244 203.453C179.139 203.563 179.013 203.651 178.873 203.712C178.733 203.772 178.582 203.803 178.43 203.803Z" fill="#E6E6E6"/>
<path d="M79.401 86.8411C77.6023 86.8411 75.844 86.3077 74.3485 85.3084C72.8529 84.3091 71.6873 82.8888 70.9989 81.227C70.3106 79.5652 70.1305 77.7366 70.4814 75.9725C70.8323 74.2084 71.6984 72.5879 72.9703 71.316C74.2422 70.0442 75.8627 69.178 77.6268 68.8271C79.3909 68.4762 81.2195 68.6563 82.8813 69.3446C84.5431 70.0329 85.9634 71.1986 86.9627 72.6942C87.962 74.1897 88.4954 75.948 88.4954 77.7467C88.4927 80.1579 87.5337 82.4695 85.8287 84.1744C84.1238 85.8794 81.8122 86.8384 79.401 86.8411ZM79.401 69.696C77.8087 69.696 76.2522 70.1682 74.9283 71.0528C73.6044 71.9374 72.5725 73.1948 71.9631 74.6659C71.3538 76.1369 71.1944 77.7557 71.505 79.3173C71.8156 80.879 72.5824 82.3135 73.7083 83.4394C74.8342 84.5653 76.2687 85.3321 77.8304 85.6427C79.3921 85.9534 81.0108 85.7939 82.4819 85.1846C83.953 84.5753 85.2103 83.5434 86.0949 82.2194C86.9796 80.8955 87.4517 79.339 87.4517 77.7467C87.4493 75.6123 86.6003 73.566 85.0911 72.0567C83.5818 70.5474 81.5354 69.6984 79.401 69.696Z" fill="#E6E6E6"/>
<path d="M78.76 81.172C78.7417 81.172 78.7234 81.1714 78.7051 81.1705C78.5437 81.1627 78.3858 81.1201 78.2424 81.0456C78.0989 80.971 77.9733 80.8664 77.8741 80.7387L76.4415 78.8969C76.351 78.7807 76.2844 78.6477 76.2453 78.5057C76.2062 78.3637 76.1955 78.2153 76.2137 78.0692C76.232 77.923 76.2789 77.7819 76.3517 77.6538C76.4245 77.5257 76.5218 77.4133 76.6381 77.3229L76.6896 77.2827C76.8059 77.1922 76.9389 77.1255 77.0809 77.0864C77.223 77.0473 77.3714 77.0366 77.5176 77.0548C77.6638 77.0731 77.805 77.12 77.9331 77.1929C78.0611 77.2657 78.1736 77.3631 78.264 77.4795C78.3364 77.5724 78.4279 77.6486 78.5325 77.7028C78.637 77.7571 78.752 77.7881 78.8696 77.7939C78.9872 77.7996 79.1047 77.7799 79.214 77.736C79.3233 77.6922 79.4218 77.6252 79.5029 77.5398L82.4117 74.4689C82.6164 74.2533 82.8984 74.1276 83.1956 74.1196C83.4929 74.1115 83.7813 74.2216 83.9975 74.4259L84.0452 74.4713C84.1521 74.5726 84.2381 74.694 84.2981 74.8285C84.3581 74.963 84.3911 75.108 84.3951 75.2553C84.399 75.4025 84.374 75.5491 84.3213 75.6867C84.2686 75.8242 84.1893 75.9501 84.0879 76.057L79.5739 80.8217C79.4692 80.9323 79.343 81.0205 79.2031 81.0807C79.0631 81.141 78.9123 81.172 78.76 81.172Z" fill="#E6E6E6"/>
<path d="M152.21 243.285C131.122 243.285 106.886 219.883 85.4425 231.002C20.5187 264.667 29.4558 208.334 10.8037 187.383L11.4161 186.154C31.9965 204.608 57.6919 219.622 85.7244 229.573C111.057 238.567 136.58 242.734 159.524 241.634L159.564 243.111C157.141 243.227 154.69 243.286 152.21 243.285Z" fill="#F2F2F2"/>
<path d="M123.282 85.0604C125.717 85.0604 127.69 82.4139 127.69 79.1493C127.69 75.8847 125.717 73.2383 123.282 73.2383C120.848 73.2383 118.874 75.8847 118.874 79.1493C118.874 82.4139 120.848 85.0604 123.282 85.0604Z" fill="#E6E6E6"/>
<path d="M174.196 177.274C172.181 178.617 170.118 175.421 172.172 174.137C174.187 172.795 176.25 175.991 174.196 177.274Z" fill="#E6E6E6"/>
<path d="M162.596 69.6805C165.766 69.6805 168.336 67.1106 168.336 63.9404C168.336 60.7702 165.766 58.2002 162.596 58.2002C159.425 58.2002 156.855 60.7702 156.855 63.9404C156.855 67.1106 159.425 69.6805 162.596 69.6805Z" fill="#FF6584"/>
<path opacity="0.3" d="M182.673 95.3958L215.336 0L179.47 94.2538C179.292 94.4775 179.171 94.7403 179.115 95.0204C179.06 95.3005 179.072 95.5897 179.15 95.8642C179.229 96.1387 179.372 96.3904 179.567 96.5986C179.763 96.8068 180.005 96.9654 180.274 97.0613C180.543 97.1572 180.831 97.1876 181.114 97.1499C181.397 97.1123 181.667 97.0077 181.901 96.8449C182.136 96.6821 182.328 96.4657 182.462 96.2136C182.596 95.9616 182.669 95.6813 182.673 95.3958Z" fill="#F0F0F0"/>
<path d="M149.704 211.616C152.788 211.616 155.289 209.116 155.289 206.031C155.289 202.947 152.788 200.446 149.704 200.446C146.62 200.446 144.119 202.947 144.119 206.031C144.119 209.116 146.62 211.616 149.704 211.616Z" fill="#F2F2F2"/>
<path d="M95.6133 208.161C95.6133 208.161 81.6905 217.227 85.3719 223.251C85.4989 223.459 68.7412 245.592 68.7412 245.592L37.1067 243.583L35.9922 254.172L64.1555 262.328C64.1555 262.328 71.0453 267.39 76.3679 261.813C81.6905 256.236 99.4194 239.157 99.4194 239.157L100.275 273.639L91.3747 321.419L104.663 320.576L117.597 272.641L122.371 218.342L95.6133 208.161Z" fill="#2F2E41"/>
<path d="M105.53 153.75L99.6754 158.187L93.0021 172.43L99.419 181.145C99.419 181.145 104.817 190.5 96.1769 199.559C87.537 208.619 80.9024 218.295 87.8178 217.949C94.7332 217.604 122.742 231.849 122.926 220.178C123.11 208.507 123.483 199.559 123.483 199.559L130.826 180.935C130.826 180.935 135.201 169.824 132.13 166.498C129.058 163.172 124.945 158.922 124.945 158.922L117.466 151.443H110.713L105.53 153.75Z" fill="#6366F1"/>
<path d="M116.46 126.384C129.595 133.859 118.812 153.579 105.432 146.557C92.2976 139.083 103.081 119.362 116.46 126.384Z" fill="#A0616A"/>
<path d="M123.483 130.528C122.563 131.725 120.64 131.164 116.875 132.018C116.883 130.742 116.736 129.469 116.436 128.229C116.155 129.765 115.541 131.221 114.637 132.494C111.367 132.856 115.376 142.789 113.701 150.092C111.544 134.685 107.008 138.722 109.3 141.778C110.767 143.734 109.789 149.603 105.387 146.669C98.124 150.12 87.7794 132.974 99.2443 124.933C99.0395 120.586 103.876 119.899 106.854 121.236C114.082 115.851 122.339 122.75 123.483 130.528Z" fill="#2F2E41"/>
<path d="M89.7823 119.286C86.858 137.266 71.1841 115.98 63.8143 133.673C61.4971 140.081 65.4728 144.665 67.9875 149.983C68.5615 154.354 62.8753 156.572 62.2797 160.595C62.1139 169.819 76.9953 169.255 81.1556 163.435C85.4302 157.343 80.3257 149.169 82.895 142.63C86.5063 133.552 101.192 133.484 102.472 122.922C99.994 119.394 93.3312 115.353 89.7823 119.286Z" fill="#2F2E41"/>
<path d="M101.629 121.043C101.533 121.084 101.437 121.124 101.352 121.169H101.347C101.266 121.21 101.186 121.25 101.105 121.295C101.095 121.3 101.09 121.305 101.08 121.31C100.974 121.21 100.868 121.109 100.758 121.008C100.729 121.172 100.736 121.34 100.778 121.502L100.793 121.562C100.894 121.668 100.999 121.768 101.11 121.874C101.211 121.799 101.306 121.718 101.407 121.643C101.468 121.592 101.528 121.542 101.593 121.491C101.604 121.361 101.619 121.21 101.634 121.043L101.629 121.043ZM104.66 115.444C102.414 114.931 101.689 117.866 101.473 119.281C100.657 114.145 97.2633 115.762 98.4364 119.266C98.8104 120.303 99.3989 121.251 100.163 122.045C100.269 122.166 100.385 122.287 100.506 122.408C100.37 123.113 101.055 122.931 101.981 122.282C102.665 121.795 103.298 121.24 103.869 120.625C105.717 118.687 107.157 116.094 104.66 115.444ZM104.73 118.334C104.037 119.228 103.26 120.052 102.409 120.797C102.142 121.038 101.87 121.27 101.593 121.491C101.588 121.537 101.588 121.577 101.583 121.612C101.564 121.661 101.54 121.708 101.513 121.753C101.231 122.262 100.914 121.985 100.793 121.562C100.783 121.547 100.768 121.532 100.758 121.517C100.355 121.101 100.005 120.638 99.7154 120.137C97.6359 116.532 100.984 114.08 100.818 120.812C100.787 120.873 100.767 120.94 100.758 121.008C100.729 121.172 100.736 121.34 100.778 121.502L100.793 121.562C100.894 121.668 100.999 121.768 101.11 121.874C101.211 121.799 101.306 121.718 101.407 121.643C101.468 121.592 101.528 121.542 101.593 121.491C101.604 121.361 101.619 121.21 101.634 121.043V121.038C101.765 119.689 102.122 117.262 102.782 116.602C104.232 115.49 106.11 116.693 104.73 118.334ZM101.629 121.043C101.533 121.084 101.437 121.124 101.352 121.169H101.347C101.266 121.21 101.186 121.25 101.105 121.295C101.095 121.3 101.09 121.305 101.08 121.31C100.974 121.21 100.868 121.109 100.758 121.008C100.729 121.172 100.736 121.34 100.778 121.502L100.793 121.562C100.894 121.668 100.999 121.768 101.11 121.874C101.211 121.799 101.306 121.718 101.407 121.643C101.468 121.592 101.528 121.542 101.593 121.491C101.604 121.361 101.619 121.21 101.634 121.043L101.629 121.043Z" fill="#2F2E41"/>
<path d="M223.029 220.171L218.178 232.822L195.422 277.71L215.418 329.928L225.737 327.204L217.232 277.71L241.635 248.06L270.615 267.715C270.615 267.715 283.468 277.749 288.357 268.237C293.247 258.725 324.886 238.493 324.886 238.493L317.058 230.143L280.624 247.194L255.478 211.799L223.029 220.171Z" fill="#2F2E41"/>
<path d="M247.507 160.497L239.521 151.918L225.823 150.033L209.039 161.783L209.208 174.789L217.505 205.436C217.505 205.436 214.345 227.454 223.172 227.233C232 227.012 236.811 222.611 240.407 223.507C244.002 224.403 259.285 228.216 260.254 224.222C261.222 220.228 266.371 223.088 266.145 219.31C265.919 215.532 252.207 188.299 252.207 188.299L255.616 161.064L247.507 160.497Z" fill="#6366F1"/>
<path d="M298.067 121.004C298.139 121.715 298.053 122.434 297.817 123.109C297.581 123.784 297.2 124.399 296.7 124.91C296.2 125.422 295.595 125.818 294.925 126.07C294.256 126.322 293.54 126.424 292.827 126.37L274.463 161.294L269.533 153.726L288.303 120.765C288.474 119.573 289.077 118.485 289.996 117.708C290.915 116.931 292.088 116.518 293.292 116.547C294.495 116.577 295.646 117.047 296.526 117.868C297.407 118.69 297.955 119.805 298.067 121.004Z" fill="#FFB6B6"/>
<path d="M240.257 166.991C240.257 166.991 239.529 173.203 246.522 174.741C253.516 176.279 272.892 165.208 276.068 163.517C277.063 162.987 278.413 160.392 279.797 157.076C280.419 155.588 281.048 153.954 281.655 152.297C282.006 151.338 283.688 151.076 284.019 150.125C284.348 149.179 283.327 147.544 283.625 146.653C285.04 142.422 286.042 139.065 286.042 139.065L281.407 130.358C274.924 133.786 271.599 141.335 269.153 150.032L240.257 166.991Z" fill="#6366F1"/>
<path d="M158.58 129.024C158.689 129.731 158.951 130.405 159.349 131C159.747 131.594 160.27 132.094 160.881 132.464C161.493 132.834 162.179 133.066 162.89 133.143C163.601 133.219 164.32 133.139 164.996 132.908L191.516 162.125L194.395 153.564L167.973 126.349C167.51 125.238 166.654 124.336 165.57 123.813C164.485 123.291 163.246 123.184 162.088 123.514C160.931 123.844 159.934 124.587 159.287 125.603C158.641 126.618 158.389 127.836 158.58 129.024Z" fill="#FFB6B6"/>
<path d="M226.06 159.08C226.06 159.08 228.32 164.912 221.933 168.151C215.547 171.391 194.017 165.521 190.519 164.678C189.423 164.415 187.467 162.24 185.296 159.376C184.322 158.09 183.304 156.666 182.302 155.214C181.722 154.373 180.028 154.541 179.47 153.703C178.914 152.869 179.494 151.031 178.982 150.242C176.554 146.5 174.743 143.501 174.743 143.501L177.052 133.911C184.186 135.607 189.295 142.084 193.839 149.892L226.06 159.08Z" fill="#6366F1"/>
<path d="M232.945 147.85C240.144 147.85 245.979 142.015 245.979 134.817C245.979 127.618 240.144 121.783 232.945 121.783C225.747 121.783 219.912 127.618 219.912 134.817C219.912 142.015 225.747 147.85 232.945 147.85Z" fill="#FFB6B6"/>
<path d="M247.823 127.354C246.452 125.233 243.879 123.82 241.385 124.217C241.153 122.625 240.489 121.128 239.464 119.888C238.44 118.647 237.095 117.712 235.576 117.183C234.057 116.654 232.422 116.552 230.849 116.888C229.276 117.224 227.825 117.986 226.655 119.089C226.27 118.818 225.822 118.651 225.353 118.604C224.885 118.557 224.413 118.632 223.982 118.822C223.123 119.212 222.376 119.811 221.81 120.565C220.378 122.35 219.458 124.489 219.146 126.755C218.835 129.022 219.143 131.33 220.039 133.435C219.735 132.327 220.845 131.284 221.967 131.036C223.089 130.787 224.266 131.022 225.404 130.86C226.862 130.653 228.173 129.807 229.634 129.617C230.872 129.536 232.115 129.696 233.293 130.087C234.47 130.478 235.711 130.644 236.95 130.578C238.179 130.432 239.763 135.091 239.742 138.372C239.738 138.994 239.866 139.792 240.473 139.924C241.222 140.087 241.655 139.054 242.368 138.772C242.696 138.678 243.048 138.715 243.35 138.876C243.651 139.036 243.879 139.307 243.984 139.632C244.074 139.962 244.083 140.309 244.012 140.644C243.941 140.978 243.791 141.291 243.574 141.556C243.136 142.081 242.616 142.532 242.035 142.891L242.328 143.135C242.607 143.429 242.979 143.618 243.381 143.667C243.783 143.717 244.19 143.626 244.532 143.409C245.204 142.953 245.749 142.333 246.114 141.607C247.489 139.481 248.471 137.126 249.016 134.654C249.475 132.17 249.194 129.475 247.823 127.354Z" fill="#2F2E41"/>
<path d="M344.243 178.759C327.432 191.492 293.983 187.469 283.602 209.279C252.173 275.315 225.285 225.012 197.767 219.572L197.514 218.223C225.061 220.508 254.61 216.963 282.964 207.97C308.589 199.845 331.45 187.757 349.076 173.027L350 174.18C348.139 175.736 346.22 177.263 344.243 178.759Z" fill="#F2F2F2"/>
<path d="M273.167 351.713C272.767 352.899 44.1654 352.899 43.7334 351.716C44.1333 350.527 272.735 350.527 273.167 351.713Z" fill="#CCCCCC"/>
</g>
<defs>
<clipPath id="clip0_9699_4417">
<rect width="350" height="352.603" fill="white"/>
</clipPath>
</defs>
</svg>
