<svg width="20" height="20" viewBox="0 0 20 20" fill="none" xmlns="http://www.w3.org/2000/svg">
<path d="M16.2502 3.75033C15.45 2.95037 14.3649 2.50098 13.2335 2.50098C12.1021 2.50098 11.0169 2.95037 10.2168 3.75033L3.75015 10.217C3.34444 10.611 3.02111 11.0818 2.79897 11.6019C2.57683 12.122 2.4603 12.681 2.45617 13.2466C2.45204 13.8121 2.56038 14.3728 2.7749 14.8961C2.98941 15.4194 3.30582 15.8948 3.70573 16.2947C4.10564 16.6947 4.58106 17.0111 5.10435 17.2256C5.62765 17.4401 6.18836 17.5484 6.7539 17.5443C7.31944 17.5402 7.87852 17.4237 8.39862 17.2015C8.91872 16.9794 9.38946 16.656 9.78348 16.2503L16.2502 9.78366C17.0501 8.98354 17.4995 7.89843 17.4995 6.767C17.4995 5.63557 17.0501 4.55046 16.2502 3.75033ZM15.0752 8.60033L12.4251 11.2503L8.75015 7.57533L11.4002 4.92533C11.8927 4.46393 12.5453 4.21212 13.2201 4.22313C13.8949 4.23413 14.539 4.50709 15.0162 4.9843C15.4934 5.46152 15.7664 6.10559 15.7774 6.78038C15.7884 7.45518 15.5366 8.10781 15.0752 8.60033Z" fill="currentColor"/>
</svg>
