<svg width="30" height="31" viewBox="0 0 30 31" fill="none" xmlns="http://www.w3.org/2000/svg">
<path d="M26.0156 23.7031H5.85938V5.42188C5.85938 5.29297 5.75391 5.1875 5.625 5.1875H3.98438C3.85547 5.1875 3.75 5.29297 3.75 5.42188V25.5781C3.75 25.707 3.85547 25.8125 3.98438 25.8125H26.0156C26.1445 25.8125 26.25 25.707 26.25 25.5781V23.9375C26.25 23.8086 26.1445 23.7031 26.0156 23.7031ZM8.95898 19.1826C9.0498 19.2734 9.19629 19.2734 9.29004 19.1826L13.3418 15.1514L17.0801 18.9131C17.1709 19.0039 17.3203 19.0039 17.4111 18.9131L25.4795 10.8477C25.5703 10.7568 25.5703 10.6074 25.4795 10.5166L24.3193 9.35644C24.2753 9.31283 24.2158 9.28836 24.1538 9.28836C24.0918 9.28836 24.0323 9.31283 23.9883 9.35644L17.25 16.0918L13.5176 12.3359C13.4735 12.2923 13.414 12.2679 13.3521 12.2679C13.2901 12.2679 13.2306 12.2923 13.1865 12.3359L7.80176 17.6885C7.75814 17.7325 7.73367 17.792 7.73367 17.854C7.73367 17.916 7.75814 17.9755 7.80176 18.0195L8.95898 19.1826Z" fill="#6366F1"/>
</svg>
