<svg width="24" height="24" viewBox="0 0 24 24" fill="none" xmlns="http://www.w3.org/2000/svg">
<path d="M9.29279 18.7074C9.10532 18.5199 9 18.2656 9 18.0004C9 17.7352 9.10532 17.4809 9.29279 17.2934L14.5858 12.0004L9.29279 6.70741C9.11063 6.5188 9.00983 6.2662 9.01211 6.00401C9.01439 5.74181 9.11956 5.491 9.30497 5.30559C9.49038 5.12018 9.74119 5.01501 10.0034 5.01273C10.2656 5.01045 10.5182 5.11125 10.7068 5.29341L16.7068 11.2934C16.8943 11.4809 16.9996 11.7352 16.9996 12.0004C16.9996 12.2656 16.8943 12.5199 16.7068 12.7074L10.7068 18.7074C10.5193 18.8949 10.265 19.0002 9.99979 19.0002C9.73462 19.0002 9.48031 18.8949 9.29279 18.7074Z" fill="#414040"/>
</svg>
