<svg width="30" height="30" viewBox="0 0 30 30" fill="none" xmlns="http://www.w3.org/2000/svg">
<g clip-path="url(#clip0_9763_706)">
<path d="M24.6764 27.4767C25.3411 26.3925 25.4742 26.5898 25.5 25.5C28.3805 23.7867 30 18.5255 30 15C30 7.23281 22.7672 0 15 0C7.23281 0 0 7.23281 0 15C0 18.5255 0.87 23.0372 3.75 24.75C3.77531 25.8352 4.65656 26.3831 5.31516 27.4641C3.54234 27.5845 2.34375 27.8133 2.34375 28.0758C2.34375 28.4639 4.96125 28.7789 8.18953 28.7789C9.46359 28.7789 10.6402 28.7297 11.5997 28.6462C12.6886 28.9162 13.8272 29.0625 15 29.0625C15.5559 29.0625 16.1034 29.0269 16.6416 28.9641C17.8233 29.0269 19.1705 29.0625 20.602 29.0625C25.275 29.0625 29.0625 28.6842 29.0625 28.2173C29.0625 27.8981 27.2902 27.6206 24.6764 27.4767ZM15 2.10938C22.1086 2.10938 27.8906 7.89188 27.8906 15C27.8906 17.7848 27 20.3639 25.493 22.4738C25.0955 19.9069 23.9494 17.3438 24.3816 14.8252C24.5142 14.6273 24.6427 14.4169 24.7617 14.1914C24.8597 14.0039 24.6023 13.9195 24.2883 13.7062C22.3078 15.2625 19.1044 15.1191 17.3081 13.7072C16.9941 13.9195 16.7377 14.0039 16.8347 14.1914C17.8673 16.1405 19.4466 17.0602 21.0014 16.9711C20.8027 19.9584 22.89 22.6655 22.222 25.6725C20.16 27.0717 17.6742 27.8906 15 27.8906C12.3258 27.8906 9.83906 27.0717 7.7775 25.6716C7.10953 22.6659 9.19734 19.9584 8.99859 16.9711C10.5534 17.0602 12.1336 16.1405 13.1663 14.1914C13.2633 14.0039 13.0069 13.9195 12.6928 13.7062C10.7123 15.2625 7.50844 15.1191 5.71219 13.7072C5.39813 13.9195 5.14172 14.0039 5.23875 14.1914C5.35828 14.4164 5.48578 14.6273 5.61891 14.8256C6.05063 17.3438 4.90453 19.9064 4.50656 22.4733C2.99953 20.3634 2.10938 17.7844 2.10938 15C2.10938 7.89188 7.89188 2.10938 15 2.10938Z" fill="#8C8C8C"/>
<path d="M9.02958 21.5625C8.68083 22.4625 9.17958 23.9062 9.17958 23.9062C9.80301 25.7264 9.71536 26.25 14.9996 26.25C20.2777 26.25 20.1961 25.7264 20.8191 23.9062C20.8191 23.9062 21.3188 22.4625 20.97 21.5625C20.3161 19.8783 18.7299 18.75 14.9986 18.75C11.2697 18.75 9.68255 19.8783 9.02958 21.5625ZM10.8736 20.7037C10.8736 20.7037 11.8158 19.6875 14.9991 19.6875C18.1833 19.6875 19.1265 20.7037 19.1265 20.7037C19.2043 20.7877 19.2399 20.9555 19.2061 21.0773L19.134 21.3412C19.1007 21.4627 18.99 21.5625 18.8883 21.5625H11.1108C11.0091 21.5625 10.8994 21.4627 10.8657 21.3408L10.7935 21.0769C10.7602 20.9555 10.7968 20.7877 10.8736 20.7037Z" fill="#8C8C8C"/>
<path d="M24.4868 11.5422C24.821 11.5085 24.6701 10.4908 24.3944 10.5199C22.4168 10.6985 20.4621 9.98692 19.0633 8.5788C18.8712 8.38005 18.1001 9.06208 18.3344 9.30208C19.9497 10.9282 22.2054 11.7494 24.4868 11.5422Z" fill="#8C8C8C"/>
<path d="M5.51111 11.5425C7.79345 11.7483 10.0505 10.928 11.6644 9.30332C11.8978 9.06145 11.1277 8.37942 10.9364 8.5791C9.53673 9.98723 7.58111 10.6983 5.60392 10.5197C5.3297 10.4897 5.17782 11.5079 5.51111 11.5425Z" fill="#8C8C8C"/>
</g>
<defs>
<clipPath id="clip0_9763_706">
<rect width="30" height="30" fill="white"/>
</clipPath>
</defs>
</svg>
