<svg width="30" height="30" viewBox="0 0 30 30" fill="none" xmlns="http://www.w3.org/2000/svg">
<path fill-rule="evenodd" clip-rule="evenodd" d="M22.0597 0C22.5468 0 22.9421 0.395313 22.9421 0.882359V1.7647H25.5892C27.0486 1.7647 28.2362 2.95236 28.2362 4.41177V30H1.76562V4.41177C1.76562 2.95236 2.95327 1.7647 4.41269 1.7647H7.05972V0.882359C7.05972 0.395297 7.45503 1.5625e-05 7.94209 1.5625e-05C8.42916 1.5625e-05 8.82444 0.395297 8.82444 0.882359V1.7647H21.1774V0.882359C21.1774 0.395297 21.5727 1.5625e-05 22.0597 1.5625e-05L22.0597 0ZM26.4715 8.82352H3.53034V28.2353H26.4715V8.82352ZM7.05973 3.52941H4.41269C3.92737 3.52941 3.53034 3.92472 3.53034 4.41177V7.05883H26.4715V4.41177C26.4715 3.9247 26.0745 3.52942 25.5892 3.52942H22.9421V4.41177C22.9421 4.89883 22.5468 5.29413 22.0597 5.29413C21.5727 5.29413 21.1774 4.89883 21.1774 4.41178V3.52941H8.82445V4.41177C8.82445 4.89883 8.42914 5.29413 7.94209 5.29413C7.45505 5.29413 7.05973 4.89883 7.05973 4.41178V3.52941ZM14.9923 22.1347C13.7058 22.1347 12.7811 21.5965 11.9552 20.6365L10.5364 21.9388C11.5087 23.1106 12.947 23.94 14.9605 23.94C17.3711 23.94 19.0052 22.4277 19.0052 20.3277V20.2959C19.0052 18.1959 17.3552 17.3171 15.6064 17.1053L18.8235 13.8512V12.3529H11.1805V14.0947H16.1817L13.0617 17.3665L13.3917 18.6194H14.334C15.9505 18.6194 16.9917 19.2529 16.9917 20.3753V20.4088C16.9917 21.45 16.1323 22.1347 14.9923 22.1347Z" fill="#6366F1"/>
</svg>
