<svg width="20" height="20" viewBox="0 0 20 20" fill="none" xmlns="http://www.w3.org/2000/svg">
<path d="M10.0008 7.79981C9.71177 7.79981 9.42556 7.85674 9.15852 7.96735C8.89148 8.07796 8.64884 8.24008 8.44446 8.44446C8.24008 8.64885 8.07796 8.89148 7.96735 9.15852C7.85674 9.42556 7.7998 9.71177 7.7998 10.0008C7.7998 10.2898 7.85674 10.5761 7.96735 10.8431C8.07796 11.1101 8.24008 11.3528 8.44446 11.5571C8.64884 11.7615 8.89148 11.9237 9.15852 12.0343C9.42556 12.1449 9.71177 12.2018 10.0008 12.2018C10.5845 12.2017 11.1443 11.9697 11.557 11.5568C11.9697 11.1439 12.2014 10.584 12.2013 10.0003C12.2012 9.41656 11.9692 8.85678 11.5563 8.44411C11.1434 8.03144 10.5835 7.79967 9.9998 7.79981H10.0008ZM10.0008 5.1998C10.2897 5.19967 10.5758 5.14264 10.8426 5.03196C11.1095 4.92128 11.352 4.75911 11.5561 4.55473C11.7603 4.35035 11.9223 4.10775 12.0327 3.84078C12.1432 3.57382 12.1999 3.28771 12.1998 2.99881C12.1997 2.7099 12.1426 2.42384 12.032 2.15698C11.9213 1.89011 11.7591 1.64766 11.5547 1.44346C11.3504 1.23927 11.1078 1.07733 10.8408 0.966887C10.5738 0.856448 10.2877 0.799674 9.9988 0.799805C9.41533 0.80007 8.85586 1.03211 8.44346 1.44488C8.03107 1.85764 7.79954 2.41733 7.7998 3.0008C7.80007 3.58428 8.03211 4.14375 8.44488 4.55615C8.85764 4.96854 9.41733 5.20007 10.0008 5.1998ZM10.0008 14.7998C9.41706 14.7998 8.85723 15.0317 8.44446 15.4445C8.0317 15.8572 7.7998 16.4171 7.7998 17.0008C7.7998 17.5845 8.0317 18.1444 8.44446 18.5571C8.85723 18.9699 9.41706 19.2018 10.0008 19.2018C10.5845 19.2018 11.1444 18.9699 11.5571 18.5571C11.9699 18.1444 12.2018 17.5845 12.2018 17.0008C12.2018 16.4171 11.9699 15.8572 11.5571 15.4445C11.1444 15.0317 10.5845 14.7998 10.0008 14.7998Z" fill="#262627"/>
</svg>
