<svg width="41" height="40" viewBox="0 0 41 40" fill="none" xmlns="http://www.w3.org/2000/svg">
<path d="M40.2365 38.4791L34.861 33.1591C35.3854 32.292 35.5139 31.2178 35.1632 30.2404L34.5081 28.4177C34.9427 27.1169 34.6472 25.624 33.6134 24.5897L19.3624 10.339L19.5166 10.1848C20.2086 9.4928 20.2086 8.36747 19.5166 7.67547L18.1153 6.27413C17.4233 5.58213 16.298 5.58213 15.606 6.27413L13.6353 8.2448L11.7909 6.40035L13.7616 4.42968C14.4536 3.73768 14.4536 2.61234 13.7616 1.92034L12.3602 0.519001C11.6683 -0.173 10.5429 -0.173 9.85093 0.519001L1.019 9.35058C0.327001 10.0426 0.327001 11.1679 1.019 11.8599L2.42032 13.2613C2.75543 13.5968 3.20076 13.7813 3.67498 13.7813C4.1492 13.7813 4.59453 13.5968 4.92963 13.2617L6.90029 11.291L8.74472 13.1355L6.77407 15.1062C6.08207 15.7982 6.08207 16.9235 6.77407 17.6155L8.17539 19.0168C8.52116 19.3626 8.97538 19.5359 9.43005 19.5359C9.88471 19.5359 10.3385 19.3631 10.6847 19.0168L10.8389 18.8626L15.1478 23.1715L15.1482 23.172L15.1487 23.1724L18.454 26.4773L18.4544 26.4777L18.4549 26.4782L25.0899 33.1133C25.8179 33.8413 26.7735 34.2049 27.7299 34.2049C28.1321 34.2049 28.533 34.1364 28.9179 34.008L30.7414 34.6635C31.1143 34.7973 31.5019 34.8618 31.8863 34.8618C32.4832 34.8618 33.0721 34.7022 33.5916 34.4049L38.9858 39.7431C39.1592 39.9147 39.3849 40 39.6112 40C39.8405 40 40.0689 39.912 40.2432 39.7364C40.588 39.3876 40.5854 38.8244 40.2365 38.4791ZM3.67764 12.0039L2.27632 10.607L11.1051 1.77856L12.5042 3.17279L9.91271 5.76568C9.91049 5.76791 9.90738 5.76968 9.90515 5.77191L6.27229 9.4048C6.26651 9.41058 6.26296 9.41725 6.25718 9.42347L3.67764 12.0039ZM10.5336 7.65724L12.378 9.50169L10.002 11.8777L8.15761 10.0333L10.5336 7.65724ZM8.03139 16.3626L16.8607 7.53369L18.2598 8.92791L17.4793 9.70881C17.4784 9.70969 17.4771 9.71058 17.4771 9.71058L17.4753 9.71281L10.2345 16.9573C10.2269 16.9644 10.218 16.9693 10.2105 16.9768C10.2029 16.9844 10.198 16.9933 10.1909 17.0008L9.43271 17.7595L8.03139 16.3626ZM26.3468 31.856L23.6459 29.1551L26.6504 26.1502C26.9975 25.8031 26.9975 25.2404 26.6504 24.8933C26.3033 24.5462 25.7406 24.5462 25.3935 24.8933L22.3891 27.8982L20.3397 25.8489L24.8895 21.2995C25.2366 20.9524 25.2366 20.3897 24.8895 20.0426C24.5424 19.6955 23.9797 19.6955 23.6326 20.0426L19.0829 24.592L17.0335 22.5431L20.038 19.5382C20.3851 19.1911 20.3851 18.6284 20.038 18.2813C19.6909 17.9342 19.1278 17.9342 18.7811 18.2813L15.7767 21.2862L12.0962 17.6057L18.1055 11.5964L32.3561 25.8475C32.7254 26.2169 32.9285 26.708 32.9285 27.2302C32.9285 27.7529 32.7254 28.2435 32.3561 28.6129L29.1126 31.8564C28.7432 32.2258 28.2521 32.4289 27.7299 32.4289C27.2073 32.4284 26.7166 32.2253 26.3468 31.856ZM31.3423 32.9902L30.717 32.7653L33.2654 30.2169L33.4899 30.8413C33.7023 31.4329 33.5525 32.1018 33.1085 32.5462L33.0468 32.608C32.6023 33.0533 31.9317 33.2022 31.3423 32.9902Z" fill="currentColor"/>
</svg>
