<svg width="41" height="40" viewBox="0 0 41 40" fill="none" xmlns="http://www.w3.org/2000/svg">
<path d="M39.7104 31.5401L39.4414 31.0639C38.4303 29.2644 36.0672 25.0543 33.6255 21.4615C32.8051 20.2572 31.9806 19.1333 31.2324 18.115C30.0379 16.4866 28.5517 14.4625 28.5373 13.8616C28.627 11.2211 28.565 4.97541 28.5445 3.04399H30.1039V0.307617H10.3883V3.0439H12.4557C12.4325 4.97435 12.3722 11.2189 12.463 13.8574C12.447 14.4614 10.9613 16.4866 9.76525 18.115C9.02006 19.1343 8.19499 20.2582 7.37416 21.4615C4.93311 25.0544 2.56886 29.2645 1.55782 31.0639L1.2888 31.5401C0.247845 33.3767 0.237519 35.8822 1.25579 37.6332C2.02984 38.9607 3.27168 39.6925 4.74918 39.6925H36.2485H36.2516C37.7275 39.6925 38.9695 38.9607 39.7434 37.6332C40.7627 35.8822 40.7524 33.3766 39.7104 31.5401ZM37.7852 36.4923C37.4245 37.1138 36.9081 37.4282 36.2485 37.4282H4.74918C4.09366 37.4282 3.5768 37.1148 3.21458 36.4923C2.60037 35.439 2.61934 33.789 3.26144 32.6573L3.53249 32.1708C4.52755 30.4002 6.85889 26.2488 9.25051 22.7374C10.0513 21.5543 10.8598 20.4535 11.5947 19.4543C13.6818 16.6076 14.7701 15.0638 14.7278 13.7848C14.6454 11.4344 14.6897 5.971 14.7149 3.6108H26.2875C26.3102 5.97091 26.3565 11.4344 26.2761 13.7848C26.2308 15.0638 27.3191 16.6067 29.4083 19.4543C30.14 20.4535 30.9501 21.5552 31.7528 22.7374C34.1409 26.2488 36.4722 30.4002 37.4688 32.1708L37.7389 32.6573C38.382 33.789 38.4006 35.44 37.7852 36.4923Z" fill="currentColor"/>
<path d="M36.283 31.7882C35.6884 30.7328 34.299 28.2561 32.8624 26.1455C32.4955 25.6023 32.1316 25.1014 31.7812 24.6211C31.7812 24.6211 29.9601 25.3745 24.3493 25.562C18.7374 25.7516 17.7908 27.1678 14.6324 26.8854C11.4735 26.6009 9.2226 24.6211 9.2226 24.6211C8.87318 25.1013 8.50892 25.6022 8.1414 26.1455C6.70627 28.2561 5.31333 30.7328 4.72127 31.7882L4.56408 32.0696C3.95296 33.1497 3.94572 34.6215 4.54501 35.6521C5.00212 36.4313 5.72922 36.861 6.59753 36.861H8.57326H15.8913H25.1139H32.4778H34.4083C35.276 36.861 36.0058 36.4313 36.4623 35.6521C37.058 34.6215 37.0538 33.1497 36.4416 32.0696L36.283 31.7882ZM10.4553 32.1293C9.42004 32.1293 8.57741 31.2904 8.57741 30.2536C8.57741 29.2167 9.41996 28.3779 10.4553 28.3779C11.4906 28.3779 12.3305 29.2167 12.3305 30.2536C12.3305 31.2884 11.4905 32.1293 10.4553 32.1293ZM12.5407 35.3449C12.1702 35.3449 11.8692 35.0451 11.8692 34.673C11.8692 34.303 12.1702 34.003 12.5407 34.003C12.9096 34.003 13.2117 34.3029 13.2117 34.673C13.2117 35.045 12.9096 35.3449 12.5407 35.3449ZM18.4452 31.1069C17.8196 31.1069 17.3151 30.5999 17.3151 29.9733C17.3151 29.3507 17.8207 28.8416 18.4452 28.8416C19.0688 28.8416 19.5769 29.3508 19.5769 29.9733C19.5769 30.5989 19.0688 31.1069 18.4452 31.1069ZM22.9929 34.8894C22.5033 34.8894 22.1076 34.4915 22.1076 34.003C22.1076 33.5135 22.5033 33.1178 22.9929 33.1178C23.4825 33.1178 23.8812 33.5135 23.8812 34.003C23.8803 34.4915 23.4815 34.8894 22.9929 34.8894ZM28.6883 33.196C27.5731 33.196 26.6682 32.2901 26.6682 31.1729C26.6682 30.0577 27.5731 29.1508 28.6883 29.1508C29.8096 29.1508 30.7125 30.0577 30.7125 31.1729C30.7124 32.2902 29.8096 33.196 28.6883 33.196ZM30.7763 35.3449C30.4063 35.3449 30.1053 35.0451 30.1053 34.673C30.1053 34.303 30.4062 34.003 30.7763 34.003C31.1474 34.003 31.4473 34.3029 31.4473 34.673C31.4462 35.045 31.1463 35.3449 30.7763 35.3449Z" fill="currentColor"/>
</svg>
