<svg width="30" height="30" viewBox="0 0 30 30" fill="none" xmlns="http://www.w3.org/2000/svg">
<g clip-path="url(#clip0_9763_696)">
<path d="M15 0C7.23375 0 0 7.23375 0 15C0 22.7663 7.23375 30 15 30C22.7653 30 30 22.7663 30 15C30 7.23375 22.7653 0 15 0ZM15 27.8906C7.89188 27.8906 2.10938 22.1081 2.10938 15C2.10938 7.89188 7.89188 2.10938 15 2.10938C22.1077 2.10938 27.8906 7.89188 27.8906 15C27.8906 22.1081 22.1077 27.8906 15 27.8906Z" fill="#8C8C8C"/>
<path d="M9.60938 15.2773C10.9038 15.2773 11.9531 14.228 11.9531 12.9336C11.9531 11.6392 10.9038 10.5898 9.60938 10.5898C8.31496 10.5898 7.26562 11.6392 7.26562 12.9336C7.26562 14.228 8.31496 15.2773 9.60938 15.2773Z" fill="#8C8C8C"/>
<path d="M20.3896 15.2773C21.6841 15.2773 22.7334 14.228 22.7334 12.9336C22.7334 11.6392 21.6841 10.5898 20.3896 10.5898C19.0952 10.5898 18.0459 11.6392 18.0459 12.9336C18.0459 14.228 19.0952 15.2773 20.3896 15.2773Z" fill="#8C8C8C"/>
<path d="M18.2208 20.625H11.7783C11.0733 20.625 11.0733 22.5 11.7783 22.5H18.2208C18.9258 22.5 18.9258 20.625 18.2208 20.625Z" fill="#8C8C8C"/>
</g>
<defs>
<clipPath id="clip0_9763_696">
<rect width="30" height="30" fill="white"/>
</clipPath>
</defs>
</svg>
