<svg width="30" height="30" viewBox="0 0 30 30" fill="none" xmlns="http://www.w3.org/2000/svg">
<path fill-rule="evenodd" clip-rule="evenodd" d="M21.2697 16.4317L15.7433 19.3766L18.7213 24.1372L24.2477 21.1924C25.672 20.4334 26.1601 18.7524 25.3377 17.4378C24.5154 16.1232 22.6941 15.6727 21.2697 16.4317ZM19.5721 25.4975L25.0986 22.5526C27.3368 21.3599 28.1037 18.7183 26.8114 16.6525C25.5191 14.5867 22.6571 13.8789 20.4189 15.0716L14.8925 18.0165C14.775 17.8286 14.5148 17.7643 14.3113 17.8727L8.04805 21.2103C5.60628 22.5114 4.76972 25.3931 6.17941 27.6467C7.58919 29.9003 10.7114 30.6724 13.1531 29.3714L19.4164 26.0338C19.6199 25.9254 19.6896 25.6852 19.5721 25.4975ZM11.5764 20.9909L8.39077 22.671C7.10914 23.347 6.53992 24.7245 6.8931 25.9796C7.01129 26.3994 7.54409 26.5305 7.95207 26.3153C8.15611 26.2077 8.22162 25.9681 8.15228 25.7609C7.89132 24.9817 8.23583 24.1095 9.02397 23.6938L12.2096 22.0136C12.5156 21.8523 12.622 21.4925 12.4471 21.21C12.2723 20.9276 11.8824 20.8295 11.5764 20.9909Z" fill="currentColor"/>
<path fill-rule="evenodd" clip-rule="evenodd" d="M14.3683 18.7491L11.773 20.1321C12.3305 20.0908 12.89 20.3426 13.1858 20.8205C13.5938 21.4794 13.3458 22.3189 12.6317 22.6954L9.44616 24.3756C9.01802 24.6014 8.81713 25.0868 8.96518 25.529C9.11791 25.9852 9.01598 26.6586 8.37426 26.9971C7.9713 27.2096 7.49023 27.2613 7.05638 27.134C6.96279 27.1066 6.87149 27.0707 6.78437 27.0264C6.82538 27.1031 6.86928 27.179 6.91625 27.254C8.0911 29.1321 10.6929 29.7756 12.7277 28.6913L18.6226 25.5501L14.3683 18.7491ZM15.7433 19.3766L21.2697 16.4317C22.6941 15.6727 24.5154 16.1232 25.3377 17.4378C26.1601 18.7524 25.672 20.4334 24.2477 21.1924L18.7213 24.1372L15.7433 19.3766ZM19.5721 25.4975L25.0986 22.5526C27.3368 21.3599 28.1037 18.7183 26.8114 16.6525C25.5191 14.5867 22.6571 13.8789 20.4189 15.0716L14.8925 18.0165C14.775 17.8288 14.5148 17.7643 14.3113 17.8727L8.04805 21.2103C5.60628 22.5114 4.76972 25.3931 6.17941 27.6467C7.58919 29.9003 10.7114 30.6724 13.1531 29.3714L19.4164 26.0338C19.6199 25.9254 19.6896 25.6852 19.5721 25.4975ZM8.39077 22.671L11.5764 20.9909C11.8824 20.8295 12.2723 20.9276 12.4471 21.21C12.622 21.4925 12.5156 21.8523 12.2096 22.0136L9.02397 23.6938C8.23583 24.1095 7.89132 24.9817 8.15228 25.7609C8.22162 25.9681 8.15611 26.2077 7.95207 26.3153C7.54409 26.5305 7.01129 26.3994 6.8931 25.9796C6.53992 24.7245 7.10914 23.347 8.39077 22.671Z" fill="currentColor"/>
<path d="M28.1067 9.98439C28.2838 10.1479 28.5762 10.1357 28.7225 9.94803C30.6382 7.49287 30.3994 4.04878 28.0064 1.84008C25.6133 -0.368628 21.8818 -0.588944 19.2217 1.17911C19.0183 1.31422 19.0051 1.58406 19.1823 1.74755L28.1067 9.98439Z" fill="currentColor"/>
<path d="M18.2796 2.57508C18.1025 2.41158 17.8101 2.42377 17.6637 2.6114C15.7481 5.06653 15.9869 8.51062 18.38 10.7194C20.773 12.928 24.5045 13.1484 27.1646 11.3803C27.3679 11.2452 27.3811 10.9754 27.204 10.8119L18.2796 2.57508Z" fill="currentColor"/>
<path d="M5.8493 3.50973C6.56639 2.39751 8.35139 2.51823 8.88521 3.71504L13.0596 13.0745C13.5411 14.1541 12.6233 15.324 11.3617 15.2387L1.5794 14.5772C0.317768 14.4918 -0.405514 13.2109 0.241387 12.2076L5.8493 3.50973Z" fill="currentColor"/>
</svg>
