<svg width="30" height="30" viewBox="0 0 30 30" fill="none" xmlns="http://www.w3.org/2000/svg">
<g clip-path="url(#clip0_9763_686)">
<path d="M15.0009 0C7.23281 0 0 7.23281 0 15C0 22.7672 7.23328 30 15.0009 30C22.7677 30 30 22.7672 30 15C30 7.23281 22.7672 0 15.0009 0ZM15.0009 27.8906C7.89234 27.8906 2.10938 22.1081 2.10938 15C2.10938 7.89188 7.89234 2.10938 15.0009 2.10938C22.1081 2.10938 27.8906 7.89188 27.8906 15C27.8906 22.1081 22.1081 27.8906 15.0009 27.8906Z" fill="#8C8C8C"/>
<path d="M12.7835 13.0282C13.008 13.2654 13.4576 12.8294 13.3713 12.5885C12.4999 10.1927 11.1869 8.99316 9.87396 8.99316C8.56146 8.99316 7.24849 10.1927 6.37756 12.5885C6.29131 12.8294 6.74037 13.2649 6.96537 13.0282C7.81006 12.1375 8.82068 11.7822 9.87443 11.7822C10.9287 11.7822 11.9397 12.1375 12.7835 13.0282Z" fill="#8C8C8C"/>
<path d="M20.1254 8.99316C18.8124 8.99316 17.4994 10.1927 16.628 12.5885C16.5418 12.8294 16.9913 13.2649 17.2158 13.0282C18.061 12.1375 19.0707 11.7822 20.1254 11.7822C21.1801 11.7822 22.1898 12.1375 23.0349 13.0282C23.2594 13.2654 23.709 12.8294 23.6227 12.5885C22.7508 10.1922 21.4379 8.99316 20.1254 8.99316Z" fill="#8C8C8C"/>
<path d="M22.1147 16.8673C20.4914 16.557 18.0919 16.2373 15 16.2373H14.9991C11.9081 16.2373 9.50859 16.557 7.88531 16.8673C7.2525 16.9882 7.03125 17.4598 7.03125 17.8362C7.03125 21.2445 9.66188 24.6753 14.9995 24.6753C20.3381 24.6753 22.9688 21.245 22.9688 17.8362C22.9688 17.4598 22.747 16.9882 22.1147 16.8673ZM21.5508 18.642C21.525 18.8496 21.4866 19.099 21.4261 19.37C21.36 19.6704 21.3033 19.8087 20.8327 19.7525C19.9327 19.6451 10.0669 19.6451 9.16687 19.7525C8.69625 19.8082 8.64047 19.67 8.57344 19.37C8.51391 19.099 8.47453 18.8501 8.44922 18.642C8.40703 18.2942 8.44406 18.0476 9.05063 17.9454C10.0795 17.7734 12.2559 17.4711 14.9995 17.4711C17.7431 17.4711 19.9195 17.7734 20.9484 17.9454C21.555 18.0476 21.5925 18.2937 21.5508 18.642Z" fill="#8C8C8C"/>
</g>
<defs>
<clipPath id="clip0_9763_686">
<rect width="30" height="30" fill="white"/>
</clipPath>
</defs>
</svg>
