<svg width="30" height="30" viewBox="0 0 30 30" fill="none" xmlns="http://www.w3.org/2000/svg">
<g clip-path="url(#clip0_9763_691)">
<path d="M15 0C7.23375 0 0 7.23375 0 15C0 22.7663 7.23375 30 15 30C22.7663 30 30 22.7663 30 15C30 7.23375 22.7663 0 15 0ZM15 27.8906C7.89188 27.8906 2.10938 22.1081 2.10938 15C2.10938 7.89188 7.89188 2.10938 15 2.10938C22.1077 2.10938 27.8906 7.89188 27.8906 15C27.8906 22.1081 22.1077 27.8906 15 27.8906Z" fill="#8C8C8C"/>
<path d="M20.8986 18.8808C17.0971 21.5321 12.8802 21.5166 9.10113 18.8808C8.64645 18.5635 8.23629 19.1129 8.54473 19.6205C9.69692 21.5175 12.0214 23.2065 14.9999 23.2065C17.9783 23.2065 20.3029 21.5171 21.455 19.6205C21.7635 19.1129 21.3533 18.564 20.8986 18.8808Z" fill="#8C8C8C"/>
<path d="M12.784 13.0277C13.0085 13.2644 13.458 12.8289 13.3718 12.588C12.5004 10.1922 11.1874 8.99316 9.87443 8.99316C8.56146 8.99316 7.24849 10.1922 6.37756 12.588C6.29131 12.8294 6.74037 13.2644 6.96537 13.0277C7.81006 12.1366 8.82021 11.7818 9.8749 11.7818C10.9291 11.7818 11.9393 12.1366 12.784 13.0277Z" fill="#8C8C8C"/>
<path d="M20.1259 8.99316C18.8129 8.99316 17.4999 10.1922 16.6285 12.588C16.5423 12.8294 16.9918 13.2644 17.2163 13.0277C18.0615 12.1366 19.0712 11.7818 20.1259 11.7818C21.1806 11.7818 22.1902 12.1366 23.0354 13.0277C23.2599 13.2644 23.7095 12.8289 23.6232 12.588C22.7513 10.1918 21.4384 8.99316 20.1259 8.99316Z" fill="#8C8C8C"/>
</g>
<defs>
<clipPath id="clip0_9763_691">
<rect width="30" height="30" fill="white"/>
</clipPath>
</defs>
</svg>
