<svg width="30" height="30" viewBox="0 0 30 30" fill="none" xmlns="http://www.w3.org/2000/svg">
<g clip-path="url(#clip0_9763_701)">
<path d="M15 0C7.23375 0 0 7.23375 0 15C0 22.7663 7.23375 30 15 30C22.7663 30 30 22.7663 30 15C30 7.23375 22.7663 0 15 0ZM15 27.8906C7.89188 27.8906 2.10938 22.1081 2.10938 15C2.10938 7.89188 7.89188 2.10938 15 2.10938C22.1081 2.10938 27.8906 7.89188 27.8906 15C27.8906 22.1081 22.1081 27.8906 15 27.8906Z" fill="#8C8C8C"/>
<path d="M9.60938 13.8711C10.9038 13.8711 11.9531 12.8218 11.9531 11.5273C11.9531 10.2329 10.9038 9.18359 9.60938 9.18359C8.31496 9.18359 7.26562 10.2329 7.26562 11.5273C7.26562 12.8218 8.31496 13.8711 9.60938 13.8711Z" fill="#8C8C8C"/>
<path d="M20.3906 13.8711C21.685 13.8711 22.7344 12.8218 22.7344 11.5273C22.7344 10.2329 21.685 9.18359 20.3906 9.18359C19.0962 9.18359 18.0469 10.2329 18.0469 11.5273C18.0469 12.8218 19.0962 13.8711 20.3906 13.8711Z" fill="#8C8C8C"/>
<path d="M14.9999 17.1436C12.0214 17.1436 9.69644 18.8329 8.54472 20.7295C8.23628 21.2367 8.64644 21.7861 9.1016 21.4692C12.9027 18.8179 17.1205 18.8334 20.8991 21.4692C21.3543 21.7861 21.7644 21.2367 21.456 20.7295C20.3033 18.8329 17.9783 17.1436 14.9999 17.1436Z" fill="#8C8C8C"/>
</g>
<defs>
<clipPath id="clip0_9763_701">
<rect width="30" height="30" fill="white"/>
</clipPath>
</defs>
</svg>
