<svg width="382" height="284" viewBox="0 0 382 284" fill="none" xmlns="http://www.w3.org/2000/svg">
<g clip-path="url(#clip0_9699_3955)">
<path opacity="0.1" d="M126.999 283.176C145.602 283.176 160.683 280.639 160.683 277.511C160.683 274.382 145.602 271.846 126.999 271.846C108.396 271.846 93.3154 274.382 93.3154 277.511C93.3154 280.639 108.396 283.176 126.999 283.176Z" fill="#6366F1"/>
<path opacity="0.1" d="M310.1 283.335C333.314 283.335 352.132 280.799 352.132 277.67C352.132 274.541 333.314 272.005 310.1 272.005C286.886 272.005 268.068 274.541 268.068 277.67C268.068 280.799 286.886 283.335 310.1 283.335Z" fill="#6366F1"/>
<path opacity="0.1" d="M4.78446 122.421H39.8684V172.493H7.35293C7.26651 173.007 7.18354 173.525 7.09366 174.043H39.8684V214.425C39.8097 214.407 39.7578 214.385 39.7025 214.363C38.776 213.98 37.8565 213.574 36.937 213.14L36.3493 212.861C35.4275 212.405 34.5056 211.922 33.5838 211.413C33.2623 211.236 32.9408 211.051 32.6228 210.863C27.5051 207.861 22.856 204.057 18.8367 199.584C18.7192 199.464 18.6086 199.338 18.491 199.222C17.931 198.585 17.3814 197.94 16.849 197.282L16.2613 196.558C15.6322 195.75 15.0238 194.921 14.4326 194.082C14.3462 193.959 14.2632 193.836 14.1734 193.72C11.7693 190.229 9.7731 186.45 8.22752 182.462C8.17913 182.343 8.13764 182.212 8.0927 182.1C7.61796 180.821 7.19737 179.53 6.83094 178.227C6.67192 177.68 6.51982 177.141 6.38846 176.573C6.34006 176.406 6.29858 176.243 6.26055 176.081C4.29704 168.055 4.06543 159.719 4.06543 151.441C4.06543 150.474 4.06543 149.504 4.06543 148.545C4.06543 145.197 4.10346 141.827 4.15877 138.46C4.15877 137.588 4.19333 136.719 4.21062 135.843C4.25901 133.62 4.32815 131.398 4.41803 129.175C4.43877 128.556 4.46643 127.941 4.49754 127.326C4.49754 126.971 4.51483 126.616 4.54939 126.261C4.63236 124.973 4.7015 123.695 4.78446 122.421Z" fill="#6366F1"/>
<path opacity="0.1" d="M39.8685 66.669H20.624C23.7523 61.5418 27.1704 56.615 30.8599 51.9147C33.7187 48.237 36.7366 44.6535 39.8685 41.2002V66.669Z" fill="#6366F1"/>
<path opacity="0.1" d="M39.8684 68.2188V120.872H4.89502C4.89502 120.72 4.91922 120.564 4.92959 120.412C4.9607 119.996 4.99181 119.58 5.02638 119.167C5.06441 118.682 5.10589 118.193 5.15083 117.719C5.19577 117.245 5.24417 116.666 5.29602 116.141C5.34787 115.616 5.39627 115.084 5.45504 114.559C5.5138 114.034 5.56566 113.509 5.62788 112.988C5.6901 112.467 5.74541 111.938 5.8111 111.417C5.86295 110.983 5.91826 110.552 5.97357 110.118C6.05308 109.506 6.13604 108.891 6.22592 108.282C6.22592 108.192 6.25012 108.098 6.26395 108.011C6.89489 103.559 7.7546 99.1464 8.83933 94.7915C9.97477 90.2233 11.4247 85.7472 13.1777 81.3984C15.0409 76.8489 17.2223 72.4498 19.7043 68.2368L39.8684 68.2188Z" fill="#6366F1"/>
<path opacity="0.1" d="M48.2441 122.418V172.494H123.179V122.418H48.2441ZM48.2441 174.039V217.042C48.6728 217.136 49.098 217.227 49.5197 217.303C50.0936 217.419 50.664 217.524 51.2482 217.614C51.3588 217.632 51.4729 217.65 51.5939 217.661C51.822 217.701 52.0571 217.734 52.2852 217.766C52.8625 217.849 53.4364 217.918 54.0137 217.973C54.2868 218.001 54.5633 218.027 54.8399 218.049L55.5071 218.103C55.87 218.132 56.2295 218.154 56.5856 218.164C56.8068 218.164 57.0281 218.186 57.2562 218.193C57.4291 218.193 57.6019 218.193 57.7817 218.193C57.9615 218.193 58.2173 218.193 58.435 218.193C58.7323 218.193 59.0296 218.193 59.3235 218.193H59.721C60.0183 218.193 60.3156 218.193 60.6094 218.164H60.6302C60.8341 218.164 61.0415 218.164 61.249 218.135C61.3065 218.139 61.3642 218.139 61.4218 218.135C61.5946 218.135 61.7675 218.135 61.9334 218.11H62.0544L63.2125 218.016C63.5927 217.98 63.9764 217.933 64.3636 217.889L65.1518 217.792C68.3583 217.321 71.5292 216.615 74.6409 215.678C81.6308 213.636 88.4685 210.78 95.4549 208.688C104.488 205.991 114.468 204.666 123.196 207.964V174.039H48.2441ZM123.179 66.6694V0.0039666C114.975 -0.0891065 106.793 0.915673 98.8322 2.9939C79.8574 7.98558 62.8322 18.8123 48.2441 32.6399V66.6658H52.0052V68.2115H48.2441V120.872H123.179V68.2151H67.4472V66.6694H123.179ZM219.429 44.1508C214.735 43.977 210.068 42.4205 205.847 40.017C197.775 35.4199 191.328 28.3215 184.124 22.3308C169.156 9.85338 150.592 2.32424 131.548 0.456439V66.6694H238.522L238.788 66.3762L219.429 44.1508ZM229.174 42.3409L239.507 54.2138V39.2279C236.047 39.6767 233.015 40.7446 229.188 42.3264L229.174 42.3409ZM239.507 227.721V174.039H217.49C217.431 173.811 217.372 173.58 217.303 173.348C217.369 173.58 217.424 173.811 217.486 174.039H131.562V212.861C132.378 213.495 133.183 214.161 133.982 214.838C134.843 215.562 135.693 216.326 136.547 217.075L137.408 217.821C137.819 218.182 138.234 218.544 138.652 218.885C139.482 219.589 140.32 220.284 141.165 220.97C141.584 221.332 142.012 221.657 142.437 221.998C149.188 227.402 156.309 232.279 163.742 236.589C165.408 237.554 167.09 238.497 168.786 239.416C169.916 240.021 171.054 240.621 172.194 241.204C173.909 242.08 175.637 242.925 177.38 243.738C193.443 251.288 210.428 256.469 227.85 259.133C231.72 259.732 235.604 260.202 239.503 260.545V227.717H239.849L239.507 227.721ZM131.562 68.2151V120.872H239.521V68.2151H131.562ZM131.562 122.418V172.494H239.521V122.418H131.562ZM247.9 39.1627V55.8789L261.088 40.7265C256.719 39.988 252.323 39.4608 247.9 39.1446V39.1627ZM247.9 122.436V172.494H352.903V122.418L247.9 122.436ZM352.519 231.695L352.889 174.039H247.9V261.12C254.664 261.418 261.437 261.333 268.192 260.867H268.31C271.536 260.655 274.748 260.346 277.944 259.94H278.017C295.07 257.862 311.744 253.203 327.519 246.109M373.15 130.663C372.756 129.69 372.345 128.723 371.926 127.768C371.145 125.958 370.319 124.199 369.469 122.439H361.276V172.494H381.989C381.979 158.319 378.553 143.839 373.161 130.645L373.15 130.663ZM361.276 174.057V223.648C367.111 217.792 372.04 211.091 375.591 203.432C379.86 194.209 381.813 184.222 381.972 174.05L361.276 174.057ZM361.276 107.844V120.876H368.701C366.455 116.39 363.98 112.034 361.286 107.826L361.276 107.844ZM290.064 48.9868C289.518 48.7696 288.971 48.5488 288.422 48.3353C282.625 46.0936 276.701 44.2295 270.685 42.7536L250.503 65.9455L250.116 66.3762L250.375 66.673H322.203C312.199 59.4626 301.414 53.5197 290.074 48.9687L290.064 48.9868ZM324.308 68.2332H249.373L247.9 69.6449V120.872H260.808H260.829H352.917V96.0584C344.587 85.5088 334.972 76.148 324.318 68.2151L324.308 68.2332Z" fill="#6366F1"/>
<path opacity="0.1" d="M39.8684 94.7764V120.871H4.89502C4.89502 120.719 4.91922 120.564 4.92959 120.412C4.9607 119.995 4.99181 119.579 5.02638 119.166C5.06441 118.681 5.10589 118.193 5.15083 117.719C5.19577 117.244 5.24417 116.665 5.29602 116.14C5.34787 115.615 5.39627 115.083 5.45504 114.558C5.5138 114.034 5.56566 113.509 5.62788 112.987C5.6901 112.466 5.74541 111.938 5.8111 111.416C5.86295 110.982 5.91826 110.551 5.97357 110.117C6.05308 109.505 6.13604 108.89 6.22592 108.282C6.22592 108.191 6.25012 108.097 6.26395 108.01C6.89489 103.559 7.7546 99.1457 8.83933 94.7908L39.8684 94.7764Z" fill="#6366F1"/>
<path opacity="0.1" d="M4.78446 122.421H39.8684V172.493H7.35293C7.26651 173.007 7.18354 173.525 7.09366 174.043H39.8684V214.425C39.8097 214.407 39.7578 214.385 39.7025 214.363C38.776 213.98 37.8565 213.574 36.937 213.14L36.3493 212.861C35.4275 212.405 34.5056 211.922 33.5838 211.413C33.2623 211.236 32.9408 211.051 32.6228 210.863C27.5051 207.861 22.856 204.057 18.8367 199.584C18.7192 199.464 18.6086 199.338 18.491 199.222C17.931 198.585 17.3814 197.94 16.849 197.282L16.2613 196.558C15.6322 195.75 15.0238 194.921 14.4326 194.082C14.3462 193.959 14.2632 193.836 14.1734 193.72C11.7693 190.229 9.7731 186.45 8.22752 182.462C8.17913 182.343 8.13764 182.212 8.0927 182.1C7.61796 180.821 7.19737 179.53 6.83094 178.227C6.67192 177.68 6.51982 177.141 6.38846 176.573C6.34006 176.406 6.29858 176.243 6.26055 176.081C4.29704 168.055 4.06543 159.719 4.06543 151.441C4.06543 150.474 4.06543 149.504 4.06543 148.545C4.06543 145.197 4.10346 141.827 4.15877 138.46C4.15877 137.588 4.19333 136.719 4.21062 135.843C4.25901 133.62 4.32815 131.398 4.41803 129.175C4.43877 128.556 4.46643 127.941 4.49754 127.326C4.49754 126.971 4.51483 126.616 4.54939 126.261C4.63236 124.973 4.7015 123.695 4.78446 122.421Z" fill="#6366F1"/>
<path opacity="0.1" d="M74.6237 75.755V120.872H48.2441V75.755H52.0052V60.4795H67.4437V75.755H74.6237Z" fill="#6366F1"/>
<path opacity="0.1" d="M74.6236 122.417H48.2476V172.489H74.6236V122.417Z" fill="#6366F1"/>
<path opacity="0.1" d="M48.2441 174.043H74.6237V215.67C71.5119 216.607 68.341 217.312 65.1345 217.781L64.3463 217.882C63.9592 217.929 63.5754 217.969 63.1952 218.009C62.8149 218.049 62.4208 218.078 62.0371 218.103H61.9161C61.7502 218.103 61.5704 218.125 61.408 218.128H61.2317C61.0243 218.128 60.8168 218.15 60.6094 218.157C60.3156 218.175 60.0218 218.179 59.721 218.183C59.5931 218.183 59.4721 218.183 59.3442 218.183C59.0469 218.183 58.7531 218.183 58.4558 218.183H57.8024C57.6261 218.183 57.4567 218.183 57.2735 218.183L56.6064 218.157C56.2607 218.157 55.8873 218.117 55.5278 218.092L54.8641 218.041L54.0379 217.962C53.4571 217.907 52.8798 217.839 52.3094 217.755L51.6181 217.654L51.2724 217.603C50.6951 217.509 50.1247 217.408 49.5439 217.292C49.1187 217.216 48.697 217.122 48.2683 217.031L48.2441 174.043Z" fill="#6366F1"/>
<path opacity="0.1" d="M239.521 70.4268H217.77V120.868H239.521V70.4268Z" fill="#6366F1"/>
<path opacity="0.1" d="M239.525 122.417V172.493H131.562V150.894H189.068V163.635H217.77V122.417H239.525Z" fill="#6366F1"/>
<path opacity="0.1" d="M239.867 227.731H239.521V260.581C235.626 260.236 231.743 259.767 227.871 259.173C210.44 256.501 193.448 251.309 177.38 243.745C172.741 241.559 168.196 239.172 163.746 236.585C156.313 232.273 149.191 227.396 142.438 221.994C140.742 220.633 139.067 219.241 137.415 217.817C136.271 216.829 135.133 215.815 133.982 214.831C133.184 214.154 132.378 213.488 131.562 212.851V174.043H217.483C217.425 173.811 217.366 173.58 217.304 173.352C217.369 173.58 217.432 173.811 217.49 174.043H239.521V227.71C239.639 227.713 239.753 227.724 239.867 227.731Z" fill="#6366F1"/>
<path opacity="0.1" d="M296.248 66.669H282.075V62.0574H288.429V48.3203C288.98 48.5303 289.528 48.7462 290.074 48.9683V62.0574H296.248V66.669Z" fill="#6366F1"/>
<path opacity="0.1" d="M330.396 120.872H260.815C260.815 120.872 260.815 120.872 260.84 120.89L260.808 120.872H247.9V70.4304H251.558V107.714H268.272V85.6335H282.079V68.2188H296.252V85.648H310.059V107.729H330.396V120.872Z" fill="#6366F1"/>
<path opacity="0.1" d="M247.9 122.417V172.493H330.396V122.417H247.9ZM352.789 231.437L352.903 191.801H330.396V174.064H247.9V261.12C254.664 261.417 261.438 261.333 268.192 260.866H268.31C271.536 260.654 274.748 260.345 277.944 259.94H278.017C295.07 257.861 311.745 253.202 327.519 246.108" fill="#6366F1"/>
<path opacity="0.1" d="M362.742 174.043H381.986C381.817 184.211 379.867 194.198 375.602 203.421C372.051 211.084 367.118 217.784 361.29 223.638V191.784H362.742V174.043Z" fill="#6366F1"/>
<path opacity="0.1" d="M381.996 172.494H362.741V130.646H373.16C378.553 143.84 381.979 158.319 381.996 172.494Z" fill="#6366F1"/>
<path opacity="0.1" d="M239.524 84.4492H227.871V100.264H239.524V84.4492Z" fill="#6366F1"/>
<path opacity="0.1" d="M239.524 117.23H227.871V120.872H239.524V117.23Z" fill="#6366F1"/>
<path opacity="0.1" d="M239.524 122.417H227.871V133.041H239.524V122.417Z" fill="#6366F1"/>
<path opacity="0.1" d="M239.524 150.011H227.871V165.826H239.524V150.011Z" fill="#6366F1"/>
<path opacity="0.1" d="M239.524 182.792H227.871V198.607H239.524V182.792Z" fill="#6366F1"/>
<path opacity="0.1" d="M239.521 227.709C239.638 227.709 239.752 227.709 239.867 227.731H239.521V231.405H227.871V215.572H239.521V227.709Z" fill="#6366F1"/>
<path opacity="0.1" d="M239.521 248.346V260.562C235.626 260.217 231.743 259.748 227.871 259.154V248.346H239.521Z" fill="#6366F1"/>
<path opacity="0.1" d="M181.504 171.331H131.562V172.493H181.504V171.331Z" fill="#6366F1"/>
<path opacity="0.1" d="M181.504 174.039H131.562V178.491H181.504V174.039Z" fill="#6366F1"/>
<path opacity="0.1" d="M181.504 193.086H131.562V200.246H181.504V193.086Z" fill="#6366F1"/>
<path opacity="0.1" d="M181.5 214.841V222.001H142.438C140.741 220.645 139.066 219.252 137.411 217.824C136.267 216.835 135.133 215.822 133.979 214.841H181.5Z" fill="#6366F1"/>
<path opacity="0.1" d="M181.501 236.592V243.745H177.377C172.742 241.556 168.199 239.168 163.746 236.581L181.501 236.592Z" fill="#6366F1"/>
<path opacity="0.1" d="M278.027 127.271H268.196V137.566H278.027V127.271Z" fill="#6366F1"/>
<path opacity="0.1" d="M65.159 79.3057H55.3276V89.6003H65.159V79.3057Z" fill="#6366F1"/>
<path opacity="0.1" d="M65.159 103.218H55.3276V113.512H65.159V103.218Z" fill="#6366F1"/>
<path opacity="0.1" d="M65.159 127.13H55.3276V137.425H65.159V127.13Z" fill="#6366F1"/>
<path opacity="0.1" d="M65.159 151.039H55.3276V161.334H65.159V151.039Z" fill="#6366F1"/>
<path opacity="0.1" d="M65.159 174.951H55.3276V185.246H65.159V174.951Z" fill="#6366F1"/>
<path opacity="0.1" d="M65.159 198.863H55.3276V209.158H65.159V198.863Z" fill="#6366F1"/>
<path opacity="0.1" d="M315.559 127.271H305.728V137.566H315.559V127.271Z" fill="#6366F1"/>
<path opacity="0.1" d="M278.027 152.664H268.196V162.959H278.027V152.664Z" fill="#6366F1"/>
<path opacity="0.1" d="M315.559 152.664H305.728V162.959H315.559V152.664Z" fill="#6366F1"/>
<path opacity="0.1" d="M278.027 178.054H268.196V188.348H278.027V178.054Z" fill="#6366F1"/>
<path opacity="0.1" d="M315.559 178.054H305.728V188.348H315.559V178.054Z" fill="#6366F1"/>
<path opacity="0.1" d="M278.027 203.446H268.196V213.741H278.027V203.446Z" fill="#6366F1"/>
<path opacity="0.1" d="M315.559 203.446H305.728V213.741H315.559V203.446Z" fill="#6366F1"/>
<path opacity="0.1" d="M278.027 228.839H268.196V239.134H278.027V228.839Z" fill="#6366F1"/>
<path opacity="0.1" d="M315.559 228.839H305.728V239.134H315.559V228.839Z" fill="#6366F1"/>
<path opacity="0.1" d="M268.196 260.866V254.228H278.024V259.921L268.196 260.866Z" fill="#6366F1"/>
<path opacity="0.1" d="M6.22217 108.003V113.892H39.8681V108.003H6.22217ZM9.57535 113.523H6.83058V108.365H9.59609L9.57535 113.523ZM12.9251 113.523H10.1596V108.365H12.9251V113.523ZM16.2679 113.523H13.5024V108.365H16.2679V113.523ZM19.6176 113.523H16.8556V108.365H19.6211L19.6176 113.523ZM22.9639 113.523H20.1984V108.365H22.9639V113.523ZM26.3136 113.523H23.5481V108.365H26.3136V113.523ZM29.6633 113.523H26.8978V108.365H29.6633V113.523ZM33.0096 113.523H30.2441V108.365H33.0096V113.523ZM36.3559 113.523H33.5904V108.365H36.3559V113.523ZM39.7021 113.523H36.9366V108.365H39.7021V113.523Z" fill="#6366F1"/>
<path opacity="0.1" d="M6.22217 125.14V131.029H39.8681V125.14H6.22217ZM9.57535 130.656H6.83058V125.512H9.59609L9.57535 130.656ZM12.9251 130.656H10.1596V125.512H12.9251V130.656ZM16.2679 130.656H13.5024V125.512H16.2679V130.656ZM19.6176 130.656H16.8556V125.512H19.6211L19.6176 130.656ZM22.9639 130.656H20.1984V125.512H22.9639V130.656ZM26.3136 130.656H23.5481V125.512H26.3136V130.656ZM29.6633 130.656H26.8978V125.512H29.6633V130.656ZM33.0096 130.656H30.2441V125.512H33.0096V130.656ZM36.3559 130.656H33.5904V125.512H36.3559V130.656ZM39.7021 130.656H36.9366V125.512H39.7021V130.656Z" fill="#6366F1"/>
<path opacity="0.1" d="M6.22217 142.282V148.182H39.8681V142.282H6.22217ZM9.57535 147.799H6.83058V142.651H9.59609L9.57535 147.799ZM12.9251 147.799H10.1596V142.651H12.9251V147.799ZM16.2679 147.799H13.5024V142.651H16.2679V147.799ZM19.6176 147.799H16.8556V142.651H19.6211L19.6176 147.799ZM22.9639 147.799H20.1984V142.651H22.9639V147.799ZM26.3136 147.799H23.5481V142.651H26.3136V147.799ZM29.6633 147.799H26.8978V142.651H29.6633V147.799ZM33.0096 147.799H30.2441V142.651H33.0096V147.799ZM36.3559 147.799H33.5904V142.651H36.3559V147.799ZM39.7021 147.799H36.9366V142.651H39.7021V147.799Z" fill="#6366F1"/>
<path opacity="0.1" d="M6.22217 159.426V165.308H39.8681V159.426H6.22217ZM9.57535 164.942H6.83058V159.791H9.59609L9.57535 164.942ZM12.9251 164.942H10.1596V159.791H12.9251V164.942ZM16.2679 164.942H13.5024V159.791H16.2679V164.942ZM19.6176 164.942H16.8556V159.791H19.6211L19.6176 164.942ZM22.9639 164.942H20.1984V159.791H22.9639V164.942ZM26.3136 164.942H23.5481V159.791H26.3136V164.942ZM29.6633 164.942H26.8978V159.791H29.6633V164.942ZM33.0096 164.942H30.2441V159.791H33.0096V164.942ZM36.3559 164.942H33.5904V159.791H36.3559V164.942ZM39.7021 164.942H36.9366V159.791H39.7021V164.942Z" fill="#6366F1"/>
<path opacity="0.1" d="M6.36768 176.565C6.50249 177.119 6.6546 177.673 6.81361 178.22V176.935H9.57912V182.082H8.09957C8.14451 182.201 8.18945 182.332 8.23439 182.444H39.8684V176.565H6.36768ZM12.9358 182.082H10.1703V176.935H12.9358V182.082ZM16.2786 182.082H13.5131V176.935H16.2786V182.082ZM19.6283 182.082H16.8559V176.935H19.6214L19.6283 182.082ZM22.9746 182.082H20.2091V176.935H22.9746V182.082ZM26.3243 182.082H23.5588V176.935H26.3243V182.082ZM29.674 182.082H26.9085V176.935H29.674V182.082ZM33.0203 182.082H30.2548V176.935H33.0203V182.082ZM36.3666 182.082H33.601V176.935H36.3666V182.082ZM39.7128 182.082H36.9473V176.935H39.7128V182.082Z" fill="#6366F1"/>
<path opacity="0.1" d="M14.1802 193.709C14.2666 193.825 14.3496 193.955 14.4394 194.071H16.2681V196.543C16.4652 196.789 16.6588 197.036 16.8593 197.267V194.056H19.6248V199.222H18.5047C18.6154 199.341 18.7225 199.468 18.8504 199.584H39.8787V193.709H14.1802ZM22.9641 199.222H20.1986V194.078H22.9641V199.222ZM26.3139 199.222H23.5483V194.078H26.3139V199.222ZM29.6636 199.222H26.8981V194.078H29.6636V199.222ZM33.0098 199.222H30.2443V194.078H33.0098V199.222ZM36.3561 199.222H33.5906V194.078H36.3561V199.222ZM39.7024 199.222H36.9369V194.078H39.7024V199.222Z" fill="#6366F1"/>
<path opacity="0.1" d="M32.6367 210.849C32.9513 211.037 33.2728 211.211 33.5977 211.399V211.218H36.3632V212.847L36.9509 213.133V211.218H39.7164V214.349C39.7695 214.377 39.8251 214.398 39.8824 214.414V210.849H32.6367Z" fill="#6366F1"/>
<path opacity="0.1" d="M217.303 173.348C217.369 173.579 217.424 173.811 217.486 174.039C217.431 173.811 217.372 173.579 217.303 173.348ZM52.019 66.6582V68.2039H67.461V66.6582H52.019ZM217.303 173.348C217.369 173.579 217.424 173.811 217.486 174.039C217.431 173.811 217.372 173.579 217.303 173.348ZM217.303 173.348C217.369 173.579 217.424 173.811 217.486 174.039C217.431 173.811 217.372 173.579 217.303 173.348Z" fill="#6366F1"/>
<path d="M159.57 137.432C159.57 137.432 158.208 137.233 158.208 135.155C158.208 133.078 157.233 129.197 157.233 129.197C157.233 129.179 156.39 122.439 155.225 121.368C154.06 120.296 152.563 114.005 152.563 114.005C152.563 114.005 152.307 110.592 151.785 109.857C151.263 109.122 150.558 107.323 149.517 104.757C148.477 102.19 144.139 100.413 144.139 100.413C144.139 100.413 136.295 95.6492 134.072 94.0963C133.87 93.9687 133.681 93.8195 133.509 93.6511C133.121 93.119 131.434 93.1081 131.434 93.1081C131.258 91.9425 131.089 90.6032 131.033 89.3906C131.033 89.2603 131.033 89.13 131.016 88.9997C133.495 87.4655 135.362 85.0467 136.274 82.1872C136.316 82.0497 136.35 81.9049 136.388 81.7673C136.537 81.7161 136.673 81.633 136.789 81.5233C136.906 81.4136 136.998 81.2797 137.062 81.1303C137.263 80.6633 137.266 80.1167 137.515 79.6824C137.806 79.1683 138.359 78.8932 138.794 78.5059C139.893 77.5286 140.177 75.8816 140.125 74.383C140.091 73.1704 139.904 71.9469 139.976 70.7415L139.997 70.4374C140.018 70.2564 140.042 70.0755 140.073 69.9017C140.243 69.004 140.613 68.157 140.82 67.2665C141.027 66.376 141.048 65.3734 140.564 64.606C139.855 63.4802 138.379 63.2558 137.083 63.14C135.614 63.0097 134.3 63.1798 133.36 61.902C132.92 61.2342 132.425 60.608 131.88 60.0306C131.687 59.8423 129.806 58.6406 129.806 58.5609C127.971 57.6708 125.89 57.5037 123.947 58.0904C122.972 58.3872 122.052 58.8722 121.064 59.1148C118.931 59.6433 116.477 59.0713 114.665 60.3491C113.656 61.0731 113.051 62.2242 112.484 63.3463C112.023 64.2705 111.555 65.1936 111.08 66.1154C110.316 67.6321 109.539 69.1741 109.217 70.8537C109.149 71.2192 109.108 71.5894 109.093 71.9614V71.9795C109.093 72.1134 109.093 72.2473 109.093 72.3813V72.5514C109.093 72.6781 109.093 72.8012 109.113 72.9134C109.134 73.0256 109.131 73.0618 109.141 73.1378C109.151 73.2138 109.169 73.3839 109.189 73.4998C109.21 73.6156 109.252 73.8183 109.293 73.9776C109.31 74.0464 109.335 74.1115 109.355 74.1767C109.39 74.2997 109.431 74.4192 109.476 74.5386C109.501 74.6002 109.525 74.6653 109.552 74.7269C109.604 74.8536 109.666 74.9766 109.729 75.0889C109.756 75.1395 109.777 75.1866 109.805 75.2336C109.901 75.402 110.007 75.564 110.123 75.7187C110.863 76.6852 111.951 77.3005 112.757 78.2055C112.757 78.2417 112.757 78.2779 112.757 78.3105C112.757 78.4118 112.757 78.5095 112.757 78.6109C112.8 80.6291 113.313 82.6058 114.251 84.3691C115.19 86.1324 116.526 87.6288 118.143 88.7282C118.143 88.8657 118.16 89.0069 118.167 89.1445C118.234 90.2189 118.222 91.2973 118.129 92.3697C117.988 92.1961 117.812 92.0578 117.613 91.9651C117.415 91.8723 117.199 91.8275 116.981 91.8339C116.833 91.8264 116.684 91.8397 116.539 91.8738L116.508 91.8484V91.881C115.747 92.0765 114.81 92.9054 113.915 95.2619C113.915 95.2619 111.191 98.4762 109.117 98.3423C107.043 98.2084 101.792 101.687 101.792 101.687C101.792 101.687 96.6685 105.169 95.5693 108.717C94.9548 110.728 94.2181 112.696 93.3638 114.61L87.0307 128.274L85.8623 139.116C85.8623 139.116 86.5087 143.937 86.3808 144.672C86.2529 145.407 89.0392 152.034 89.0392 152.034C89.0392 152.034 98.2449 168.971 102.006 169.84L102.276 169.641C102.437 169.729 102.607 169.796 102.784 169.84L103.558 169.268C103.605 169.906 103.585 170.547 103.499 171.179C102.981 172.852 103.693 183.765 104.599 185.905C105.504 188.044 105.183 216.094 105.183 216.094L105.055 218.57C105.055 218.57 105.055 218.649 105.086 218.787L105.055 219.373L105.148 219.424C105.245 220.209 105.214 221.006 105.055 221.78C104.73 222.866 104.599 225.936 104.599 225.936C104.599 225.936 102.009 243.267 103.237 246.75C104.464 250.232 105.508 254.047 105.508 254.047C105.508 254.047 106.804 258.391 105.57 259.133C104.336 259.875 100.827 261.12 101.55 262.93C102.206 264.602 104.699 269.084 105.069 269.739L105.038 270.083L104.53 275.849C104.612 276.61 104.809 277.353 105.114 278.05C105.67 279.306 106.752 280.609 108.809 280.468C109.155 280.443 109.556 280.399 109.943 280.345C113.708 279.816 118.343 278.057 118.343 278.057C118.103 277.897 117.882 277.706 117.686 277.489C117.501 277.301 117.355 277.076 117.256 276.827C117.156 276.578 117.106 276.311 117.109 276.041C117.164 274.991 115.287 269.989 114.821 268.758C114.748 268.58 114.71 268.479 114.71 268.479C114.71 268.479 118.99 263.795 118.278 259.643C118.278 259.643 113.542 256.747 115.101 255.158C116.66 253.569 119.446 249.005 119.446 249.005C119.446 249.005 119.574 231.937 119.446 229.389C119.313 227.62 119.393 225.841 119.685 224.093C119.736 223.829 119.799 223.572 119.864 223.319C122.02 223.656 124.197 223.829 126.377 223.836C127.172 223.836 127.981 223.836 128.797 223.786C128.797 224.027 128.807 224.288 128.828 224.568C129.008 228.796 129.343 236.209 129.616 238.963C130.003 242.913 132.143 253.555 132.143 253.555C132.143 253.555 128.061 256.299 132.855 263.06C132.855 263.06 132.855 265.511 132.537 265.866C132.198 267.025 131.924 268.205 131.718 269.399C131.517 270.673 131.434 271.961 131.759 272.631C132.537 274.231 137.204 274.101 137.204 274.101L137.318 274.079C138.199 273.984 139.089 274.072 139.937 274.34C140.785 274.608 141.574 275.049 142.258 275.639C144.031 277.13 150.762 276.475 154.405 276.001C155.833 275.813 156.787 275.639 156.787 275.639C156.834 275.47 156.85 275.293 156.836 275.118C156.798 274.18 156.096 272.124 151.339 270.289C151.339 270.289 146.866 267.14 146.928 264.396H146.835H146.316C146.693 264.374 146.935 264.396 146.935 264.396C146.935 264.396 145.183 257.699 145.898 257.156C146.614 256.614 144.47 249.193 144.47 249.193C144.47 249.193 143.243 236.741 143.178 235.869C143.18 235.12 143.289 234.376 143.499 233.66L143.178 226.834C143.178 226.834 143.115 224.564 143.178 223.826C143.167 223.185 143.117 222.545 143.029 221.911C142.998 221.657 142.967 221.393 142.932 221.132C144.609 220.687 145.698 220.275 145.698 220.275L145.504 196.511C146.928 193.615 147.191 187.262 147.184 182.756C147.184 179.86 147.06 177.717 147.06 177.717L149.006 174.39C149.006 174.39 149.455 170.408 148.743 169.536C148.429 169.142 148.57 168.733 148.83 168.396C148.964 168.284 149.106 168.182 149.255 168.092C149.255 168.092 149.234 168.059 149.21 168.012C149.346 167.893 149.49 167.786 149.642 167.69C149.642 167.69 148.951 166.568 149.569 166.094C150.15 166.506 150.669 166.818 151.063 167.071C151.035 167.335 151.007 167.487 151.007 167.487L151.173 167.125C151.554 167.35 151.785 167.487 151.785 167.487C151.785 167.487 154.834 161.127 154.768 160.19C154.703 159.252 156.843 155.303 156.843 155.303C156.843 155.303 157.102 153.229 158.27 152.36C159.439 151.492 159.176 145.197 159.176 145.197C159.176 145.197 159.501 141.917 160.279 140.578C161.057 139.239 159.57 137.432 159.57 137.432ZM101.232 134.641L101.29 136.158C100.945 135.575 100.696 135.155 100.696 135.155L101.232 134.641Z" fill="url(#paint0_linear_9699_3955)"/>
<path d="M151.951 164.74L151.204 168.07C151.204 168.07 145.224 164.874 144.145 160.812C143.067 156.751 145.95 155.209 145.95 155.209L151.522 157.681L151.951 164.74Z" fill="white"/>
<path opacity="0.1" d="M151.951 164.74L151.204 168.07C151.204 168.07 145.224 164.874 144.145 160.812C143.067 156.751 145.95 155.209 145.95 155.209L151.522 157.681L151.951 164.74Z" fill="black"/>
<path d="M118.388 278.078C118.388 278.078 112.857 280.207 109.055 280.475C107.036 280.616 105.974 279.32 105.428 278.071C105.13 277.377 104.937 276.638 104.858 275.881L105.352 270.144L105.615 267.089L113.694 264.892L114.838 268.555L114.945 268.834C115.405 270.057 117.247 275.034 117.192 276.073C117.19 276.339 117.239 276.603 117.336 276.849C117.434 277.094 117.577 277.317 117.759 277.503C117.945 277.722 118.156 277.915 118.388 278.078Z" fill="white"/>
<path d="M156.168 275.161C156.182 275.335 156.166 275.511 156.12 275.679C156.12 275.679 144.291 277.746 141.871 275.679C141.188 275.075 140.393 274.627 139.536 274.364C138.679 274.101 137.778 274.028 136.893 274.151C136.893 274.151 132.316 274.282 131.552 272.703C131.234 272.041 131.317 270.756 131.514 269.489C131.715 268.302 131.983 267.128 132.316 265.974L132.499 265.822L133.588 264.906L146.337 264.512H146.434C146.372 267.241 150.762 270.372 150.762 270.372C155.425 272.182 156.113 274.227 156.168 275.161Z" fill="white"/>
<path opacity="0.1" d="M156.169 275.161C156.181 275.336 156.163 275.511 156.117 275.679C156.117 275.679 144.291 277.746 141.871 275.679C141.189 275.076 140.394 274.628 139.538 274.365C138.681 274.102 137.781 274.029 136.896 274.152C136.896 274.152 132.316 274.282 131.555 272.704C131.237 272.038 131.317 270.756 131.514 269.489C133.277 269.674 136.06 270.134 137.152 271.23C138.805 272.899 141.605 274.564 143.323 274.695C144.667 274.785 152.712 275.053 156.169 275.161Z" fill="black"/>
<path opacity="0.1" d="M118.388 278.079C118.388 278.079 112.857 280.207 109.054 280.475C107.036 280.616 105.974 279.321 105.432 278.068C106.839 278.564 108.792 279.085 109.818 278.607C111.035 278.043 115.349 277.677 117.769 277.521C117.953 277.733 118.161 277.92 118.388 278.079Z" fill="black"/>
<path d="M126.595 106.556C122.032 104.699 116.162 98.5631 117.628 95.6962C117.953 94.9728 118.147 94.192 118.198 93.3941C118.292 92.3109 118.306 91.2217 118.239 90.1363C118.137 88.3586 117.932 86.589 117.628 84.8369C117.628 84.8369 131.873 85.1736 131.044 87.3708C130.802 88.0151 130.764 89.1336 130.829 90.386C130.895 91.6385 131.068 93.0538 131.248 94.252C131.497 95.8953 131.746 97.1478 131.746 97.1478C131.746 97.1478 130.874 98.4256 130.363 98.4943C129.851 98.5631 133.142 109.202 126.595 106.556Z" fill="#CF6F80"/>
<path opacity="0.1" d="M114.935 268.834L114.827 268.957C110.569 263.563 105.418 270.285 105.418 270.285L105.342 270.144L105.605 267.089L113.683 264.892L114.827 268.555L114.935 268.834Z" fill="black"/>
<path opacity="0.1" d="M146.437 264.892C146.437 264.892 143.326 264.823 141.667 266.358C140.007 267.892 131.987 266.691 132.333 266.358C132.436 266.193 132.497 266.004 132.513 265.807L133.602 264.892L146.351 264.497C146.399 264.74 146.437 264.892 146.437 264.892Z" fill="black"/>
<path d="M120.234 222.537C120.002 223.137 119.826 223.758 119.709 224.394C119.42 226.133 119.34 227.904 119.47 229.664C119.598 232.198 119.47 249.178 119.47 249.178C119.47 249.178 116.736 253.707 115.211 255.303C113.687 256.899 118.322 259.766 118.322 259.766C119.014 263.893 114.824 268.555 114.824 268.555C110.565 263.162 105.414 269.887 105.414 269.887C105.414 269.887 102.614 264.819 101.916 263.009C101.218 261.2 104.65 259.947 105.857 259.212C107.063 258.478 105.798 254.145 105.798 254.145C105.798 254.145 104.778 250.348 103.568 246.883C102.359 243.419 104.903 226.175 104.903 226.175C104.903 226.175 105.034 223.112 105.349 222.044C105.507 221.274 105.539 220.481 105.442 219.699C105.421 219.435 105.397 219.214 105.38 219.065C105.363 218.917 105.349 218.848 105.349 218.848L105.397 218.761L107.126 215.388C107.126 215.388 121.064 220.412 120.234 222.537Z" fill="#6366F1"/>
<path d="M146.437 264.494C146.437 264.494 143.326 264.425 141.667 265.941C140.007 267.458 131.988 266.274 132.333 265.941C132.679 265.608 132.651 263.143 132.651 263.143C127.946 256.418 131.96 253.688 131.96 253.688C131.96 253.688 129.858 243.101 129.478 239.173C129.212 236.429 128.883 229.056 128.707 224.846C128.631 223.036 128.586 221.791 128.586 221.791L132.43 220.98L132.924 220.875L142.196 218.928C142.196 218.928 142.452 220.738 142.624 222.218C142.711 222.85 142.759 223.487 142.77 224.126C142.707 224.85 142.77 227.116 142.77 227.116L143.084 233.91C142.879 234.623 142.773 235.363 142.77 236.107C142.832 236.972 144.038 249.359 144.038 249.359C144.038 249.359 146.137 256.751 145.421 257.283C144.705 257.815 146.437 264.494 146.437 264.494Z" fill="#6366F1"/>
<path opacity="0.1" d="M131.044 87.3708C130.802 88.0151 130.764 89.1336 130.829 90.386C128.921 91.5892 126.728 92.2044 124.5 92.1609C122.273 92.1173 120.103 91.4168 118.239 90.1399C118.137 88.361 117.932 86.5902 117.627 84.8369C117.627 84.8369 131.873 85.1663 131.044 87.3708Z" fill="black"/>
<path d="M136.551 79.3711C136.553 80.6755 136.357 81.972 135.97 83.2117C135.104 85.9894 133.328 88.357 130.956 89.8962C128.584 91.4354 125.769 92.047 123.008 91.6229C120.247 91.1988 117.718 89.7663 115.868 87.5787C114.018 85.391 112.966 82.589 112.899 79.6679C112.899 79.5666 112.899 79.4724 112.899 79.3711C112.872 77.7268 113.158 76.0935 113.74 74.5662C114.323 73.039 115.19 71.6484 116.291 70.4757C117.392 69.303 118.704 68.3715 120.153 67.7357C121.601 67.0999 123.156 66.7725 124.726 66.7725C126.297 66.7725 127.852 67.0999 129.3 67.7357C130.748 68.3715 132.061 69.303 133.162 70.4757C134.263 71.6484 135.13 73.039 135.713 74.5662C136.295 76.0935 136.581 77.7268 136.554 79.3711H136.551Z" fill="#CF6F80"/>
<path opacity="0.1" d="M126.595 106.555C122.032 104.698 116.162 98.5626 117.628 95.6957C117.953 94.9723 118.147 94.1915 118.198 93.3936L124.445 98.7689L128.309 102.088L131.248 94.2551C131.497 95.8984 131.746 97.1509 131.746 97.1509C131.746 97.1509 130.874 98.4287 130.363 98.4974C129.851 98.5662 133.142 109.201 126.595 106.555Z" fill="black"/>
<path d="M142.749 130.312L137.532 222.073L130.729 222.54L113.113 169.333L116.003 106.164L116.611 92.8184L124.444 99.5548L128.313 102.874L131.338 94.8128L136.962 99.9457L142.749 130.312Z" fill="#6366F1"/>
<path opacity="0.1" d="M120.234 222.537C120.002 223.137 119.826 223.759 119.709 224.394C114.758 223.594 109.95 222.021 105.445 219.728L105.352 219.677L105.383 219.095L105.4 218.791L107.129 215.417C107.129 215.417 121.064 220.412 120.234 222.537Z" fill="black"/>
<path opacity="0.1" d="M132.509 224.408C131.244 224.633 129.967 224.785 128.686 224.864C128.61 223.054 128.565 221.809 128.565 221.809L132.409 220.998L132.509 224.408Z" fill="black"/>
<path opacity="0.1" d="M142.603 222.237C140.146 222.906 136.35 223.659 132.952 223.189L132.903 220.894L142.175 218.946C142.175 218.946 142.431 220.738 142.603 222.237Z" fill="black"/>
<path opacity="0.1" d="M132.89 223.608C118.717 226.142 105.736 218.877 105.736 218.877L105.86 216.416C105.86 216.416 106.182 188.511 105.29 186.372C104.398 184.232 103.703 173.384 104.208 171.719C104.713 170.054 102.366 145.084 102.366 145.084L101.985 134.949L88.0679 129.045L94.2903 115.464C95.1307 113.56 95.8535 111.601 96.4543 109.6C97.5363 106.074 102.559 102.61 102.559 102.61C102.559 102.61 107.71 99.1495 109.746 99.2798C111.782 99.4101 114.451 96.2175 114.451 96.2175C116.421 90.9579 118.205 93.3397 118.205 93.3397C118.205 93.5895 118.205 93.3398 118.108 94.118C117.417 99.8916 129.288 118.135 129.457 118.457L130.588 147.293L131.732 183.784L132.89 223.608Z" fill="black"/>
<path d="M132.51 223.609C118.336 226.142 105.352 218.878 105.352 218.878L105.48 216.416C105.48 216.416 105.802 188.511 104.906 186.372C104.011 184.233 103.32 173.384 103.828 171.719C104.336 170.054 101.985 145.085 101.985 145.085L101.602 134.949L87.6772 129.024L93.8996 115.442C94.7383 113.537 95.461 111.579 96.0637 109.578C97.1422 106.053 102.169 102.589 102.169 102.589C102.169 102.589 107.319 99.128 109.352 99.2583C111.385 99.3886 114.057 96.196 114.057 96.196C116.031 90.9365 118.205 93.3183 118.205 93.3183C118.205 93.568 117.998 93.6802 118.108 94.0965C119.629 99.6963 128.908 118.114 129.077 118.436L130.221 147.271L131.365 183.762L132.51 223.609Z" fill="white"/>
<path opacity="0.1" d="M128.689 119.257C127.165 118.591 119.09 108.937 119.09 108.937V106.74C118.796 106.016 117.05 106.458 115.633 106.964L116.241 93.6182L116.933 94.219C118.447 99.8152 128.513 118.935 128.689 119.257Z" fill="black"/>
<path d="M129.073 118.457C127.545 117.791 119.47 108.137 119.47 108.137V105.94C119.176 105.216 117.431 105.658 116.013 106.164L116.625 92.8184L117.316 93.4192C118.834 99.0154 128.904 118.139 129.073 118.457Z" fill="white"/>
<path opacity="0.1" d="M105.736 166.604C105.926 166.604 115.591 165.54 115.591 165.54C115.591 165.54 121.444 177.59 121.06 180.522C120.676 183.454 119.982 186.05 117.628 185.59C115.273 185.13 104.958 185.952 104.958 185.952L105.736 166.604Z" fill="black"/>
<path d="M105.352 165.803C105.542 165.803 115.208 164.739 115.208 164.739C115.208 164.739 121.057 176.793 120.676 179.722C120.296 182.65 119.594 185.249 117.244 184.789C114.893 184.33 104.574 185.151 104.574 185.151L105.352 165.803Z" fill="white"/>
<path d="M112.636 160.146C112.636 160.146 121.506 165.138 121.696 166.662C121.886 168.186 117.181 165.996 116.165 165.732C115.496 165.563 114.815 165.452 114.129 165.399L107.35 165.591L112.636 160.146Z" fill="#CF6F80"/>
<path opacity="0.1" d="M126.215 119.879C126.73 119.879 127.148 119.442 127.148 118.902C127.148 118.362 126.73 117.925 126.215 117.925C125.699 117.925 125.281 118.362 125.281 118.902C125.281 119.442 125.699 119.879 126.215 119.879Z" fill="black"/>
<path d="M126.215 119.482C126.73 119.482 127.148 119.044 127.148 118.505C127.148 117.965 126.73 117.527 126.215 117.527C125.699 117.527 125.281 117.965 125.281 118.505C125.281 119.044 125.699 119.482 126.215 119.482Z" fill="#3F3D56"/>
<path opacity="0.1" d="M127.932 162.188C128.448 162.188 128.866 161.751 128.866 161.211C128.866 160.671 128.448 160.233 127.932 160.233C127.417 160.233 126.999 160.671 126.999 161.211C126.999 161.751 127.417 162.188 127.932 162.188Z" fill="black"/>
<path d="M127.932 161.786C128.448 161.786 128.866 161.348 128.866 160.808C128.866 160.269 128.448 159.831 127.932 159.831C127.417 159.831 126.999 160.269 126.999 160.808C126.999 161.348 127.417 161.786 127.932 161.786Z" fill="#3F3D56"/>
<path opacity="0.1" d="M127.144 141.034C127.66 141.034 128.078 140.596 128.078 140.056C128.078 139.517 127.66 139.079 127.144 139.079C126.629 139.079 126.211 139.517 126.211 140.056C126.211 140.596 126.629 141.034 127.144 141.034Z" fill="black"/>
<path d="M127.144 140.635C127.66 140.635 128.078 140.198 128.078 139.658C128.078 139.118 127.66 138.681 127.144 138.681C126.629 138.681 126.211 139.118 126.211 139.658C126.211 140.198 126.629 140.635 127.144 140.635Z" fill="#3F3D56"/>
<path d="M148.66 165.196C148.66 165.196 149.296 166.195 148.66 166.662C148.024 167.129 148.722 168.258 148.722 168.258C148.722 168.258 147.135 169.232 147.834 170.108C148.532 170.984 148.09 174.941 148.09 174.941L146.181 178.249C146.181 178.249 146.295 180.381 146.302 183.262C146.302 187.758 146.05 194.078 144.653 196.96L144.847 220.6C144.847 220.6 138.165 223.156 132.572 222.378L131.742 184.442C131.742 184.442 132.952 162.93 133.398 158.804C133.659 156.661 133.765 154.501 133.716 152.342C133.716 152.342 133.526 145.885 132.886 142.887C132.886 142.887 132.195 129.903 132.126 126.309C132.095 124.589 132.181 119.572 132.278 114.802C132.385 109.585 132.506 104.666 132.506 104.666L131.244 94.2123C131.244 94.2123 132.506 94.0784 132.886 94.6105C133.056 94.7771 133.242 94.9262 133.439 95.0557C135.617 96.5977 143.312 101.34 143.312 101.34C143.312 101.34 147.571 103.113 148.591 105.654C149.611 108.195 150.319 109.998 150.814 110.722C151.308 111.446 151.578 114.849 151.578 114.849C151.578 114.849 153.043 121.111 154.188 122.171C155.332 123.232 156.168 129.979 156.168 129.979L146.057 138.305C146.057 138.305 145.168 152.154 144.978 152.69C144.788 153.226 148.66 165.196 148.66 165.196Z" fill="white"/>
<path d="M149.044 165.196C149.044 165.196 149.677 166.195 149.044 166.662C148.411 167.129 149.103 168.259 149.103 168.259C149.103 168.259 147.526 169.243 148.218 170.119C148.909 170.995 148.474 174.951 148.474 174.951L146.565 178.26C146.565 178.26 146.679 180.392 146.69 183.273C146.69 187.769 146.437 194.089 145.041 196.971L145.231 220.611C145.231 220.611 138.538 223.167 132.952 222.389L132.126 184.453C132.126 184.453 133.336 162.941 133.782 158.815C134.043 156.672 134.148 154.512 134.096 152.353C134.096 152.353 133.906 145.896 133.27 142.898C133.27 142.898 132.579 129.914 132.506 126.32C132.475 124.6 132.565 119.583 132.658 114.812C132.765 109.596 132.886 104.677 132.886 104.677L131.22 94.082C131.22 94.082 132.886 94.082 133.27 94.6214C133.439 94.7899 133.624 94.9392 133.823 95.0666C136.001 96.6086 143.7 101.351 143.7 101.351C143.7 101.351 147.955 103.124 148.975 105.665C149.995 108.206 150.703 110.009 151.201 110.733C151.699 111.457 151.962 114.86 151.962 114.86C151.962 114.86 153.427 121.122 154.572 122.182C155.716 123.243 156.542 129.976 156.542 129.976L146.431 138.301C146.431 138.301 145.542 152.151 145.349 152.686C145.155 153.222 149.044 165.196 149.044 165.196Z" fill="white"/>
<path opacity="0.1" d="M136.934 107.75L137.847 110.537L133.042 115.604C133.149 110.392 133.27 105.469 133.27 105.469L131.604 94.874C131.604 94.874 133.27 94.874 133.653 95.4134C133.822 95.5815 134.007 95.7296 134.207 95.855L138.293 108.198L136.934 107.75Z" fill="black"/>
<path d="M136.551 106.95L137.467 109.737L132.662 114.805C132.769 109.589 132.89 104.669 132.89 104.669L131.22 94.0742C131.22 94.0742 132.89 94.0742 133.27 94.6136C133.44 94.7811 133.625 94.9303 133.823 95.0588L137.913 107.399L136.551 106.95Z" fill="white"/>
<path opacity="0.1" d="M136.551 79.3711C136.553 80.6755 136.357 81.972 135.97 83.2117C135.905 83.2223 135.838 83.2192 135.774 83.2024C135.71 83.1856 135.649 83.1555 135.597 83.1139C135.507 79.8561 133.975 76.7974 132.091 74.1948C131.562 73.409 130.921 72.7131 130.19 72.1315C129.451 71.5502 128.532 71.278 127.611 71.3678C126.574 71.5162 125.658 72.2546 124.611 72.3487C123.228 72.4682 121.99 71.4655 120.618 71.4148C120.06 71.4204 119.51 71.5504 119.004 71.7964C118.497 72.0423 118.047 72.3984 117.683 72.841C116.962 73.7341 116.426 74.7745 116.11 75.8961C115.567 77.5968 115.271 79.3735 115.232 81.1665C115.215 82.18 115.121 83.4506 114.223 83.8198C114.29 83.0744 114.209 82.3224 113.985 81.6115C113.761 80.9005 113.398 80.2461 112.919 79.6896L112.899 79.6679C112.899 79.5666 112.899 79.4724 112.899 79.3711C112.872 77.7268 113.158 76.0935 113.74 74.5662C114.323 73.039 115.19 71.6484 116.291 70.4757C117.392 69.303 118.704 68.3715 120.153 67.7357C121.601 67.0999 123.156 66.7725 124.726 66.7725C126.297 66.7725 127.852 67.0999 129.3 67.7357C130.748 68.3715 132.061 69.303 133.162 70.4757C134.263 71.6484 135.13 73.039 135.713 74.5662C136.295 76.0935 136.581 77.7268 136.554 79.3711H136.551Z" fill="black"/>
<path d="M129.623 59.7047C127.827 58.8199 125.784 58.6526 123.878 59.2341C122.92 59.531 122.018 60.0124 121.046 60.2549C118.972 60.7798 116.553 60.2115 114.772 61.482C113.784 62.206 113.189 63.3498 112.636 64.4611L111.253 67.2194C110.5 68.7288 109.739 70.2636 109.424 71.9251C109.11 73.5866 109.3 75.4471 110.306 76.7828C111.039 77.7565 112.121 78.3683 112.916 79.2841C113.392 79.8411 113.754 80.4952 113.977 81.2053C114.201 81.9154 114.282 82.6662 114.216 83.4106C115.118 83.0487 115.204 81.7745 115.225 80.761C115.264 78.968 115.56 77.1913 116.103 75.4906C116.419 74.3687 116.954 73.3281 117.676 72.4355C118.041 71.9933 118.491 71.6374 118.997 71.3915C119.503 71.1456 120.053 71.0153 120.611 71.0093C121.994 71.06 123.235 72.059 124.604 71.9396C125.641 71.8491 126.56 71.107 127.604 70.9622C128.525 70.871 129.445 71.1434 130.183 71.726C130.914 72.3067 131.554 73.0027 132.081 73.7893C133.968 76.3919 135.5 79.4434 135.59 82.7084C135.98 83.0088 136.544 82.6179 136.737 82.1546C136.931 81.6912 136.938 81.1483 137.183 80.7067C137.467 80.1963 138.009 79.9248 138.435 79.5411C139.513 78.5674 139.783 76.9276 139.741 75.4399C139.7 73.9522 139.423 72.4427 139.693 70.9803C139.855 70.0826 140.222 69.2428 140.422 68.356C140.623 67.4691 140.647 66.4737 140.173 65.7099C139.482 64.5878 138.027 64.367 136.758 64.262C135.317 64.1317 134.027 64.2982 133.108 63.0277C132.676 62.3646 132.19 61.7421 131.656 61.1671C131.472 60.9789 129.623 59.7843 129.623 59.7047Z" fill="#512E4E"/>
<path opacity="0.1" d="M92.0501 136.038L88.4377 129.045L87.2935 139.835C87.2935 139.835 87.9295 144.628 87.8016 145.363C87.6737 146.098 90.4081 152.686 90.4081 152.686C90.4081 152.686 99.441 169.532 103.129 170.401L115.592 161.076L112.287 156.682C112.287 156.682 111.143 156.215 110.856 156.682C110.856 156.682 104.72 145.627 104.084 144.827C103.447 144.027 103.572 142.431 103.572 142.431C103.572 142.431 102.618 141.367 102.936 140.368C103.254 139.369 101.093 135.904 101.093 135.904L103.064 133.975L92.0501 136.038Z" fill="black"/>
<path d="M88.6276 128.249L87.6735 129.045L86.5293 139.836C86.5293 139.836 87.1654 144.629 87.0375 145.363C86.9096 146.098 89.6474 152.686 89.6474 152.686C89.6474 152.686 98.6768 169.533 102.365 170.401L114.831 161.077L111.523 156.682C111.523 156.682 110.378 156.215 110.091 156.682C110.091 156.682 103.955 145.628 103.319 144.828C102.683 144.028 102.811 142.431 102.811 142.431C102.811 142.431 101.857 141.367 102.175 140.368C102.493 139.369 100.329 135.905 100.329 135.905L102.3 133.976L88.6276 128.249Z" fill="white"/>
<path opacity="0.1" d="M147.834 170.52C148.525 171.4 148.09 175.349 148.09 175.349L146.182 178.657C146.182 178.657 146.296 180.793 146.303 183.671L143.095 184.72C142.805 184.815 142.497 184.836 142.198 184.781C141.899 184.726 141.617 184.597 141.375 184.405C141.133 184.213 140.938 183.963 140.808 183.675C140.677 183.388 140.614 183.073 140.623 182.755L141.176 164.073L148.66 167.07C148.024 167.534 148.722 168.67 148.722 168.67C148.722 168.67 147.136 169.64 147.834 170.52Z" fill="black"/>
<path d="M148.217 170.119C148.909 170.999 148.473 174.951 148.473 174.951L146.565 178.26C146.565 178.26 146.679 180.392 146.689 183.273L143.423 184.341C143.139 184.433 142.838 184.454 142.545 184.4C142.252 184.346 141.976 184.219 141.739 184.031C141.502 183.842 141.312 183.597 141.184 183.316C141.056 183.036 140.994 182.727 141.003 182.415L141.559 163.676L149.047 166.673C148.407 167.136 149.106 168.269 149.106 168.269C149.106 168.269 147.526 169.243 148.217 170.119Z" fill="white"/>
<path d="M150.696 161.215C150.696 161.215 150.188 164.613 148.916 164.813C147.644 165.012 147.073 170.311 145.805 170.123C144.536 169.935 145.376 165.196 145.421 164.277C145.466 163.357 144.038 159.549 145.107 158.684C146.175 157.819 149.556 158.684 149.556 158.684L150.696 161.215Z" fill="#CF6F80"/>
<path opacity="0.1" d="M153.403 135.039L155.802 129.972C155.802 129.972 156.756 133.834 156.756 135.897C156.756 137.961 158.091 138.163 158.091 138.163C158.091 138.163 159.553 139.973 158.782 141.291C158.011 142.608 157.7 145.888 157.7 145.888C157.7 145.888 157.952 152.146 156.808 153.012C155.664 153.877 155.425 155.944 155.425 155.944C155.425 155.944 153.324 159.871 153.389 160.805C153.455 161.739 150.465 168.063 150.465 168.063C150.465 168.063 151.927 160.204 143.406 156.809C143.406 156.809 143.34 154.141 143.976 153.41C144.612 152.679 145.604 152.346 144.982 148.65C144.36 144.954 144.802 140.538 144.802 139.651C144.802 138.764 146.711 133.233 146.711 133.233L153.403 135.039Z" fill="black"/>
<path d="M154.44 129.248L156.535 129.972C156.535 129.972 157.492 133.834 157.492 135.898C157.492 137.961 158.827 138.164 158.827 138.164C158.827 138.164 160.289 139.973 159.518 141.291C158.747 142.609 158.44 145.888 158.44 145.888C158.44 145.888 158.692 152.147 157.548 153.012C156.404 153.877 156.148 155.944 156.148 155.944C156.148 155.944 154.049 159.871 154.115 160.805C154.181 161.739 151.187 168.063 151.187 168.063C151.187 168.063 152.653 160.204 144.128 156.809C144.128 156.809 144.066 154.141 144.702 153.41C145.338 152.679 146.33 152.346 145.708 148.65C145.086 144.954 145.528 140.538 145.528 139.651C145.528 138.764 147.436 133.233 147.436 133.233L154.44 129.248Z" fill="white"/>
<path opacity="0.1" d="M108.169 260.598C108.169 260.598 111.509 258.401 113.7 259.997C115.892 261.594 108.169 260.598 108.169 260.598Z" fill="black"/>
<path opacity="0.1" d="M134.117 253.805C134.117 253.805 137.072 253.407 139.554 256.205C142.036 259.003 134.117 253.805 134.117 253.805Z" fill="black"/>
<g opacity="0.1">
<path d="M138.442 78.7487C138.016 79.1324 137.47 79.4075 137.187 79.9179C136.945 80.3559 136.938 80.8953 136.744 81.3658C136.551 81.8364 135.987 82.2201 135.597 81.9233C135.507 78.6655 133.972 75.6068 132.088 73.0005C131.561 72.214 130.921 71.5179 130.19 70.9372C129.45 70.3548 128.529 70.0824 127.608 70.1735C126.571 70.3219 125.658 71.0603 124.611 71.1508C123.228 71.2739 121.987 70.2712 120.614 70.2205C120.057 70.2263 119.507 70.3569 119.001 70.6035C118.495 70.8501 118.046 71.207 117.683 71.6503C116.961 72.5416 116.426 73.581 116.11 74.7018C115.567 76.4026 115.271 78.1793 115.232 79.9722C115.211 80.9821 115.121 82.2418 114.229 82.6183C114.25 82.8857 114.25 83.1544 114.229 83.4219C115.128 83.0599 115.218 81.7857 115.239 80.7722C115.277 78.9792 115.573 77.2025 116.117 75.5018C116.432 74.3799 116.968 73.3393 117.69 72.4467C118.054 72.0046 118.503 71.6487 119.009 71.4028C119.514 71.1569 120.064 71.0266 120.621 71.0205C122.004 71.0712 123.249 72.0702 124.617 71.9508C125.655 71.8603 126.574 71.1182 127.615 70.9734C128.536 70.8824 129.457 71.1547 130.197 71.7372C130.928 72.3179 131.568 73.014 132.095 73.8005C133.979 76.4031 135.514 79.4546 135.603 82.7196C135.994 83.0201 136.558 82.6291 136.751 82.1658C136.945 81.7025 136.952 81.1595 137.194 80.7179C137.477 80.2075 138.023 79.936 138.448 79.5523C139.527 78.5786 139.797 76.9388 139.755 75.4511C139.755 75.404 139.755 75.357 139.755 75.3136C139.689 76.6022 139.361 77.9162 138.442 78.7487Z" fill="black"/>
<path d="M112.923 78.4915C112.128 77.5757 111.042 76.964 110.313 75.9939C109.699 75.1351 109.348 74.1013 109.307 73.0293C109.198 74.369 109.555 75.7046 110.313 76.7902C111.042 77.764 112.128 78.3757 112.923 79.2915C113.686 80.1873 114.144 81.3228 114.226 82.5204C114.279 81.7915 114.191 81.059 113.967 80.3667C113.743 79.6745 113.388 79.0367 112.923 78.4915Z" fill="black"/>
<path d="M140.429 67.5634C140.225 68.4502 139.862 69.2936 139.696 70.1877C139.598 70.7852 139.562 71.392 139.589 71.9976C139.601 71.6527 139.637 71.3091 139.696 70.9696C139.862 70.0719 140.225 69.2321 140.429 68.3453C140.548 67.8561 140.587 67.3494 140.543 66.8467C140.522 67.0882 140.484 67.3277 140.429 67.5634Z" fill="black"/>
</g>
<path opacity="0.1" d="M45.8831 275.316C64.4863 275.316 79.5671 272.78 79.5671 269.651C79.5671 266.523 64.4863 263.986 45.8831 263.986C27.28 263.986 12.1992 266.523 12.1992 269.651C12.1992 272.78 27.28 275.316 45.8831 275.316Z" fill="#6366F1"/>
<path d="M46.9687 161.131H44.8013V212.231H46.9687V161.131Z" fill="#535461"/>
<path d="M60.5889 212.075L60.4541 214.377L60.2605 217.635L60.181 218.989L59.9909 222.247L59.9079 223.601L59.7143 226.858L57.5296 263.805C57.4346 265.395 56.7648 266.887 55.6563 267.978C54.5478 269.069 53.0841 269.676 51.563 269.677H40.2037C38.6829 269.676 37.2196 269.068 36.1117 267.978C35.0038 266.887 34.3346 265.395 34.2405 263.805L32.0662 226.833L31.8726 223.575L31.7931 222.221L31.5995 218.964L31.52 217.61L31.3264 214.352L31.1881 212.05C31.1641 211.607 31.2268 211.163 31.3723 210.746C31.5179 210.33 31.7433 209.948 32.0346 209.626C32.3259 209.304 32.6771 209.047 33.0665 208.872C33.456 208.697 33.8755 208.607 34.2993 208.607H57.5331C57.9553 208.611 58.3723 208.706 58.7584 208.885C59.1444 209.064 59.4913 209.324 59.7777 209.649C60.064 209.974 60.2837 210.357 60.4233 210.774C60.5628 211.191 60.6192 211.634 60.5889 212.075Z" fill="#3F3D56"/>
<path d="M60.4541 214.378L60.2605 217.625H31.5061L31.3125 214.378H60.4541Z" fill="#9D9CB5"/>
<path d="M60.1808 218.979L59.9907 222.229H31.779L31.5854 218.979H60.1808Z" fill="#9D9CB5"/>
<path d="M59.9081 223.587L59.7179 226.834H32.0525L31.8589 223.587H59.9081Z" fill="#9D9CB5"/>
<path d="M28.0042 180.283C40.6253 189.847 45.8936 204.804 45.8936 204.804C45.8936 204.804 30.6833 204.257 18.0588 194.694C5.4342 185.13 0.17627 170.177 0.17627 170.177C0.17627 170.177 15.3797 170.72 28.0042 180.283Z" fill="#6366F1"/>
<path d="M0.166016 170.177C0.166016 170.177 15.9571 179.353 21.0214 186.951C26.0858 194.549 45.8937 204.804 45.8937 204.804" stroke="#535461" stroke-width="2" stroke-miterlimit="10"/>
<path d="M36.152 161.019C43.0208 166.22 45.8935 174.361 45.8935 174.361C45.8935 174.361 37.6143 174.064 30.742 168.863C23.8697 163.661 21.0039 155.517 21.0039 155.517C21.0039 155.517 29.2797 155.813 36.152 161.019Z" fill="#6366F1"/>
<path d="M21.0039 155.517C21.0039 155.517 29.5977 160.512 32.3529 164.646C35.108 168.779 45.8935 174.361 45.8935 174.361" stroke="#535461" stroke-width="2" stroke-miterlimit="10"/>
<path d="M55.8669 173.948C47.9749 183.03 46.3052 194.899 46.3052 194.899C46.3052 194.899 57.4329 192.04 65.3181 182.954C73.2032 173.869 74.8798 162.003 74.8798 162.003C74.8798 162.003 63.759 164.866 55.8669 173.948Z" fill="#6366F1"/>
<path d="M74.8867 162.007C74.8867 162.007 64.6059 171.317 61.9925 177.731C59.3791 184.145 46.3052 194.9 46.3052 194.9" stroke="#535461" stroke-width="2" stroke-miterlimit="10"/>
<path d="M345.575 170.752C345.575 170.752 339.867 141.019 342.052 137.32C342.052 137.32 342.132 133.881 342 129.497C342 129.331 342 129.164 342 128.994C342.385 129.262 342.785 129.504 343.2 129.718C345.213 130.801 347.524 131.113 349.733 130.601L348.005 128.585C347.59 128.104 347.158 127.582 347.068 126.945C346.978 126.308 347.227 125.74 347.441 125.172C349.083 120.828 349.17 115.366 346.007 112.05C343.335 109.263 342.685 105.665 339.784 103.12C337.665 101.256 336.5 98.5228 335.401 95.8804C334.471 93.647 333.534 91.3955 333.002 89.0281C332.587 87.1784 332.421 85.2636 331.851 83.4573C331.28 81.651 330.212 79.8954 328.543 79.0882C327.948 78.8023 327.288 78.6394 326.745 78.2593C326.033 77.7562 325.604 76.9381 325.089 76.2214C322.472 72.6016 313.709 74.7336 309.561 76.2033C308.433 76.5734 307.389 77.1792 306.491 77.9842L306.529 77.9191C306.56 77.8648 306.598 77.8105 306.633 77.7562C306.179 78.1406 305.787 78.5989 305.471 79.1136C304.866 80.1163 304.614 81.2854 304.109 82.3714C303.501 83.6564 300.117 87.2436 301.572 88.6879C301.674 88.7849 301.791 88.8632 301.918 88.9196C302.464 89.1577 303.066 89.2206 303.646 89.1005L303.584 89.2562C303.087 90.5305 302.832 91.8941 302.834 93.2705C302.834 99.2178 307.518 104.039 313.301 104.039C314.388 104.04 315.469 103.866 316.506 103.522C316.53 103.659 316.551 103.797 316.575 103.934C316.575 103.989 316.592 104.043 316.599 104.097L316.416 104.365C316.407 104.349 316.396 104.333 316.385 104.318L310.957 112.26C310.128 112.872 305.35 116.491 305.081 119.206C304.797 122.178 304.514 125.657 304.514 125.657L304.476 126.402C304.239 126.61 303.961 126.761 303.663 126.845C303.364 126.93 303.052 126.945 302.747 126.891C301.053 126.601 301.053 133.407 301.053 133.407C301.053 133.407 299.926 134.493 299.152 133.551C298.378 132.61 296.331 135.799 296.331 135.799L283.506 136.378L283.212 136.397L282.521 134.156C282.447 133.92 282.286 133.724 282.075 133.61C281.863 133.497 281.617 133.476 281.391 133.551C281.337 133.57 281.285 133.593 281.235 133.62L281.187 133.649L281.097 133.714L281.052 133.758C281.027 133.781 281.004 133.807 280.983 133.834L280.941 133.884L280.921 133.906C280.841 134.022 280.788 134.155 280.766 134.296C280.745 134.437 280.755 134.581 280.796 134.717L281.391 136.639C278.916 137.16 276.385 138.63 278.449 142.677L267.988 140.653L271.373 143.629L288.844 147.404C288.612 147.839 288.764 148.469 289.487 149.355C292.598 153.181 298.267 154.22 300.549 154.488C301.151 155.9 301.904 157.235 302.792 158.47L302.595 162.282C302.595 162.282 296.819 191.334 295.761 192.807C296.295 192.174 296.784 191.5 297.223 190.791C295.547 196.76 293.203 204.93 292.588 206.153C291.599 208.108 290.683 216.017 291.81 216.524C292.155 216.68 293.144 216.604 294.554 216.491V217.147L294.492 241.975C294.492 241.975 294.776 257.203 293.998 258.655C293.22 260.106 293.013 263.15 293.013 263.15C293.013 263.15 289.901 269.156 287.437 271.57C287.42 271.589 287.401 271.606 287.381 271.621L287.305 271.056C287.305 271.056 284.343 274.973 277.789 274.752C277.789 274.752 273.844 277.438 279.693 277.582C285.542 277.727 293.013 277.365 293.013 277.365C293.013 277.365 298.229 269.04 302.599 270.126V276.435H303.936V270.024C304.557 269.597 305.088 269.041 305.497 268.392C305.907 267.744 306.186 267.014 306.318 266.249C306.433 265.46 306.349 264.653 306.075 263.909C305.801 263.164 305.346 262.507 304.756 262.003C304.49 261.752 304.278 261.446 304.131 261.105C303.984 260.763 303.906 260.394 303.902 260.019L303.853 260.063C303.853 259.936 303.822 259.806 303.809 259.672C303.425 256.414 302.944 249.692 304.642 244.718C306.968 237.899 307.673 228.4 305.979 222.746C305.433 220.939 304.984 219.101 304.635 217.241C304.593 217.005 304.555 216.781 304.521 216.571C305.679 216.735 306.825 216.977 307.953 217.295C311.877 218.428 320.46 218.638 327.789 218.576C327.806 218.786 327.827 219.007 327.851 219.228C327.982 220.763 328.255 222.281 328.667 223.76C329.587 226.656 330.008 239.423 330.008 239.423C330.008 239.423 331.194 249.92 330.548 254.191C330.202 256.566 329.856 258.951 329.659 261.348V261.395C329.659 261.395 327.716 267.186 326.296 270.332C326.261 270.412 326.223 270.491 326.188 270.567C325.81 270.603 325.437 270.69 325.079 270.824C325.079 270.824 323.174 274.806 321.276 275.465C319.378 276.124 320.008 278.292 324.304 277.496C328.601 276.699 335.09 276.048 335.09 276.048L335.37 271.986L336.69 270.256L336.345 274.307L337.752 274.017L337.565 269.09L339.726 266.26C339.726 266.26 342.336 263.827 338.457 259.042V259.147C338.415 259.078 338.377 259.006 338.332 258.937V258.915C337.69 257.873 337.178 255.929 338.115 252.479C339.809 246.246 340.794 240.588 340.794 240.588C340.794 240.588 344.576 225.432 340.03 218.261H340.23C339.764 217.252 339.435 216.18 339.252 215.076C339.229 214.946 339.208 214.812 339.19 214.674C342.553 214.472 345.855 213.834 348.548 212.459C348.537 212.445 346.916 176.478 345.575 170.752ZM302.872 145.667V145.739L302.18 145.775L302.872 145.667ZM300.5 146.011C300.387 146.037 300.28 146.09 300.189 146.166C299.892 146.607 299.705 147.118 299.646 147.654L298.568 147.401C298.568 147.401 297.811 147.231 296.722 147.039L296.207 146.496C297.624 146.373 299.097 146.192 300.5 146.011Z" fill="url(#paint1_linear_9699_3955)"/>
<path d="M336.186 269.141L335.774 274.27L337.154 273.981L336.946 268.417L336.186 269.141Z" fill="#1D2366"/>
<path d="M304.718 244.788C303.055 249.747 303.525 256.44 303.899 259.69C304.037 260.892 304.165 261.623 304.165 261.623C304.165 261.623 301.679 267.552 301.472 267.777C301.265 268.001 294.157 272.544 294.157 272.544L289.19 275.581C289.19 275.581 284.149 273.268 286.566 272.472C287.06 272.264 287.504 271.947 287.869 271.541C290.289 269.134 293.328 263.151 293.328 263.151C293.328 263.151 293.535 260.114 294.295 258.669C295.056 257.225 294.779 242.047 294.779 242.047L294.838 217.306V214.081L304.293 214.153C304.352 215.248 304.489 216.337 304.701 217.411C305.04 219.265 305.48 221.097 306.018 222.899C307.684 228.542 306.993 237.993 304.718 244.788Z" fill="#FFB0B1"/>
<path opacity="0.1" d="M304.165 261.623C304.165 261.623 301.679 267.552 301.472 267.777C301.265 268.001 294.157 272.544 294.157 272.544L289.19 275.581C289.19 275.581 284.149 273.268 286.566 272.471C287.06 272.264 287.504 271.947 287.869 271.541L288.083 273.123L289.739 273.051L303.912 259.697C304.037 260.892 304.165 261.623 304.165 261.623Z" fill="black"/>
<path d="M303.992 260.034L289.739 273.478L288.083 273.55L287.737 271.017C287.737 271.017 284.841 274.919 278.404 274.702C278.404 274.702 274.539 277.377 280.267 277.521C285.995 277.666 293.31 277.304 293.31 277.304C293.31 277.304 298.419 268.979 302.695 270.065V276.352H304.009V270.007C304.62 269.576 305.141 269.021 305.541 268.374C305.942 267.727 306.213 267.002 306.339 266.242C306.453 265.46 306.372 264.66 306.105 263.919C305.838 263.179 305.394 262.523 304.815 262.014C304.556 261.76 304.349 261.454 304.208 261.113C304.066 260.773 303.993 260.405 303.992 260.034Z" fill="#1D2366"/>
<path d="M337.499 252.52C336.58 255.958 337.081 257.895 337.71 258.934V258.956C338.517 260.238 339.078 261.673 339.362 263.18L339.418 263.506L332.933 273.406L329.414 274.854C329.414 274.854 323.755 272.83 324.788 272.251C325.048 272.11 325.452 271.357 325.915 270.318C327.298 267.187 329.206 261.41 329.206 261.41V261.363C329.407 258.977 329.725 256.599 330.077 254.232C330.71 249.971 329.548 239.514 329.548 239.514C329.548 239.514 329.134 226.797 328.235 223.905C327.829 222.435 327.559 220.927 327.429 219.402C327.243 217.592 327.201 216.101 327.201 216.101C327.201 216.101 330.928 210.671 337.758 216.535C338.305 217.003 338.785 217.549 339.186 218.157C343.905 225.187 340.106 240.672 340.106 240.672C340.106 240.672 339.155 246.304 337.499 252.52Z" fill="#FFB0B1"/>
<path opacity="0.1" d="M339.429 263.505L332.943 273.405L329.424 274.853C329.424 274.853 323.765 272.83 324.799 272.251C325.058 272.11 325.463 271.357 325.926 270.318C328.322 270.296 329.563 272.685 329.563 272.685L332.598 272.178C332.598 272.178 336.601 263.94 337.5 263.437C338.398 262.933 337.638 259.676 337.638 259.676V258.847C337.662 258.876 337.683 258.908 337.71 258.937V258.959C338.517 260.242 339.079 261.676 339.363 263.183L339.429 263.505Z" fill="black"/>
<path d="M329.77 272.899C329.77 272.899 328.042 269.576 324.73 270.803C324.73 270.803 322.867 274.785 321.004 275.429C319.14 276.073 319.763 278.245 323.973 277.452C328.184 276.66 334.53 276.004 334.53 276.004L334.807 271.954L339.087 266.246C339.087 266.246 341.638 263.824 337.842 259.057V259.886C337.842 259.886 338.603 263.143 337.704 263.647C336.805 264.15 332.816 272.392 332.816 272.392L329.77 272.899Z" fill="#1D2366"/>
<path opacity="0.1" d="M304.303 214.146C304.362 215.241 304.499 216.329 304.711 217.403C300.818 216.806 297.206 217.103 294.838 217.298V214.073L304.303 214.146Z" fill="black"/>
<path opacity="0.1" d="M339.57 219.058C339.57 219.058 334.039 219.34 327.443 219.398C327.256 217.588 327.215 216.097 327.215 216.097C327.215 216.097 330.941 210.667 337.772 216.531C338.318 216.999 338.799 217.545 339.2 218.153C339.307 218.462 339.431 218.764 339.57 219.058Z" fill="black"/>
<path d="M339.57 218.406C339.57 218.406 315.344 219.633 307.961 217.465C300.577 215.297 293.258 217.175 292.156 216.672C291.053 216.169 291.948 208.289 292.916 206.338C293.884 204.387 299.194 184.655 299.194 184.655L304.303 156.761L309.686 155.208L310.066 155.096L319.444 152.389L326.317 150.401C326.317 150.401 339.982 206.265 338.81 210.385C338.384 211.962 338.316 213.622 338.609 215.232C338.788 216.331 339.112 217.399 339.57 218.406Z" fill="#1D2366"/>
<path d="M286.493 137.686C286.493 137.686 281.653 143.115 285.318 146.141C288.982 149.167 291.391 146.431 291.391 146.431L286.493 137.686Z" fill="#C7DAF5"/>
<path opacity="0.1" d="M286.493 137.686C286.493 137.686 281.653 143.115 285.318 146.141C288.982 149.167 291.391 146.431 291.391 146.431L286.493 137.686Z" fill="black"/>
<path d="M325.594 101.987C325.594 101.987 325.027 102.552 324.173 103.384C322.956 104.575 321.155 106.316 319.558 107.775C317.345 109.791 315.52 111.272 316.174 110.008C316.827 108.745 316.703 106.544 316.378 104.485C316.353 104.347 316.333 104.21 316.308 104.076C316.039 102.563 315.683 101.069 315.24 99.6016C315.24 99.6016 318.815 94.7655 320.792 92.8579C321.528 92.134 322.043 91.8371 322.075 92.3403C322.109 93.0172 322.593 94.5121 323.195 96.0976C323.212 96.1483 323.229 96.1953 323.25 96.246C323.651 97.332 324.104 98.4469 324.501 99.4097C325.11 100.887 325.594 101.987 325.594 101.987Z" fill="#FFB0B1"/>
<path opacity="0.1" d="M323.25 96.2466C322.914 98.1385 322.099 99.9011 320.89 101.35C319.681 102.8 318.123 103.882 316.378 104.485C316.103 102.833 315.723 101.202 315.24 99.6022C315.24 99.6022 321.971 90.4984 322.075 92.3409C322.099 93.0395 322.624 94.5888 323.25 96.2466Z" fill="black"/>
<path opacity="0.1" d="M315.707 106.918L316.578 105.633C316.578 105.633 317.156 109.318 319.278 107.692C321.401 106.067 321.504 119.924 321.504 119.924L319.226 155.589L302.765 154.558L303.231 137.324L305.095 128.636L309.703 116.007L312.444 111.833L315.707 106.918Z" fill="black"/>
<path d="M321.505 120.144L319.431 152.393L319.213 155.81L310.035 155.234L309.689 155.212L302.775 154.778L303.242 137.541L305.105 128.853L309.713 116.224L312.455 112.05L315.718 107.116L316.589 105.835C316.589 105.835 317.166 109.52 319.289 107.895L319.334 107.862C321.408 106.487 321.505 120.144 321.505 120.144Z" fill="#1D2366"/>
<path d="M305.336 125.834C305.336 125.834 304.51 127.644 302.851 127.351C301.192 127.057 301.195 133.866 301.195 133.866C301.195 133.866 300.092 134.952 299.332 134.011C298.571 133.07 296.566 136.252 296.566 136.252L284.004 136.831C284.004 136.831 289.594 139.506 288.498 147.6C288.498 147.6 307.476 146.369 308.098 144.49C308.721 142.612 305.336 125.834 305.336 125.834Z" fill="white"/>
<path opacity="0.03" d="M305.336 125.834C305.336 125.834 304.51 127.644 302.851 127.351C301.192 127.057 301.195 133.866 301.195 133.866C301.195 133.866 300.092 134.952 299.332 134.011C298.571 133.07 296.566 136.252 296.566 136.252L284.004 136.831C284.004 136.831 289.594 139.506 288.498 147.6C288.498 147.6 307.476 146.369 308.098 144.49C308.721 142.612 305.336 125.834 305.336 125.834Z" fill="black"/>
<path d="M268.828 141.085L272.14 144.046L299.401 150.044L296.02 146.431L268.828 141.085Z" fill="white"/>
<path d="M315.759 108.057C315.306 108.781 314.01 112.488 312.928 115.724C312.025 118.421 311.272 120.792 311.272 120.792C311.272 120.792 309.512 132.788 308.613 134.956C307.715 137.124 308.202 145.58 308.202 145.58L304.852 166.462C304.852 166.462 303.335 177.231 300.991 183.664C298.678 189.995 296.103 192.963 296.023 193.057C297.061 191.587 302.713 162.651 302.713 162.651L304.579 126.156C304.579 126.156 304.852 122.688 305.129 119.724C305.405 116.759 311.006 112.712 311.006 112.712L316.405 104.673C316.948 105.433 316.585 106.758 315.759 108.057Z" fill="white"/>
<path d="M301.679 154.959C301.679 154.959 293.728 154.597 289.877 149.754C286.026 144.911 298.778 147.821 298.778 147.821L302.094 148.618L301.679 154.959Z" fill="#FFB0B1"/>
<path opacity="0.1" d="M338.81 210.389C338.384 211.966 338.316 213.626 338.609 215.236C329.936 215.88 320.658 213.426 320.658 213.426C318.929 215.091 314.377 217.545 314.377 217.545L311.894 185.329C310.308 180.986 309.686 158.228 309.686 158.228C309.686 158.228 309.827 157.037 310.031 155.253C310.031 155.209 310.031 155.162 310.049 155.119C310.667 150.134 311.894 140.777 312.496 139.514C313.326 137.776 309.945 133.154 309.945 133.154L311.483 119.417L311.67 117.759C314.912 116.242 317.398 111.399 317.398 111.399L319.306 107.899C321.38 106.505 321.487 120.162 321.487 120.162L319.413 152.411L326.286 150.424C326.286 150.424 339.982 206.27 338.81 210.389Z" fill="black"/>
<path d="M347.712 212.615C338.257 217.53 321.073 212.977 321.073 212.977C319.344 214.642 314.792 217.096 314.792 217.096L312.306 184.88C310.723 180.536 310.101 157.779 310.101 157.779C310.101 157.779 312.099 140.798 312.928 139.064C313.17 138.558 313.053 137.805 312.766 136.994C311.355 133.135 310.836 128.981 311.252 124.871L311.915 118.967L312.099 117.313C315.345 115.793 317.83 110.95 317.83 110.95L319.559 107.779L322.739 101.936L324.246 99.1709L324.502 99.4134L326.455 101.267C326.455 101.267 327.285 101.991 328.529 103.077C331.236 105.466 335.913 109.672 338.326 112.246C340.449 114.512 341.119 123.326 341.313 129.961C341.441 134.33 341.365 137.754 341.365 137.754C339.225 141.443 344.822 171.056 344.822 171.056C346.125 176.779 347.712 212.615 347.712 212.615Z" fill="white"/>
<path opacity="0.03" d="M329.563 110.878C329.563 110.878 323.074 123.811 323.828 128.727C324.582 133.643 326.725 139.206 325.691 140.506C325.336 140.998 324.877 141.398 324.35 141.673C323.823 141.949 323.242 142.093 322.653 142.095C321.616 142.167 318.85 144.191 318.85 144.408C318.85 144.625 316.295 144.625 314.01 145.638C311.725 146.652 308.351 147.228 308.351 147.228C308.351 147.228 301.783 147.01 301.172 147.662C300.56 148.313 299.93 152.212 301.241 155.321C302.551 158.431 304.006 160.751 305.105 161.175C306.205 161.598 313.181 159.151 318.84 158.572C324.499 157.993 330.641 153.298 330.641 153.298C330.641 153.298 337.407 150.764 338.592 146.504C339.778 142.243 337.144 118.827 337.144 118.827C337.144 118.827 335.153 107.913 329.563 110.878Z" fill="black"/>
<path opacity="0.03" d="M328.733 109.792C328.733 109.792 322.244 122.729 323.005 127.641C323.765 132.553 325.901 138.12 324.864 139.423C324.51 139.916 324.052 140.316 323.525 140.592C322.999 140.868 322.418 141.012 321.829 141.012C320.792 141.085 318.027 143.108 318.027 143.325C318.027 143.543 315.472 143.543 313.187 144.553C310.902 145.562 307.528 146.142 307.528 146.142C307.528 146.142 300.96 145.924 300.352 146.576C299.743 147.228 299.107 151.13 300.421 154.235C301.734 157.341 303.186 159.665 304.285 160.089C305.385 160.512 312.361 158.065 318.02 157.49C323.679 156.914 329.822 152.212 329.822 152.212C329.822 152.212 336.583 149.678 337.755 145.421C338.927 141.164 336.307 117.741 336.307 117.741C336.307 117.741 334.322 106.831 328.733 109.792Z" fill="black"/>
<path d="M329.359 110.226C329.359 110.226 322.87 123.163 323.631 128.075C324.391 132.987 326.528 138.555 325.494 139.854C325.14 140.348 324.681 140.749 324.154 141.026C323.627 141.302 323.045 141.446 322.455 141.447C321.418 141.519 318.653 143.543 318.653 143.756C318.653 143.97 316.102 143.973 313.813 144.987C311.525 146.001 308.154 146.576 308.154 146.576C308.154 146.576 301.586 146.359 300.974 147.01C300.362 147.662 299.733 151.564 301.043 154.67C302.354 157.776 303.809 160.1 304.908 160.523C306.007 160.947 312.983 158.5 318.642 157.92C324.301 157.341 330.444 152.646 330.444 152.646C330.444 152.646 337.209 150.113 338.395 145.852C339.581 141.592 336.964 118.175 336.964 118.175C336.964 118.175 334.945 107.28 329.359 110.226Z" fill="white"/>
<path opacity="0.1" d="M329.217 144.925C329.217 144.925 324.032 143.839 325.836 145.649C327.641 147.458 327.631 149.044 329.84 148.972C332.048 148.899 329.217 144.925 329.217 144.925Z" fill="black"/>
<path opacity="0.1" d="M337.979 183.866C337.979 183.866 335.636 185.528 340.119 189.357C344.603 193.187 337.979 183.866 337.979 183.866Z" fill="black"/>
<path opacity="0.1" d="M333.507 197.524C333.507 197.742 332.677 205.488 335.782 207.424C338.886 209.361 333.507 197.524 333.507 197.524Z" fill="black"/>
<path d="M284.218 136.813C281.715 136.904 276.309 137.704 279.112 143.181C281.591 148.028 285.756 144.788 288.1 142.33C287.528 140.039 286.139 138.064 284.218 136.813Z" fill="#FFB0B1"/>
<path opacity="0.1" d="M328.529 103.298C325.874 105.198 323.648 106.802 323.212 107.135C322.023 108.058 319.755 113.477 318.293 116.242C317.128 118.468 313.343 119.04 311.915 119.181L312.098 117.527C315.344 116.007 317.83 111.164 317.83 111.164L324.246 99.3848L326.455 101.488C326.455 101.488 327.284 102.212 328.529 103.298Z" fill="black"/>
<path d="M328.529 103.08C325.874 104.98 323.648 106.584 323.212 106.921C322.023 107.84 319.755 113.259 318.293 116.024C317.128 118.25 313.343 118.822 311.915 118.964L312.098 117.309C315.344 115.789 317.83 110.946 317.83 110.946L324.246 99.167L326.455 101.263C326.455 101.263 327.284 101.98 328.529 103.08Z" fill="#DCE7FF"/>
<path d="M323.419 93.8575C323.421 96.0304 322.791 98.1525 321.615 99.9423C320.225 102.059 318.157 103.583 315.786 104.239C313.415 104.895 310.897 104.64 308.691 103.519C306.484 102.398 304.734 100.485 303.759 98.129C302.783 95.7726 302.647 93.1281 303.374 90.6754C304.102 88.2227 305.645 86.1243 307.723 84.7609C309.802 83.3975 312.278 82.8594 314.703 83.2444C317.128 83.6293 319.341 84.9118 320.94 86.859C322.539 88.8062 323.419 91.2892 323.419 93.8575Z" fill="#FFB0B1"/>
<path opacity="0.1" d="M341.312 129.965C339.908 129.061 338.765 127.775 338.004 126.244C337.427 125.049 337.043 123.67 336.058 122.823C335.169 122.063 333.984 121.878 332.877 121.538C329.241 120.412 326.192 116.937 326.078 112.97C326.022 111.102 326.579 109.238 326.327 107.388C326.183 106.341 325.786 105.351 325.172 104.511C324.867 104.109 324.533 103.732 324.173 103.385C323.689 102.907 323.181 102.444 322.738 101.937C322.46 101.623 322.216 101.277 322.012 100.905C321.848 100.601 321.715 100.279 321.615 99.946C320.923 97.7307 321.553 95.1027 320.792 92.8621L320.751 92.739C320.464 91.9426 319.879 91.1463 319.067 91.0848C318.255 91.0232 317.56 91.7291 316.786 92.044C315.164 92.7028 313.415 91.5807 312.063 90.4368C310.712 89.293 309.187 87.9862 307.469 88.2396C306.332 88.4097 305.433 89.2206 304.386 89.6405C304.149 89.7363 303.905 89.8102 303.656 89.8613C304.543 87.5465 306.171 85.6272 308.262 84.4331C310.353 83.2391 312.776 82.8448 315.115 83.3181C317.453 83.7914 319.561 85.1026 321.077 87.0266C322.592 88.9506 323.42 91.3671 323.419 93.8611C323.42 94.6142 323.345 95.3653 323.195 96.1018C323.212 96.1524 323.229 96.1995 323.25 96.2502C323.651 97.3361 324.104 98.451 324.501 99.4139L326.454 101.267C326.454 101.267 327.284 101.991 328.529 103.077C331.235 105.466 335.912 109.672 338.325 112.246C340.448 114.519 341.112 123.33 341.312 129.965Z" fill="black"/>
<path d="M304.265 83.0272C304.759 81.9739 305.005 80.7938 305.596 79.7948C306.464 78.3469 307.978 77.4202 309.533 76.8591C313.595 75.3931 322.179 73.2647 324.744 76.8591C325.248 77.5831 325.667 78.3867 326.365 78.8862C326.897 79.2663 327.54 79.4292 328.125 79.7151C329.76 80.5187 330.804 82.2707 331.36 84.0589C331.917 85.8471 332.083 87.7655 332.491 89.608C333.013 91.9717 333.929 94.2124 334.841 96.4385C335.916 99.0665 337.057 101.792 339.131 103.649C341.962 106.183 342.588 109.77 345.215 112.55C348.327 115.851 348.226 121.299 346.622 125.625C346.411 126.193 346.173 126.787 346.256 127.391C346.339 127.996 346.768 128.546 347.172 129.027L348.873 131.036C344.849 132.054 340.296 129.853 338.423 125.99C337.845 124.796 337.462 123.42 336.473 122.57C335.588 121.81 334.399 121.629 333.296 121.288C329.659 120.159 326.61 116.68 326.496 112.713C326.441 110.849 326.998 108.985 326.745 107.139C326.605 106.085 326.206 105.087 325.587 104.243C324.637 102.943 323.202 102.071 322.428 100.623C321.117 98.2013 322.113 95.0558 321.169 92.4568C320.879 91.6604 320.298 90.8641 319.486 90.8025C318.673 90.741 317.979 91.4468 317.201 91.7618C315.583 92.4206 313.834 91.3021 312.482 90.1546C311.13 89.0071 309.606 87.704 307.884 87.961C306.747 88.1275 305.852 88.9383 304.804 89.3619C304.03 89.6732 302.461 89.9519 301.783 89.2677C300.352 87.8886 303.667 84.3159 304.265 83.0272Z" fill="#591D4B"/>
<path opacity="0.1" d="M339.384 124.795C338.803 123.601 338.423 122.225 337.434 121.378C336.549 120.618 335.36 120.434 334.254 120.093C330.621 118.968 327.572 115.489 327.454 111.522C327.399 109.657 327.955 107.79 327.707 105.944C327.562 104.896 327.163 103.906 326.548 103.066C325.594 101.766 324.16 100.894 323.389 99.4461C322.079 97.028 323.074 93.8825 322.127 91.2798C321.84 90.4871 321.256 89.6908 320.447 89.6256C319.638 89.5605 318.936 90.2736 318.162 90.5885C316.544 91.2473 314.792 90.1251 313.443 88.9813C312.095 87.8374 310.564 86.5307 308.846 86.7841C307.708 86.9542 306.81 87.765 305.766 88.1849C304.991 88.4962 303.418 88.7786 302.741 88.0944C301.317 86.6465 304.632 83.081 305.226 81.7996C305.721 80.7427 305.966 79.5662 306.561 78.5672C306.592 78.5129 306.626 78.4586 306.661 78.4043C306.216 78.7901 305.832 79.247 305.524 79.7581C304.933 80.7571 304.687 81.93 304.193 82.9906C303.595 84.272 300.28 87.8483 301.707 89.2853C302.399 89.9731 303.954 89.6908 304.729 89.3795C305.766 88.9559 306.671 88.1451 307.809 87.9786C309.537 87.7216 311.058 89.0283 312.406 90.1722C313.755 91.316 315.518 92.4382 317.128 91.7794C317.903 91.4645 318.58 90.755 319.41 90.8201C320.24 90.8853 320.793 91.678 321.094 92.4744C322.037 95.0734 321.042 98.219 322.352 100.641C323.126 102.063 324.561 102.954 325.511 104.26C326.13 105.105 326.529 106.102 326.669 107.156C326.922 109.002 326.365 110.866 326.421 112.731C326.535 116.712 329.584 120.177 333.22 121.306C334.316 121.646 335.512 121.827 336.397 122.587C337.389 123.438 337.78 124.813 338.347 126.008C340.22 129.87 344.773 132.071 348.797 131.054L347.995 130.106C344.507 130.16 340.978 128.082 339.384 124.795Z" fill="black"/>
<path opacity="0.1" d="M315.552 108.275C315.099 108.999 313.802 112.706 312.72 115.942C311.708 115.529 310.788 112.898 310.788 112.898L316.188 104.854C316.741 105.651 316.378 106.972 315.552 108.275Z" fill="black"/>
<path d="M315.759 108.058C315.306 108.782 314.01 112.488 312.928 115.724C311.915 115.315 310.995 112.68 310.995 112.68L316.395 104.641C316.948 105.433 316.585 106.758 315.759 108.058Z" fill="#DCE7FF"/>
<path d="M284.364 145.037L281.37 135.151C281.335 135.036 281.322 134.914 281.331 134.793C281.341 134.671 281.373 134.553 281.427 134.446C281.48 134.338 281.553 134.242 281.642 134.163C281.731 134.085 281.833 134.026 281.944 133.989C282.167 133.917 282.408 133.939 282.615 134.051C282.822 134.164 282.979 134.358 283.05 134.59L286.044 144.465L285.747 146.532L284.364 145.037Z" fill="#BE8B87"/>
<path opacity="0.1" d="M281.654 134.283C281.877 134.209 282.119 134.231 282.327 134.343C282.535 134.456 282.692 134.65 282.764 134.884L285.757 144.758L285.533 146.308L285.75 146.547L286.048 144.48L283.037 134.605C282.965 134.372 282.809 134.179 282.602 134.066C282.395 133.953 282.153 133.931 281.93 134.004C281.743 134.068 281.581 134.195 281.471 134.366C281.529 134.333 281.591 134.305 281.654 134.283Z" fill="white"/>
<path d="M284.363 145.037L286.043 144.479L285.798 146.174L285.746 146.546L285.255 146.011L284.363 145.037Z" fill="#EFC8C4"/>
<path d="M285.256 146.011C285.285 145.973 285.322 145.941 285.363 145.917C285.387 145.901 285.416 145.893 285.444 145.893C285.473 145.893 285.501 145.901 285.526 145.917C285.549 145.947 285.569 145.98 285.584 146.015C285.607 146.055 285.638 146.089 285.675 146.115C285.712 146.14 285.755 146.157 285.799 146.163L285.747 146.525L285.256 146.011Z" fill="#727A9C"/>
<path d="M281.353 138.663C281.353 138.663 287.357 138.627 285.943 141.302C284.529 143.977 282.32 144.299 282.32 144.299L281.353 138.663Z" fill="#FFB0B1"/>
<path d="M244.008 18.6133H243.749C233.433 18.6133 224.311 24.3289 219.063 32.763C213.816 24.3289 204.693 18.6133 194.377 18.6133H194.118C186.377 18.6905 178.977 21.9638 173.528 27.7216C168.078 33.4795 165.019 41.2568 165.015 49.3633C165.015 59.4299 169.225 73.7135 177.435 85.467C193.078 107.863 219.063 127.456 219.063 127.456C219.063 127.456 245.049 107.866 260.687 85.467C268.901 73.7135 273.108 59.4299 273.108 49.3633C273.104 41.2574 270.045 33.4807 264.596 27.7229C259.147 21.9651 251.749 18.6915 244.008 18.6133ZM240.299 87.19C239.124 87.1853 237.978 86.8088 237.011 86.1098C236.045 85.4108 235.302 84.4221 234.882 83.2734H228.715C228.309 83.2707 227.913 83.1354 227.584 82.8862C227.255 82.637 227.009 82.2864 226.879 81.8834L224.985 75.9071L218.99 97.8394C218.874 98.2616 218.629 98.6327 218.294 98.8971C217.959 99.1614 217.55 99.3047 217.131 99.3054H217.01C216.572 99.2832 216.154 99.1043 215.827 98.7986C215.5 98.4929 215.283 98.0789 215.212 97.6258L209.035 58.7204L204.52 81.7422C204.416 82.1796 204.176 82.568 203.837 82.8455C203.498 83.123 203.08 83.2737 202.65 83.2734H193.963C193.702 83.2849 193.442 83.2412 193.198 83.1448C192.955 83.0484 192.732 82.9013 192.544 82.7125C192.356 82.5236 192.206 82.2968 192.104 82.0458C192.001 81.7948 191.949 81.5247 191.949 81.2517C191.949 80.9788 192.001 80.7087 192.104 80.4577C192.206 80.2066 192.356 79.9799 192.544 79.791C192.732 79.6021 192.955 79.4551 193.198 79.3587C193.442 79.2623 193.702 79.2186 193.963 79.2301H201.129L207.524 48.2774C207.629 47.8197 207.883 47.4145 208.241 47.1309C208.6 46.8474 209.042 46.7031 209.491 46.7228C209.94 46.7424 210.368 46.9248 210.703 47.2388C211.038 47.5527 211.258 47.9787 211.327 48.4439L217.635 88.1311L223.007 68.5083C223.119 68.095 223.356 67.7307 223.682 67.4698C224.007 67.2088 224.405 67.0652 224.815 67.0604H224.853C225.26 67.0605 225.656 67.195 225.985 67.4446C226.314 67.6942 226.559 68.0462 226.686 68.4504L230.111 79.241H234.806C235.14 78.1791 235.747 77.2345 236.561 76.5114C237.375 75.7882 238.364 75.3147 239.419 75.143C240.474 74.9713 241.554 75.1081 242.539 75.5383C243.524 75.9686 244.377 76.6755 245.003 77.5811C245.629 78.4867 246.003 79.5558 246.086 80.6703C246.168 81.7849 245.954 82.9015 245.469 83.8971C244.983 84.8926 244.244 85.7283 243.334 86.312C242.423 86.8956 241.377 87.2045 240.309 87.2045L240.299 87.19Z" fill="#6366F1"/>
</g>
<defs>
<linearGradient id="paint0_linear_9699_3955" x1="123.179" y1="280.486" x2="123.179" y2="57.7465" gradientUnits="userSpaceOnUse">
<stop stop-color="#808080" stop-opacity="0.25"/>
<stop offset="0.54" stop-color="#808080" stop-opacity="0.12"/>
<stop offset="1" stop-color="#808080" stop-opacity="0.1"/>
</linearGradient>
<linearGradient id="paint1_linear_9699_3955" x1="308.849" y1="277.669" x2="308.849" y2="74.2377" gradientUnits="userSpaceOnUse">
<stop stop-color="#808080" stop-opacity="0.25"/>
<stop offset="0.54" stop-color="#808080" stop-opacity="0.12"/>
<stop offset="1" stop-color="#808080" stop-opacity="0.1"/>
</linearGradient>
<clipPath id="clip0_9699_3955">
<rect width="382" height="283.335" fill="white"/>
</clipPath>
</defs>
</svg>
