<svg width="382" height="346" viewBox="0 0 382 346" fill="none" xmlns="http://www.w3.org/2000/svg">
<g clip-path="url(#clip0_9700_6455)">
<path d="M224.71 54.8817H157.346C155.811 54.8836 154.339 55.4942 153.254 56.5797C152.168 57.6652 151.558 59.1369 151.556 60.672V210.389L150.784 210.625L134.258 215.686C133.475 215.925 132.629 215.843 131.906 215.458C131.183 215.074 130.642 214.419 130.402 213.636L81.2461 53.0713C81.0069 52.2881 81.0884 51.4419 81.4728 50.7188C81.8571 49.9957 82.5129 49.4548 83.2959 49.2149L108.762 41.4173L182.588 18.8198L208.053 11.0222C208.441 10.9029 208.848 10.8612 209.252 10.8995C209.656 10.9378 210.048 11.0554 210.406 11.2454C210.764 11.4354 211.081 11.6942 211.339 12.007C211.597 12.3197 211.791 12.6803 211.91 13.0681L224.475 54.1096L224.71 54.8817Z" fill="#F2F2F2"/>
<path d="M239.41 54.1096L224.267 4.64508C224.015 3.82091 223.603 3.05446 223.054 2.38953C222.506 1.7246 221.832 1.17423 221.071 0.769859C220.31 0.365488 219.477 0.11504 218.619 0.0328377C217.761 -0.0493646 216.895 0.038289 216.071 0.290781L180.268 11.2499L106.446 33.8513L70.6426 44.8142C68.9794 45.325 67.5868 46.4747 66.7704 48.0112C65.954 49.5476 65.7806 51.3453 66.2882 53.0094L118.046 222.059C118.458 223.402 119.29 224.578 120.42 225.414C121.549 226.25 122.917 226.701 124.322 226.703C124.973 226.703 125.62 226.605 126.241 226.413L150.784 218.901L151.556 218.662V217.855L150.784 218.091L126.013 225.676C124.545 226.123 122.959 225.97 121.604 225.25C120.249 224.53 119.234 223.302 118.783 221.835L67.0295 52.7817C66.8061 52.0548 66.7282 51.2909 66.8003 50.5339C66.8725 49.7768 67.0933 49.0414 67.45 48.3698C67.8068 47.6982 68.2926 47.1036 68.8795 46.62C69.4664 46.1364 70.1429 45.7733 70.8703 45.5515L106.674 34.5886L180.496 11.991L216.299 1.02808C216.851 0.859703 217.425 0.773848 218.001 0.773311C219.24 0.77609 220.444 1.17522 221.439 1.91223C222.434 2.64924 223.166 3.68542 223.529 4.86897L238.603 54.1096L238.843 54.8816H239.646L239.41 54.1096Z" fill="#3F3D56"/>
<path d="M113.357 49.3413C112.613 49.3408 111.889 49.1019 111.291 48.6596C110.692 48.2172 110.252 47.5948 110.033 46.8837L105.061 30.6432C104.927 30.2069 104.881 29.7486 104.925 29.2945C104.968 28.8403 105.101 28.3991 105.315 27.9962C105.529 27.5933 105.82 27.2365 106.172 26.9462C106.524 26.6559 106.93 26.4377 107.366 26.3042L175.282 5.51177C176.163 5.24292 177.115 5.33461 177.928 5.76672C178.742 6.19883 179.35 6.93605 179.621 7.81658L184.593 24.0573C184.862 24.9383 184.77 25.89 184.338 26.7034C183.906 27.5169 183.169 28.1257 182.288 28.3964L114.372 49.1889C114.043 49.2898 113.701 49.3412 113.357 49.3413Z" fill="#6366F1"/>
<path d="M139.403 17.3529C143.667 17.3529 147.123 13.8963 147.123 9.63249C147.123 5.36864 143.667 1.91211 139.403 1.91211C135.139 1.91211 131.683 5.36864 131.683 9.63249C131.683 13.8963 135.139 17.3529 139.403 17.3529Z" fill="#6366F1"/>
<path d="M139.403 14.5217C142.103 14.5217 144.292 12.3329 144.292 9.63293C144.292 6.93293 142.103 4.74414 139.403 4.74414C136.703 4.74414 134.514 6.93293 134.514 9.63293C134.514 12.3329 136.703 14.5217 139.403 14.5217Z" fill="white"/>
<path d="M298.629 224.73H168.155C167.285 224.729 166.451 224.383 165.836 223.768C165.221 223.153 164.875 222.319 164.874 221.449V65.1112C164.875 64.2413 165.221 63.4073 165.836 62.7922C166.451 62.1771 167.285 61.831 168.155 61.8301H298.629C299.499 61.8311 300.333 62.1771 300.948 62.7922C301.563 63.4073 301.909 64.2413 301.91 65.1112V221.449C301.909 222.319 301.563 223.153 300.948 223.768C300.333 224.383 299.499 224.729 298.629 224.73Z" fill="#E6E6E6"/>
<path d="M238.603 54.1094H157.346C155.606 54.1118 153.939 54.804 152.708 56.0342C151.478 57.2643 150.786 58.932 150.784 60.6717V218.09L151.556 217.855V60.6717C151.558 59.1366 152.168 57.6649 153.254 56.5794C154.339 55.4939 155.811 54.8833 157.346 54.8814H238.842L238.603 54.1094ZM309.438 54.1094H157.346C155.606 54.1118 153.939 54.804 152.708 56.0342C151.478 57.2643 150.786 58.932 150.784 60.6717V237.468C150.786 239.208 151.478 240.876 152.708 242.106C153.939 243.336 155.606 244.028 157.346 244.031H309.438C311.177 244.028 312.845 243.336 314.075 242.106C315.305 240.876 315.997 239.208 316 237.468V60.6717C315.997 58.932 315.305 57.2643 314.075 56.0342C312.845 54.804 311.177 54.1118 309.438 54.1094ZM315.228 237.468C315.226 239.004 314.615 240.475 313.53 241.561C312.444 242.646 310.973 243.257 309.438 243.259H157.346C155.811 243.257 154.339 242.646 153.254 241.561C152.168 240.475 151.558 239.004 151.556 237.468V60.6717C151.558 59.1366 152.168 57.6649 153.254 56.5794C154.339 55.4939 155.811 54.8833 157.346 54.8814H309.438C310.973 54.8833 312.444 55.4939 313.53 56.5794C314.615 57.6649 315.226 59.1366 315.228 60.6717V237.468Z" fill="#3F3D56"/>
<path d="M268.906 71.0943H197.878C196.957 71.0933 196.074 70.7269 195.423 70.0756C194.772 69.4243 194.405 68.5412 194.404 67.6201V50.6353C194.405 49.7142 194.772 48.8311 195.423 48.1798C196.074 47.5285 196.957 47.1622 197.878 47.1611H268.906C269.827 47.1622 270.71 47.5285 271.361 48.1798C272.013 48.8311 272.379 49.7142 272.38 50.6353V67.6201C272.379 68.5412 272.013 69.4243 271.361 70.0756C270.71 70.7269 269.827 71.0933 268.906 71.0943Z" fill="#6366F1"/>
<path d="M233.392 48.3197C237.656 48.3197 241.112 44.8631 241.112 40.5993C241.112 36.3354 237.656 32.8789 233.392 32.8789C229.128 32.8789 225.671 36.3354 225.671 40.5993C225.671 44.8631 229.128 48.3197 233.392 48.3197Z" fill="#6366F1"/>
<path d="M233.392 45.3014C235.989 45.3014 238.094 43.196 238.094 40.5989C238.094 38.0018 235.989 35.8965 233.392 35.8965C230.795 35.8965 228.689 38.0018 228.689 40.5989C228.689 43.196 230.795 45.3014 233.392 45.3014Z" fill="white"/>
</g>
<path d="M50.9219 281.281V304.031H46.25V281.281H50.9219ZM57.9219 281.281V284.953H39.3594V281.281H57.9219ZM64.3281 299.656L67.8438 287.125H70.7031L69.7812 292.047L66.2656 304.031H63.875L64.3281 299.656ZM62.5469 287.125L65.0625 299.641L65.2969 304.031H62.4844L58.2031 287.125H62.5469ZM73.9219 299.438L76.375 287.125H80.7344L76.4531 304.031H73.6562L73.9219 299.438ZM71.0938 287.125L74.5938 299.562L75.0781 304.031H72.6719L69.1562 292.062L68.2656 287.125H71.0938ZM82.2812 295.75V295.422C82.2812 294.182 82.4583 293.042 82.8125 292C83.1667 290.948 83.6823 290.036 84.3594 289.266C85.0365 288.495 85.8698 287.896 86.8594 287.469C87.849 287.031 88.9844 286.812 90.2656 286.812C91.5469 286.812 92.6875 287.031 93.6875 287.469C94.6875 287.896 95.526 288.495 96.2031 289.266C96.8906 290.036 97.4115 290.948 97.7656 292C98.1198 293.042 98.2969 294.182 98.2969 295.422V295.75C98.2969 296.979 98.1198 298.12 97.7656 299.172C97.4115 300.214 96.8906 301.125 96.2031 301.906C95.526 302.677 94.6927 303.276 93.7031 303.703C92.7135 304.13 91.5781 304.344 90.2969 304.344C89.0156 304.344 87.875 304.13 86.875 303.703C85.8854 303.276 85.0469 302.677 84.3594 301.906C83.6823 301.125 83.1667 300.214 82.8125 299.172C82.4583 298.12 82.2812 296.979 82.2812 295.75ZM86.7812 295.422V295.75C86.7812 296.458 86.8438 297.12 86.9688 297.734C87.0938 298.349 87.2917 298.891 87.5625 299.359C87.8438 299.818 88.2083 300.177 88.6562 300.438C89.1042 300.698 89.651 300.828 90.2969 300.828C90.9219 300.828 91.4583 300.698 91.9062 300.438C92.3542 300.177 92.7135 299.818 92.9844 299.359C93.2552 298.891 93.4531 298.349 93.5781 297.734C93.7135 297.12 93.7812 296.458 93.7812 295.75V295.422C93.7812 294.734 93.7135 294.089 93.5781 293.484C93.4531 292.87 93.25 292.328 92.9688 291.859C92.6979 291.38 92.3385 291.005 91.8906 290.734C91.4427 290.464 90.901 290.328 90.2656 290.328C89.6302 290.328 89.0885 290.464 88.6406 290.734C88.2031 291.005 87.8438 291.38 87.5625 291.859C87.2917 292.328 87.0938 292.87 86.9688 293.484C86.8438 294.089 86.7812 294.734 86.7812 295.422ZM101.312 287.125H105.828V305.047C105.828 306.297 105.599 307.354 105.141 308.219C104.682 309.083 104.021 309.74 103.156 310.188C102.292 310.635 101.245 310.859 100.016 310.859C99.6302 310.859 99.2552 310.839 98.8906 310.797C98.5156 310.755 98.1302 310.688 97.7344 310.594L97.75 307.141C98 307.182 98.2448 307.214 98.4844 307.234C98.7135 307.266 98.9479 307.281 99.1875 307.281C99.6562 307.281 100.047 307.203 100.359 307.047C100.672 306.891 100.906 306.646 101.062 306.312C101.229 305.99 101.312 305.568 101.312 305.047V287.125ZM100.953 282.719C100.953 282.062 101.182 281.521 101.641 281.094C102.109 280.667 102.724 280.453 103.484 280.453C104.255 280.453 104.87 280.667 105.328 281.094C105.786 281.521 106.016 282.062 106.016 282.719C106.016 283.375 105.786 283.917 105.328 284.344C104.87 284.771 104.255 284.984 103.484 284.984C102.724 284.984 102.109 284.771 101.641 284.344C101.182 283.917 100.953 283.375 100.953 282.719ZM118.531 300.219V292.688C118.531 292.146 118.443 291.682 118.266 291.297C118.089 290.901 117.812 290.594 117.438 290.375C117.073 290.156 116.599 290.047 116.016 290.047C115.516 290.047 115.083 290.135 114.719 290.312C114.354 290.479 114.073 290.724 113.875 291.047C113.677 291.359 113.578 291.729 113.578 292.156H109.078C109.078 291.438 109.245 290.755 109.578 290.109C109.911 289.464 110.396 288.896 111.031 288.406C111.667 287.906 112.422 287.516 113.297 287.234C114.182 286.953 115.172 286.812 116.266 286.812C117.578 286.812 118.745 287.031 119.766 287.469C120.786 287.906 121.589 288.562 122.172 289.438C122.766 290.312 123.062 291.406 123.062 292.719V299.953C123.062 300.88 123.12 301.641 123.234 302.234C123.349 302.818 123.516 303.328 123.734 303.766V304.031H119.188C118.969 303.573 118.802 303 118.688 302.312C118.583 301.615 118.531 300.917 118.531 300.219ZM119.125 293.734L119.156 296.281H116.641C116.047 296.281 115.531 296.349 115.094 296.484C114.656 296.62 114.297 296.812 114.016 297.062C113.734 297.302 113.526 297.583 113.391 297.906C113.266 298.229 113.203 298.583 113.203 298.969C113.203 299.354 113.292 299.703 113.469 300.016C113.646 300.318 113.901 300.557 114.234 300.734C114.568 300.901 114.958 300.984 115.406 300.984C116.083 300.984 116.672 300.849 117.172 300.578C117.672 300.307 118.057 299.974 118.328 299.578C118.609 299.182 118.755 298.807 118.766 298.453L119.953 300.359C119.786 300.786 119.557 301.229 119.266 301.688C118.984 302.146 118.625 302.578 118.188 302.984C117.75 303.38 117.224 303.708 116.609 303.969C115.995 304.219 115.266 304.344 114.422 304.344C113.349 304.344 112.375 304.13 111.5 303.703C110.635 303.266 109.948 302.667 109.438 301.906C108.938 301.135 108.688 300.26 108.688 299.281C108.688 298.396 108.854 297.609 109.188 296.922C109.521 296.234 110.01 295.656 110.656 295.188C111.312 294.708 112.13 294.349 113.109 294.109C114.089 293.859 115.224 293.734 116.516 293.734H119.125ZM139.25 280.031V304.031H134.734V280.031H139.25ZM147.719 287.125V304.031H143.203V287.125H147.719ZM142.922 282.719C142.922 282.062 143.151 281.521 143.609 281.094C144.068 280.667 144.682 280.453 145.453 280.453C146.214 280.453 146.823 280.667 147.281 281.094C147.75 281.521 147.984 282.062 147.984 282.719C147.984 283.375 147.75 283.917 147.281 284.344C146.823 284.771 146.214 284.984 145.453 284.984C144.682 284.984 144.068 284.771 143.609 284.344C143.151 283.917 142.922 283.375 142.922 282.719ZM160.578 299.359C160.578 299.036 160.484 298.745 160.297 298.484C160.109 298.224 159.76 297.984 159.25 297.766C158.75 297.536 158.026 297.328 157.078 297.141C156.224 296.953 155.427 296.719 154.688 296.438C153.958 296.146 153.323 295.797 152.781 295.391C152.25 294.984 151.833 294.505 151.531 293.953C151.229 293.391 151.078 292.75 151.078 292.031C151.078 291.323 151.229 290.656 151.531 290.031C151.844 289.406 152.286 288.854 152.859 288.375C153.443 287.885 154.151 287.505 154.984 287.234C155.828 286.953 156.776 286.812 157.828 286.812C159.297 286.812 160.557 287.047 161.609 287.516C162.672 287.984 163.484 288.63 164.047 289.453C164.62 290.266 164.906 291.193 164.906 292.234H160.406C160.406 291.797 160.312 291.406 160.125 291.062C159.948 290.708 159.667 290.432 159.281 290.234C158.906 290.026 158.417 289.922 157.812 289.922C157.312 289.922 156.88 290.01 156.516 290.188C156.151 290.354 155.87 290.583 155.672 290.875C155.484 291.156 155.391 291.469 155.391 291.812C155.391 292.073 155.443 292.307 155.547 292.516C155.661 292.714 155.844 292.896 156.094 293.062C156.344 293.229 156.667 293.385 157.062 293.531C157.469 293.667 157.969 293.792 158.562 293.906C159.781 294.156 160.87 294.484 161.828 294.891C162.786 295.286 163.547 295.828 164.109 296.516C164.672 297.193 164.953 298.083 164.953 299.188C164.953 299.938 164.786 300.625 164.453 301.25C164.12 301.875 163.641 302.422 163.016 302.891C162.391 303.349 161.641 303.708 160.766 303.969C159.901 304.219 158.927 304.344 157.844 304.344C156.271 304.344 154.938 304.062 153.844 303.5C152.76 302.938 151.938 302.224 151.375 301.359C150.823 300.484 150.547 299.589 150.547 298.672H154.812C154.833 299.286 154.99 299.781 155.281 300.156C155.583 300.531 155.964 300.802 156.422 300.969C156.891 301.135 157.396 301.219 157.938 301.219C158.521 301.219 159.005 301.141 159.391 300.984C159.776 300.818 160.068 300.599 160.266 300.328C160.474 300.047 160.578 299.724 160.578 299.359ZM176.156 287.125V290.312H166.312V287.125H176.156ZM168.75 282.953H173.25V298.938C173.25 299.427 173.312 299.802 173.438 300.062C173.573 300.323 173.771 300.505 174.031 300.609C174.292 300.703 174.62 300.75 175.016 300.75C175.297 300.75 175.547 300.74 175.766 300.719C175.995 300.688 176.188 300.656 176.344 300.625L176.359 303.938C175.974 304.062 175.557 304.161 175.109 304.234C174.661 304.307 174.167 304.344 173.625 304.344C172.635 304.344 171.771 304.182 171.031 303.859C170.302 303.526 169.74 302.995 169.344 302.266C168.948 301.536 168.75 300.578 168.75 299.391V282.953ZM187.844 300.219V292.688C187.844 292.146 187.755 291.682 187.578 291.297C187.401 290.901 187.125 290.594 186.75 290.375C186.385 290.156 185.911 290.047 185.328 290.047C184.828 290.047 184.396 290.135 184.031 290.312C183.667 290.479 183.385 290.724 183.188 291.047C182.99 291.359 182.891 291.729 182.891 292.156H178.391C178.391 291.438 178.557 290.755 178.891 290.109C179.224 289.464 179.708 288.896 180.344 288.406C180.979 287.906 181.734 287.516 182.609 287.234C183.495 286.953 184.484 286.812 185.578 286.812C186.891 286.812 188.057 287.031 189.078 287.469C190.099 287.906 190.901 288.562 191.484 289.438C192.078 290.312 192.375 291.406 192.375 292.719V299.953C192.375 300.88 192.432 301.641 192.547 302.234C192.661 302.818 192.828 303.328 193.047 303.766V304.031H188.5C188.281 303.573 188.115 303 188 302.312C187.896 301.615 187.844 300.917 187.844 300.219ZM188.438 293.734L188.469 296.281H185.953C185.359 296.281 184.844 296.349 184.406 296.484C183.969 296.62 183.609 296.812 183.328 297.062C183.047 297.302 182.839 297.583 182.703 297.906C182.578 298.229 182.516 298.583 182.516 298.969C182.516 299.354 182.604 299.703 182.781 300.016C182.958 300.318 183.214 300.557 183.547 300.734C183.88 300.901 184.271 300.984 184.719 300.984C185.396 300.984 185.984 300.849 186.484 300.578C186.984 300.307 187.37 299.974 187.641 299.578C187.922 299.182 188.068 298.807 188.078 298.453L189.266 300.359C189.099 300.786 188.87 301.229 188.578 301.688C188.297 302.146 187.938 302.578 187.5 302.984C187.062 303.38 186.536 303.708 185.922 303.969C185.307 304.219 184.578 304.344 183.734 304.344C182.661 304.344 181.688 304.13 180.812 303.703C179.948 303.266 179.26 302.667 178.75 301.906C178.25 301.135 178 300.26 178 299.281C178 298.396 178.167 297.609 178.5 296.922C178.833 296.234 179.323 295.656 179.969 295.188C180.625 294.708 181.443 294.349 182.422 294.109C183.401 293.859 184.536 293.734 185.828 293.734H188.438ZM204.062 287.125H208.578V305.047C208.578 306.297 208.349 307.354 207.891 308.219C207.432 309.083 206.771 309.74 205.906 310.188C205.042 310.635 203.995 310.859 202.766 310.859C202.38 310.859 202.005 310.839 201.641 310.797C201.266 310.755 200.88 310.688 200.484 310.594L200.5 307.141C200.75 307.182 200.995 307.214 201.234 307.234C201.464 307.266 201.698 307.281 201.938 307.281C202.406 307.281 202.797 307.203 203.109 307.047C203.422 306.891 203.656 306.646 203.812 306.312C203.979 305.99 204.062 305.568 204.062 305.047V287.125ZM203.703 282.719C203.703 282.062 203.932 281.521 204.391 281.094C204.859 280.667 205.474 280.453 206.234 280.453C207.005 280.453 207.62 280.667 208.078 281.094C208.536 281.521 208.766 282.062 208.766 282.719C208.766 283.375 208.536 283.917 208.078 284.344C207.62 284.771 207.005 284.984 206.234 284.984C205.474 284.984 204.859 284.771 204.391 284.344C203.932 283.917 203.703 283.375 203.703 282.719ZM219.938 304.344C218.625 304.344 217.448 304.135 216.406 303.719C215.365 303.292 214.479 302.703 213.75 301.953C213.031 301.203 212.479 300.333 212.094 299.344C211.708 298.344 211.516 297.281 211.516 296.156V295.531C211.516 294.25 211.698 293.078 212.062 292.016C212.427 290.953 212.948 290.031 213.625 289.25C214.312 288.469 215.146 287.87 216.125 287.453C217.104 287.026 218.208 286.812 219.438 286.812C220.635 286.812 221.698 287.01 222.625 287.406C223.552 287.802 224.328 288.365 224.953 289.094C225.589 289.823 226.068 290.698 226.391 291.719C226.714 292.729 226.875 293.854 226.875 295.094V296.969H213.438V293.969H222.453V293.625C222.453 293 222.339 292.443 222.109 291.953C221.891 291.453 221.557 291.057 221.109 290.766C220.661 290.474 220.089 290.328 219.391 290.328C218.797 290.328 218.286 290.458 217.859 290.719C217.432 290.979 217.083 291.344 216.812 291.812C216.552 292.281 216.354 292.833 216.219 293.469C216.094 294.094 216.031 294.781 216.031 295.531V296.156C216.031 296.833 216.125 297.458 216.312 298.031C216.51 298.604 216.786 299.099 217.141 299.516C217.505 299.932 217.943 300.255 218.453 300.484C218.974 300.714 219.562 300.828 220.219 300.828C221.031 300.828 221.786 300.672 222.484 300.359C223.193 300.036 223.802 299.552 224.312 298.906L226.5 301.281C226.146 301.792 225.661 302.281 225.047 302.75C224.443 303.219 223.714 303.604 222.859 303.906C222.005 304.198 221.031 304.344 219.938 304.344ZM238.578 299.359C238.578 299.036 238.484 298.745 238.297 298.484C238.109 298.224 237.76 297.984 237.25 297.766C236.75 297.536 236.026 297.328 235.078 297.141C234.224 296.953 233.427 296.719 232.688 296.438C231.958 296.146 231.323 295.797 230.781 295.391C230.25 294.984 229.833 294.505 229.531 293.953C229.229 293.391 229.078 292.75 229.078 292.031C229.078 291.323 229.229 290.656 229.531 290.031C229.844 289.406 230.286 288.854 230.859 288.375C231.443 287.885 232.151 287.505 232.984 287.234C233.828 286.953 234.776 286.812 235.828 286.812C237.297 286.812 238.557 287.047 239.609 287.516C240.672 287.984 241.484 288.63 242.047 289.453C242.62 290.266 242.906 291.193 242.906 292.234H238.406C238.406 291.797 238.312 291.406 238.125 291.062C237.948 290.708 237.667 290.432 237.281 290.234C236.906 290.026 236.417 289.922 235.812 289.922C235.312 289.922 234.88 290.01 234.516 290.188C234.151 290.354 233.87 290.583 233.672 290.875C233.484 291.156 233.391 291.469 233.391 291.812C233.391 292.073 233.443 292.307 233.547 292.516C233.661 292.714 233.844 292.896 234.094 293.062C234.344 293.229 234.667 293.385 235.062 293.531C235.469 293.667 235.969 293.792 236.562 293.906C237.781 294.156 238.87 294.484 239.828 294.891C240.786 295.286 241.547 295.828 242.109 296.516C242.672 297.193 242.953 298.083 242.953 299.188C242.953 299.938 242.786 300.625 242.453 301.25C242.12 301.875 241.641 302.422 241.016 302.891C240.391 303.349 239.641 303.708 238.766 303.969C237.901 304.219 236.927 304.344 235.844 304.344C234.271 304.344 232.938 304.062 231.844 303.5C230.76 302.938 229.938 302.224 229.375 301.359C228.823 300.484 228.547 299.589 228.547 298.672H232.812C232.833 299.286 232.99 299.781 233.281 300.156C233.583 300.531 233.964 300.802 234.422 300.969C234.891 301.135 235.396 301.219 235.938 301.219C236.521 301.219 237.005 301.141 237.391 300.984C237.776 300.818 238.068 300.599 238.266 300.328C238.474 300.047 238.578 299.724 238.578 299.359ZM254.156 287.125V290.312H244.312V287.125H254.156ZM246.75 282.953H251.25V298.938C251.25 299.427 251.312 299.802 251.438 300.062C251.573 300.323 251.771 300.505 252.031 300.609C252.292 300.703 252.62 300.75 253.016 300.75C253.297 300.75 253.547 300.74 253.766 300.719C253.995 300.688 254.188 300.656 254.344 300.625L254.359 303.938C253.974 304.062 253.557 304.161 253.109 304.234C252.661 304.307 252.167 304.344 251.625 304.344C250.635 304.344 249.771 304.182 249.031 303.859C248.302 303.526 247.74 302.995 247.344 302.266C246.948 301.536 246.75 300.578 246.75 299.391V282.953ZM269.188 290.375V310.531H264.688V287.125H268.859L269.188 290.375ZM279.891 295.391V295.719C279.891 296.948 279.745 298.089 279.453 299.141C279.172 300.193 278.755 301.109 278.203 301.891C277.651 302.661 276.964 303.266 276.141 303.703C275.328 304.13 274.391 304.344 273.328 304.344C272.297 304.344 271.401 304.135 270.641 303.719C269.88 303.302 269.24 302.719 268.719 301.969C268.208 301.208 267.797 300.328 267.484 299.328C267.172 298.328 266.932 297.255 266.766 296.109V295.25C266.932 294.021 267.172 292.896 267.484 291.875C267.797 290.844 268.208 289.953 268.719 289.203C269.24 288.443 269.875 287.854 270.625 287.438C271.385 287.021 272.276 286.812 273.297 286.812C274.37 286.812 275.312 287.016 276.125 287.422C276.948 287.828 277.635 288.411 278.188 289.172C278.75 289.932 279.172 290.839 279.453 291.891C279.745 292.943 279.891 294.109 279.891 295.391ZM275.375 295.719V295.391C275.375 294.672 275.312 294.01 275.188 293.406C275.073 292.792 274.885 292.255 274.625 291.797C274.375 291.339 274.042 290.984 273.625 290.734C273.219 290.474 272.724 290.344 272.141 290.344C271.526 290.344 271 290.443 270.562 290.641C270.135 290.839 269.786 291.125 269.516 291.5C269.245 291.875 269.042 292.323 268.906 292.844C268.771 293.365 268.688 293.953 268.656 294.609V296.781C268.708 297.552 268.854 298.245 269.094 298.859C269.333 299.464 269.703 299.943 270.203 300.297C270.703 300.651 271.359 300.828 272.172 300.828C272.766 300.828 273.266 300.698 273.672 300.438C274.078 300.167 274.406 299.797 274.656 299.328C274.917 298.859 275.099 298.318 275.203 297.703C275.318 297.089 275.375 296.427 275.375 295.719ZM292.688 299.984V287.125H297.188V304.031H292.953L292.688 299.984ZM293.188 296.516L294.516 296.484C294.516 297.609 294.385 298.656 294.125 299.625C293.865 300.583 293.474 301.417 292.953 302.125C292.432 302.823 291.776 303.37 290.984 303.766C290.193 304.151 289.26 304.344 288.188 304.344C287.365 304.344 286.604 304.229 285.906 304C285.219 303.76 284.625 303.391 284.125 302.891C283.635 302.38 283.25 301.729 282.969 300.938C282.698 300.135 282.562 299.172 282.562 298.047V287.125H287.062V298.078C287.062 298.578 287.12 299 287.234 299.344C287.359 299.688 287.531 299.969 287.75 300.188C287.969 300.406 288.224 300.562 288.516 300.656C288.818 300.75 289.151 300.797 289.516 300.797C290.443 300.797 291.172 300.609 291.703 300.234C292.245 299.859 292.625 299.349 292.844 298.703C293.073 298.047 293.188 297.318 293.188 296.516ZM309.766 299.359C309.766 299.036 309.672 298.745 309.484 298.484C309.297 298.224 308.948 297.984 308.438 297.766C307.938 297.536 307.214 297.328 306.266 297.141C305.411 296.953 304.615 296.719 303.875 296.438C303.146 296.146 302.51 295.797 301.969 295.391C301.438 294.984 301.021 294.505 300.719 293.953C300.417 293.391 300.266 292.75 300.266 292.031C300.266 291.323 300.417 290.656 300.719 290.031C301.031 289.406 301.474 288.854 302.047 288.375C302.63 287.885 303.339 287.505 304.172 287.234C305.016 286.953 305.964 286.812 307.016 286.812C308.484 286.812 309.745 287.047 310.797 287.516C311.859 287.984 312.672 288.63 313.234 289.453C313.807 290.266 314.094 291.193 314.094 292.234H309.594C309.594 291.797 309.5 291.406 309.312 291.062C309.135 290.708 308.854 290.432 308.469 290.234C308.094 290.026 307.604 289.922 307 289.922C306.5 289.922 306.068 290.01 305.703 290.188C305.339 290.354 305.057 290.583 304.859 290.875C304.672 291.156 304.578 291.469 304.578 291.812C304.578 292.073 304.63 292.307 304.734 292.516C304.849 292.714 305.031 292.896 305.281 293.062C305.531 293.229 305.854 293.385 306.25 293.531C306.656 293.667 307.156 293.792 307.75 293.906C308.969 294.156 310.057 294.484 311.016 294.891C311.974 295.286 312.734 295.828 313.297 296.516C313.859 297.193 314.141 298.083 314.141 299.188C314.141 299.938 313.974 300.625 313.641 301.25C313.307 301.875 312.828 302.422 312.203 302.891C311.578 303.349 310.828 303.708 309.953 303.969C309.089 304.219 308.115 304.344 307.031 304.344C305.458 304.344 304.125 304.062 303.031 303.5C301.948 302.938 301.125 302.224 300.562 301.359C300.01 300.484 299.734 299.589 299.734 298.672H304C304.021 299.286 304.177 299.781 304.469 300.156C304.771 300.531 305.151 300.802 305.609 300.969C306.078 301.135 306.583 301.219 307.125 301.219C307.708 301.219 308.193 301.141 308.578 300.984C308.964 300.818 309.255 300.599 309.453 300.328C309.661 300.047 309.766 299.724 309.766 299.359ZM325.344 287.125V290.312H315.5V287.125H325.344ZM317.938 282.953H322.438V298.938C322.438 299.427 322.5 299.802 322.625 300.062C322.76 300.323 322.958 300.505 323.219 300.609C323.479 300.703 323.807 300.75 324.203 300.75C324.484 300.75 324.734 300.74 324.953 300.719C325.182 300.688 325.375 300.656 325.531 300.625L325.547 303.938C325.161 304.062 324.745 304.161 324.297 304.234C323.849 304.307 323.354 304.344 322.812 304.344C321.823 304.344 320.958 304.182 320.219 303.859C319.49 303.526 318.927 302.995 318.531 302.266C318.135 301.536 317.938 300.578 317.938 299.391V282.953ZM337.031 300.219V292.688C337.031 292.146 336.943 291.682 336.766 291.297C336.589 290.901 336.312 290.594 335.938 290.375C335.573 290.156 335.099 290.047 334.516 290.047C334.016 290.047 333.583 290.135 333.219 290.312C332.854 290.479 332.573 290.724 332.375 291.047C332.177 291.359 332.078 291.729 332.078 292.156H327.578C327.578 291.438 327.745 290.755 328.078 290.109C328.411 289.464 328.896 288.896 329.531 288.406C330.167 287.906 330.922 287.516 331.797 287.234C332.682 286.953 333.672 286.812 334.766 286.812C336.078 286.812 337.245 287.031 338.266 287.469C339.286 287.906 340.089 288.562 340.672 289.438C341.266 290.312 341.562 291.406 341.562 292.719V299.953C341.562 300.88 341.62 301.641 341.734 302.234C341.849 302.818 342.016 303.328 342.234 303.766V304.031H337.688C337.469 303.573 337.302 303 337.188 302.312C337.083 301.615 337.031 300.917 337.031 300.219ZM337.625 293.734L337.656 296.281H335.141C334.547 296.281 334.031 296.349 333.594 296.484C333.156 296.62 332.797 296.812 332.516 297.062C332.234 297.302 332.026 297.583 331.891 297.906C331.766 298.229 331.703 298.583 331.703 298.969C331.703 299.354 331.792 299.703 331.969 300.016C332.146 300.318 332.401 300.557 332.734 300.734C333.068 300.901 333.458 300.984 333.906 300.984C334.583 300.984 335.172 300.849 335.672 300.578C336.172 300.307 336.557 299.974 336.828 299.578C337.109 299.182 337.255 298.807 337.266 298.453L338.453 300.359C338.286 300.786 338.057 301.229 337.766 301.688C337.484 302.146 337.125 302.578 336.688 302.984C336.25 303.38 335.724 303.708 335.109 303.969C334.495 304.219 333.766 304.344 332.922 304.344C331.849 304.344 330.875 304.13 330 303.703C329.135 303.266 328.448 302.667 327.938 301.906C327.438 301.135 327.188 300.26 327.188 299.281C327.188 298.396 327.354 297.609 327.688 296.922C328.021 296.234 328.51 295.656 329.156 295.188C329.812 294.708 330.63 294.349 331.609 294.109C332.589 293.859 333.724 293.734 335.016 293.734H337.625Z" fill="#6366F1"/>
<path d="M89.2715 340.031H86.1758L86.1953 337.746H89.2715C90.0397 337.746 90.6875 337.574 91.2148 337.229C91.7422 336.877 92.1393 336.366 92.4062 335.695C92.6797 335.025 92.8164 334.214 92.8164 333.264V332.57C92.8164 331.841 92.7383 331.2 92.582 330.646C92.4323 330.093 92.2077 329.628 91.9082 329.25C91.6087 328.872 91.2409 328.589 90.8047 328.4C90.3685 328.205 89.8672 328.107 89.3008 328.107H86.1172V325.812H89.3008C90.2513 325.812 91.1204 325.975 91.9082 326.301C92.7025 326.62 93.3893 327.079 93.9688 327.678C94.5482 328.277 94.9941 328.993 95.3066 329.826C95.6257 330.653 95.7852 331.574 95.7852 332.59V333.264C95.7852 334.273 95.6257 335.194 95.3066 336.027C94.9941 336.861 94.5482 337.577 93.9688 338.176C93.3958 338.768 92.709 339.227 91.9082 339.553C91.1139 339.872 90.235 340.031 89.2715 340.031ZM87.8359 325.812V340.031H84.9062V325.812H87.8359ZM97.2891 334.855V334.65C97.2891 333.876 97.3997 333.163 97.6211 332.512C97.8424 331.854 98.1647 331.285 98.5879 330.803C99.0111 330.321 99.5319 329.947 100.15 329.68C100.769 329.406 101.479 329.27 102.279 329.27C103.08 329.27 103.793 329.406 104.418 329.68C105.043 329.947 105.567 330.321 105.99 330.803C106.42 331.285 106.745 331.854 106.967 332.512C107.188 333.163 107.299 333.876 107.299 334.65V334.855C107.299 335.624 107.188 336.337 106.967 336.994C106.745 337.645 106.42 338.215 105.99 338.703C105.567 339.185 105.046 339.559 104.428 339.826C103.809 340.093 103.1 340.227 102.299 340.227C101.498 340.227 100.785 340.093 100.16 339.826C99.5417 339.559 99.0176 339.185 98.5879 338.703C98.1647 338.215 97.8424 337.645 97.6211 336.994C97.3997 336.337 97.2891 335.624 97.2891 334.855ZM100.102 334.65V334.855C100.102 335.298 100.141 335.712 100.219 336.096C100.297 336.48 100.421 336.818 100.59 337.111C100.766 337.398 100.993 337.622 101.273 337.785C101.553 337.948 101.895 338.029 102.299 338.029C102.689 338.029 103.025 337.948 103.305 337.785C103.585 337.622 103.809 337.398 103.979 337.111C104.148 336.818 104.271 336.48 104.35 336.096C104.434 335.712 104.477 335.298 104.477 334.855V334.65C104.477 334.221 104.434 333.817 104.35 333.439C104.271 333.055 104.145 332.717 103.969 332.424C103.799 332.124 103.575 331.89 103.295 331.721C103.015 331.551 102.676 331.467 102.279 331.467C101.882 331.467 101.544 331.551 101.264 331.721C100.99 331.89 100.766 332.124 100.59 332.424C100.421 332.717 100.297 333.055 100.219 333.439C100.141 333.817 100.102 334.221 100.102 334.65ZM115.268 337.727V325.031H118.1V340.031H115.551L115.268 337.727ZM108.588 334.875V334.67C108.588 333.863 108.679 333.13 108.861 332.473C109.044 331.809 109.311 331.239 109.662 330.764C110.014 330.288 110.447 329.921 110.961 329.66C111.475 329.4 112.061 329.27 112.719 329.27C113.337 329.27 113.878 329.4 114.34 329.66C114.809 329.921 115.206 330.292 115.531 330.773C115.863 331.249 116.13 331.812 116.332 332.463C116.534 333.107 116.68 333.814 116.771 334.582V335.031C116.68 335.767 116.534 336.451 116.332 337.082C116.13 337.714 115.863 338.267 115.531 338.742C115.206 339.211 114.809 339.576 114.34 339.836C113.871 340.096 113.324 340.227 112.699 340.227C112.042 340.227 111.456 340.093 110.941 339.826C110.434 339.559 110.004 339.185 109.652 338.703C109.307 338.221 109.044 337.655 108.861 337.004C108.679 336.353 108.588 335.643 108.588 334.875ZM111.4 334.67V334.875C111.4 335.311 111.433 335.718 111.498 336.096C111.57 336.473 111.684 336.809 111.84 337.102C112.003 337.388 112.211 337.613 112.465 337.775C112.725 337.932 113.041 338.01 113.412 338.01C113.894 338.01 114.291 337.902 114.604 337.688C114.916 337.466 115.154 337.163 115.316 336.779C115.486 336.395 115.583 335.952 115.609 335.451V334.172C115.59 333.762 115.531 333.394 115.434 333.068C115.342 332.736 115.206 332.453 115.023 332.219C114.848 331.984 114.626 331.802 114.359 331.672C114.099 331.542 113.79 331.477 113.432 331.477C113.067 331.477 112.755 331.561 112.494 331.73C112.234 331.893 112.022 332.118 111.859 332.404C111.703 332.691 111.586 333.029 111.508 333.42C111.436 333.804 111.4 334.221 111.4 334.67ZM126 337.648V332.941C126 332.603 125.945 332.313 125.834 332.072C125.723 331.825 125.551 331.633 125.316 331.496C125.089 331.359 124.792 331.291 124.428 331.291C124.115 331.291 123.845 331.346 123.617 331.457C123.389 331.561 123.214 331.714 123.09 331.916C122.966 332.111 122.904 332.342 122.904 332.609H120.092C120.092 332.16 120.196 331.734 120.404 331.33C120.613 330.926 120.915 330.572 121.312 330.266C121.71 329.953 122.182 329.709 122.729 329.533C123.282 329.357 123.9 329.27 124.584 329.27C125.404 329.27 126.133 329.406 126.771 329.68C127.41 329.953 127.911 330.363 128.275 330.91C128.646 331.457 128.832 332.141 128.832 332.961V337.482C128.832 338.062 128.868 338.537 128.939 338.908C129.011 339.273 129.115 339.592 129.252 339.865V340.031H126.41C126.273 339.745 126.169 339.387 126.098 338.957C126.033 338.521 126 338.085 126 337.648ZM126.371 333.596L126.391 335.188H124.818C124.447 335.188 124.125 335.23 123.852 335.314C123.578 335.399 123.354 335.52 123.178 335.676C123.002 335.826 122.872 336.001 122.787 336.203C122.709 336.405 122.67 336.626 122.67 336.867C122.67 337.108 122.725 337.326 122.836 337.521C122.947 337.71 123.106 337.86 123.314 337.971C123.523 338.075 123.767 338.127 124.047 338.127C124.47 338.127 124.838 338.042 125.15 337.873C125.463 337.704 125.704 337.495 125.873 337.248C126.049 337.001 126.14 336.766 126.146 336.545L126.889 337.736C126.785 338.003 126.641 338.28 126.459 338.566C126.283 338.853 126.059 339.123 125.785 339.377C125.512 339.624 125.183 339.829 124.799 339.992C124.415 340.148 123.959 340.227 123.432 340.227C122.761 340.227 122.152 340.093 121.605 339.826C121.065 339.553 120.635 339.178 120.316 338.703C120.004 338.221 119.848 337.674 119.848 337.062C119.848 336.509 119.952 336.018 120.16 335.588C120.368 335.158 120.674 334.797 121.078 334.504C121.488 334.204 121.999 333.98 122.611 333.83C123.223 333.674 123.933 333.596 124.74 333.596H126.371ZM131.156 329.465H133.979V340.666C133.979 341.447 133.835 342.108 133.549 342.648C133.262 343.189 132.849 343.599 132.309 343.879C131.768 344.159 131.114 344.299 130.346 344.299C130.105 344.299 129.87 344.286 129.643 344.26C129.408 344.234 129.167 344.191 128.92 344.133L128.93 341.975C129.086 342.001 129.239 342.02 129.389 342.033C129.532 342.053 129.678 342.062 129.828 342.062C130.121 342.062 130.365 342.014 130.561 341.916C130.756 341.818 130.902 341.665 131 341.457C131.104 341.255 131.156 340.992 131.156 340.666V329.465ZM130.932 326.711C130.932 326.301 131.075 325.962 131.361 325.695C131.654 325.428 132.038 325.295 132.514 325.295C132.995 325.295 133.38 325.428 133.666 325.695C133.952 325.962 134.096 326.301 134.096 326.711C134.096 327.121 133.952 327.46 133.666 327.727C133.38 327.993 132.995 328.127 132.514 328.127C132.038 328.127 131.654 327.993 131.361 327.727C131.075 327.46 130.932 327.121 130.932 326.711ZM146.908 337.111C146.908 336.91 146.85 336.727 146.732 336.564C146.615 336.402 146.397 336.252 146.078 336.115C145.766 335.972 145.313 335.842 144.721 335.725C144.187 335.607 143.689 335.461 143.227 335.285C142.771 335.103 142.374 334.885 142.035 334.631C141.703 334.377 141.443 334.077 141.254 333.732C141.065 333.381 140.971 332.98 140.971 332.531C140.971 332.089 141.065 331.672 141.254 331.281C141.449 330.891 141.726 330.546 142.084 330.246C142.449 329.94 142.891 329.702 143.412 329.533C143.939 329.357 144.532 329.27 145.189 329.27C146.107 329.27 146.895 329.416 147.553 329.709C148.217 330.002 148.725 330.406 149.076 330.92C149.434 331.428 149.613 332.007 149.613 332.658H146.801C146.801 332.385 146.742 332.141 146.625 331.926C146.514 331.704 146.339 331.532 146.098 331.408C145.863 331.278 145.557 331.213 145.18 331.213C144.867 331.213 144.597 331.268 144.369 331.379C144.141 331.483 143.965 331.626 143.842 331.809C143.725 331.984 143.666 332.18 143.666 332.395C143.666 332.557 143.699 332.704 143.764 332.834C143.835 332.958 143.949 333.072 144.105 333.176C144.262 333.28 144.464 333.378 144.711 333.469C144.965 333.553 145.277 333.632 145.648 333.703C146.41 333.859 147.09 334.064 147.689 334.318C148.288 334.566 148.764 334.904 149.115 335.334C149.467 335.757 149.643 336.314 149.643 337.004C149.643 337.473 149.538 337.902 149.33 338.293C149.122 338.684 148.822 339.025 148.432 339.318C148.041 339.605 147.572 339.829 147.025 339.992C146.485 340.148 145.876 340.227 145.199 340.227C144.216 340.227 143.383 340.051 142.699 339.699C142.022 339.348 141.508 338.902 141.156 338.361C140.811 337.814 140.639 337.255 140.639 336.682H143.305C143.318 337.066 143.415 337.375 143.598 337.609C143.786 337.844 144.024 338.013 144.311 338.117C144.604 338.221 144.919 338.273 145.258 338.273C145.622 338.273 145.925 338.225 146.166 338.127C146.407 338.023 146.589 337.886 146.713 337.717C146.843 337.541 146.908 337.339 146.908 337.111ZM154.486 337.297L156.684 329.465H158.471L157.895 332.541L155.697 340.031H154.203L154.486 337.297ZM153.373 329.465L154.945 337.287L155.092 340.031H153.334L150.658 329.465H153.373ZM160.482 337.16L162.016 329.465H164.74L162.064 340.031H160.316L160.482 337.16ZM158.715 329.465L160.902 337.238L161.205 340.031H159.701L157.504 332.551L156.947 329.465H158.715ZM165.707 334.855V334.65C165.707 333.876 165.818 333.163 166.039 332.512C166.26 331.854 166.583 331.285 167.006 330.803C167.429 330.321 167.95 329.947 168.568 329.68C169.187 329.406 169.896 329.27 170.697 329.27C171.498 329.27 172.211 329.406 172.836 329.68C173.461 329.947 173.985 330.321 174.408 330.803C174.838 331.285 175.163 331.854 175.385 332.512C175.606 333.163 175.717 333.876 175.717 334.65V334.855C175.717 335.624 175.606 336.337 175.385 336.994C175.163 337.645 174.838 338.215 174.408 338.703C173.985 339.185 173.464 339.559 172.846 339.826C172.227 340.093 171.518 340.227 170.717 340.227C169.916 340.227 169.203 340.093 168.578 339.826C167.96 339.559 167.436 339.185 167.006 338.703C166.583 338.215 166.26 337.645 166.039 336.994C165.818 336.337 165.707 335.624 165.707 334.855ZM168.52 334.65V334.855C168.52 335.298 168.559 335.712 168.637 336.096C168.715 336.48 168.839 336.818 169.008 337.111C169.184 337.398 169.411 337.622 169.691 337.785C169.971 337.948 170.313 338.029 170.717 338.029C171.107 338.029 171.443 337.948 171.723 337.785C172.003 337.622 172.227 337.398 172.396 337.111C172.566 336.818 172.689 336.48 172.768 336.096C172.852 335.712 172.895 335.298 172.895 334.855V334.65C172.895 334.221 172.852 333.817 172.768 333.439C172.689 333.055 172.562 332.717 172.387 332.424C172.217 332.124 171.993 331.89 171.713 331.721C171.433 331.551 171.094 331.467 170.697 331.467C170.3 331.467 169.962 331.551 169.682 331.721C169.408 331.89 169.184 332.124 169.008 332.424C168.839 332.717 168.715 333.055 168.637 333.439C168.559 333.817 168.52 334.221 168.52 334.65ZM169.35 328.039L171.264 325.031H174.32L171.635 328.039H169.35ZM177.602 329.465H180.424V340.666C180.424 341.447 180.281 342.108 179.994 342.648C179.708 343.189 179.294 343.599 178.754 343.879C178.214 344.159 177.559 344.299 176.791 344.299C176.55 344.299 176.316 344.286 176.088 344.26C175.854 344.234 175.613 344.191 175.365 344.133L175.375 341.975C175.531 342.001 175.684 342.02 175.834 342.033C175.977 342.053 176.124 342.062 176.273 342.062C176.566 342.062 176.811 342.014 177.006 341.916C177.201 341.818 177.348 341.665 177.445 341.457C177.549 341.255 177.602 340.992 177.602 340.666V329.465ZM177.377 326.711C177.377 326.301 177.52 325.962 177.807 325.695C178.1 325.428 178.484 325.295 178.959 325.295C179.441 325.295 179.825 325.428 180.111 325.695C180.398 325.962 180.541 326.301 180.541 326.711C180.541 327.121 180.398 327.46 180.111 327.727C179.825 327.993 179.441 328.127 178.959 328.127C178.484 328.127 178.1 327.993 177.807 327.727C177.52 327.46 177.377 327.121 177.377 326.711ZM190.453 331.496V344.094H187.641V329.465H190.248L190.453 331.496ZM197.143 334.631V334.836C197.143 335.604 197.051 336.317 196.869 336.975C196.693 337.632 196.433 338.205 196.088 338.693C195.743 339.175 195.313 339.553 194.799 339.826C194.291 340.093 193.705 340.227 193.041 340.227C192.396 340.227 191.837 340.096 191.361 339.836C190.886 339.576 190.486 339.211 190.16 338.742C189.841 338.267 189.584 337.717 189.389 337.092C189.193 336.467 189.044 335.796 188.939 335.08V334.543C189.044 333.775 189.193 333.072 189.389 332.434C189.584 331.789 189.841 331.232 190.16 330.764C190.486 330.288 190.883 329.921 191.352 329.66C191.827 329.4 192.383 329.27 193.021 329.27C193.692 329.27 194.281 329.396 194.789 329.65C195.303 329.904 195.733 330.269 196.078 330.744C196.43 331.219 196.693 331.786 196.869 332.443C197.051 333.101 197.143 333.83 197.143 334.631ZM194.32 334.836V334.631C194.32 334.182 194.281 333.768 194.203 333.391C194.132 333.007 194.014 332.671 193.852 332.385C193.695 332.098 193.487 331.877 193.227 331.721C192.973 331.558 192.663 331.477 192.299 331.477C191.915 331.477 191.586 331.538 191.312 331.662C191.046 331.786 190.827 331.965 190.658 332.199C190.489 332.434 190.362 332.714 190.277 333.039C190.193 333.365 190.141 333.732 190.121 334.143V335.5C190.154 335.982 190.245 336.415 190.395 336.799C190.544 337.176 190.775 337.476 191.088 337.697C191.4 337.919 191.811 338.029 192.318 338.029C192.689 338.029 193.002 337.948 193.256 337.785C193.51 337.616 193.715 337.385 193.871 337.092C194.034 336.799 194.148 336.46 194.213 336.076C194.285 335.692 194.32 335.279 194.32 334.836ZM201.859 329.465V340.031H199.037V329.465H201.859ZM198.861 326.711C198.861 326.301 199.005 325.962 199.291 325.695C199.577 325.428 199.962 325.295 200.443 325.295C200.919 325.295 201.299 325.428 201.586 325.695C201.879 325.962 202.025 326.301 202.025 326.711C202.025 327.121 201.879 327.46 201.586 327.727C201.299 327.993 200.919 328.127 200.443 328.127C199.962 328.127 199.577 327.993 199.291 327.727C199.005 327.46 198.861 327.121 198.861 326.711ZM209.047 340.227C208.227 340.227 207.491 340.096 206.84 339.836C206.189 339.569 205.635 339.201 205.18 338.732C204.73 338.264 204.385 337.72 204.145 337.102C203.904 336.477 203.783 335.812 203.783 335.109V334.719C203.783 333.918 203.897 333.186 204.125 332.521C204.353 331.857 204.678 331.281 205.102 330.793C205.531 330.305 206.052 329.93 206.664 329.67C207.276 329.403 207.966 329.27 208.734 329.27C209.483 329.27 210.147 329.393 210.727 329.641C211.306 329.888 211.791 330.24 212.182 330.695C212.579 331.151 212.878 331.698 213.08 332.336C213.282 332.967 213.383 333.671 213.383 334.445V335.617H204.984V333.742H210.619V333.527C210.619 333.137 210.548 332.788 210.404 332.482C210.268 332.17 210.059 331.923 209.779 331.74C209.499 331.558 209.141 331.467 208.705 331.467C208.334 331.467 208.015 331.548 207.748 331.711C207.481 331.874 207.263 332.102 207.094 332.395C206.931 332.688 206.807 333.033 206.723 333.43C206.645 333.82 206.605 334.25 206.605 334.719V335.109C206.605 335.533 206.664 335.923 206.781 336.281C206.905 336.639 207.077 336.949 207.299 337.209C207.527 337.469 207.8 337.671 208.119 337.814C208.445 337.958 208.812 338.029 209.223 338.029C209.73 338.029 210.202 337.932 210.639 337.736C211.081 337.535 211.462 337.232 211.781 336.828L213.148 338.312C212.927 338.632 212.624 338.938 212.24 339.23C211.863 339.523 211.407 339.764 210.873 339.953C210.339 340.135 209.73 340.227 209.047 340.227ZM217.797 331.77V340.031H214.984V329.465H217.631L217.797 331.77ZM220.98 329.396L220.932 332.004C220.795 331.984 220.629 331.968 220.434 331.955C220.245 331.936 220.072 331.926 219.916 331.926C219.519 331.926 219.174 331.978 218.881 332.082C218.594 332.18 218.354 332.326 218.158 332.521C217.969 332.717 217.826 332.954 217.729 333.234C217.637 333.514 217.585 333.833 217.572 334.191L217.006 334.016C217.006 333.332 217.074 332.704 217.211 332.131C217.348 331.551 217.546 331.047 217.807 330.617C218.074 330.188 218.399 329.855 218.783 329.621C219.167 329.387 219.607 329.27 220.102 329.27C220.258 329.27 220.417 329.283 220.58 329.309C220.743 329.328 220.876 329.357 220.98 329.396ZM225.502 337.297L227.699 329.465H229.486L228.91 332.541L226.713 340.031H225.219L225.502 337.297ZM224.389 329.465L225.961 337.287L226.107 340.031H224.35L221.674 329.465H224.389ZM231.498 337.16L233.031 329.465H235.756L233.08 340.031H231.332L231.498 337.16ZM229.73 329.465L231.918 337.238L232.221 340.031H230.717L228.52 332.551L227.963 329.465H229.73ZM242.885 337.111C242.885 336.91 242.826 336.727 242.709 336.564C242.592 336.402 242.374 336.252 242.055 336.115C241.742 335.972 241.29 335.842 240.697 335.725C240.163 335.607 239.665 335.461 239.203 335.285C238.747 335.103 238.35 334.885 238.012 334.631C237.68 334.377 237.419 334.077 237.23 333.732C237.042 333.381 236.947 332.98 236.947 332.531C236.947 332.089 237.042 331.672 237.23 331.281C237.426 330.891 237.702 330.546 238.061 330.246C238.425 329.94 238.868 329.702 239.389 329.533C239.916 329.357 240.508 329.27 241.166 329.27C242.084 329.27 242.872 329.416 243.529 329.709C244.193 330.002 244.701 330.406 245.053 330.92C245.411 331.428 245.59 332.007 245.59 332.658H242.777C242.777 332.385 242.719 332.141 242.602 331.926C242.491 331.704 242.315 331.532 242.074 331.408C241.84 331.278 241.534 331.213 241.156 331.213C240.844 331.213 240.574 331.268 240.346 331.379C240.118 331.483 239.942 331.626 239.818 331.809C239.701 331.984 239.643 332.18 239.643 332.395C239.643 332.557 239.675 332.704 239.74 332.834C239.812 332.958 239.926 333.072 240.082 333.176C240.238 333.28 240.44 333.378 240.688 333.469C240.941 333.553 241.254 333.632 241.625 333.703C242.387 333.859 243.067 334.064 243.666 334.318C244.265 334.566 244.74 334.904 245.092 335.334C245.443 335.757 245.619 336.314 245.619 337.004C245.619 337.473 245.515 337.902 245.307 338.293C245.098 338.684 244.799 339.025 244.408 339.318C244.018 339.605 243.549 339.829 243.002 339.992C242.462 340.148 241.853 340.227 241.176 340.227C240.193 340.227 239.359 340.051 238.676 339.699C237.999 339.348 237.484 338.902 237.133 338.361C236.788 337.814 236.615 337.255 236.615 336.682H239.281C239.294 337.066 239.392 337.375 239.574 337.609C239.763 337.844 240.001 338.013 240.287 338.117C240.58 338.221 240.896 338.273 241.234 338.273C241.599 338.273 241.902 338.225 242.143 338.127C242.383 338.023 242.566 337.886 242.689 337.717C242.82 337.541 242.885 337.339 242.885 337.111ZM255.854 337.834V340.031H247.826V337.834H255.854ZM255.697 331.086L248.959 340.031H247.074V338.361L253.783 329.465H255.697V331.086ZM254.701 329.465V331.672H247.23V329.465H254.701ZM260.756 338.84L263.559 329.465H266.576L262.328 341.623C262.237 341.89 262.113 342.176 261.957 342.482C261.807 342.788 261.602 343.078 261.342 343.352C261.088 343.632 260.766 343.859 260.375 344.035C259.991 344.211 259.519 344.299 258.959 344.299C258.692 344.299 258.474 344.283 258.305 344.25C258.135 344.217 257.934 344.172 257.699 344.113V342.053C257.771 342.053 257.846 342.053 257.924 342.053C258.002 342.059 258.077 342.062 258.148 342.062C258.52 342.062 258.822 342.02 259.057 341.936C259.291 341.851 259.48 341.721 259.623 341.545C259.766 341.376 259.88 341.154 259.965 340.881L260.756 338.84ZM259.584 329.465L261.879 337.121L262.279 340.1L260.365 340.305L256.566 329.465H259.584ZM275.648 325.031V340.031H272.826V325.031H275.648ZM282.836 340.227C282.016 340.227 281.28 340.096 280.629 339.836C279.978 339.569 279.424 339.201 278.969 338.732C278.52 338.264 278.174 337.72 277.934 337.102C277.693 336.477 277.572 335.812 277.572 335.109V334.719C277.572 333.918 277.686 333.186 277.914 332.521C278.142 331.857 278.467 331.281 278.891 330.793C279.32 330.305 279.841 329.93 280.453 329.67C281.065 329.403 281.755 329.27 282.523 329.27C283.272 329.27 283.936 329.393 284.516 329.641C285.095 329.888 285.58 330.24 285.971 330.695C286.368 331.151 286.667 331.698 286.869 332.336C287.071 332.967 287.172 333.671 287.172 334.445V335.617H278.773V333.742H284.408V333.527C284.408 333.137 284.337 332.788 284.193 332.482C284.057 332.17 283.848 331.923 283.568 331.74C283.288 331.558 282.93 331.467 282.494 331.467C282.123 331.467 281.804 331.548 281.537 331.711C281.27 331.874 281.052 332.102 280.883 332.395C280.72 332.688 280.596 333.033 280.512 333.43C280.434 333.82 280.395 334.25 280.395 334.719V335.109C280.395 335.533 280.453 335.923 280.57 336.281C280.694 336.639 280.867 336.949 281.088 337.209C281.316 337.469 281.589 337.671 281.908 337.814C282.234 337.958 282.602 338.029 283.012 338.029C283.52 338.029 283.992 337.932 284.428 337.736C284.87 337.535 285.251 337.232 285.57 336.828L286.938 338.312C286.716 338.632 286.413 338.938 286.029 339.23C285.652 339.523 285.196 339.764 284.662 339.953C284.128 340.135 283.52 340.227 282.836 340.227ZM291.586 325.021V340.031H288.773V325.021H291.586ZM298.246 329.465L293.656 334.699L291.195 337.189L290.17 335.158L292.123 332.678L294.867 329.465H298.246ZM295.326 340.031L292.201 335.148L294.145 333.449L298.568 340.031H295.326Z" fill="#6366F1"/>
<defs>
<clipPath id="clip0_9700_6455">
<rect width="250" height="244.031" fill="white" transform="translate(66)"/>
</clipPath>
</defs>
</svg>
