<svg width="400" height="308" viewBox="0 0 400 308" fill="none" xmlns="http://www.w3.org/2000/svg">
<g clip-path="url(#clip0_9700_9887)">
<path opacity="0.1" d="M183.291 271.717C275.096 271.717 349.518 265.939 349.518 258.81C349.518 251.682 275.096 245.903 183.291 245.903C91.4867 245.903 17.0645 251.682 17.0645 258.81C17.0645 265.939 91.4867 271.717 183.291 271.717Z" fill="#6C63FF"/>
<g opacity="0.1">
<path d="M330.517 185.264C329.523 182.249 325.495 180.86 321.521 182.167C320.948 182.353 320.394 182.593 319.866 182.883C319.612 182.812 319.35 182.75 319.084 182.703C319.301 181.835 319.384 180.94 319.331 180.047C320.701 179.13 321.813 177.876 322.56 176.405C323.306 174.935 323.662 173.297 323.594 171.649C324.961 170.73 326.069 169.475 326.813 168.005C327.556 166.535 327.911 164.898 327.841 163.252C329.219 162.344 330.33 161.086 331.06 159.607C332.977 155.813 332.183 151.55 329.285 150.083C326.386 148.616 322.479 150.505 320.563 154.299C319.803 155.764 319.448 157.404 319.534 159.051C318.167 159.971 317.059 161.226 316.315 162.696C315.571 164.166 315.217 165.803 315.286 167.449C313.919 168.369 312.811 169.623 312.067 171.094C311.324 172.564 310.97 174.2 311.039 175.846C309.669 176.765 308.557 178.019 307.811 179.49C307.064 180.961 306.708 182.599 306.776 184.248C305.398 185.155 304.287 186.414 303.557 187.893C303.196 188.606 302.923 189.36 302.743 190.138C302.263 189.436 301.677 188.812 301.007 188.288C300.93 187.69 300.799 187.101 300.615 186.528C299.309 182.55 295.805 180.125 292.793 181.119C289.781 182.112 288.389 186.137 289.695 190.114C290.23 191.82 291.259 193.328 292.652 194.448C292.729 195.045 292.86 195.634 293.043 196.208C293.802 198.516 295.3 200.299 297.013 201.195C296.861 201.693 296.753 202.203 296.689 202.72C295.073 204.274 294.034 206.33 293.74 208.552C292.123 210.106 291.083 212.164 290.79 214.387C289.99 215.156 289.328 216.057 288.835 217.051C286.914 220.845 287.708 225.112 290.607 226.575C293.505 228.037 297.412 226.156 299.333 222.358C299.839 221.368 300.17 220.298 300.31 219.194C301.926 217.641 302.965 215.584 303.259 213.363C304.876 211.808 305.916 209.75 306.208 207.527C307.813 205.97 308.84 203.913 309.122 201.695C310.745 200.141 311.788 198.08 312.079 195.852C312.577 195.38 313.021 194.856 313.405 194.288C315.003 194.616 316.66 194.512 318.204 193.986C318.777 193.8 319.331 193.56 319.859 193.271C321.589 193.727 323.415 193.662 325.107 193.083C329.07 191.788 331.506 188.284 330.517 185.264Z" fill="#3F3D56"/>
<g opacity="0.1">
<path d="M323.505 173.374C323.095 173.778 322.644 174.138 322.16 174.45C322.221 175.566 322.074 176.684 321.726 177.747C322.033 177.321 322.308 176.873 322.547 176.405C323.032 175.455 323.356 174.431 323.505 173.374Z" fill="black"/>
<path d="M327.752 164.977C327.342 165.38 326.891 165.741 326.407 166.052C326.468 167.169 326.321 168.287 325.973 169.349C326.281 168.923 326.556 168.473 326.794 168.004C327.277 167.054 327.601 166.031 327.752 164.977Z" fill="black"/>
<path d="M318.119 161.852C318.083 161.276 318.106 160.698 318.186 160.127C317.426 160.876 316.795 161.744 316.316 162.697C316.08 163.167 315.881 163.654 315.722 164.156C316.369 163.244 317.182 162.462 318.119 161.852Z" fill="black"/>
<path d="M291.159 212.671C291.501 212.194 291.887 211.752 292.313 211.349C292.38 210.818 292.493 210.294 292.653 209.784C292.313 210.241 292.013 210.726 291.758 211.235C291.521 211.697 291.321 212.177 291.159 212.671Z" fill="black"/>
<path d="M294.108 206.842C294.45 206.366 294.836 205.923 295.262 205.52C295.326 205.004 295.435 204.493 295.587 203.995C295.262 204.439 294.974 204.908 294.726 205.399C294.485 205.864 294.278 206.347 294.108 206.842Z" fill="black"/>
<path d="M319.253 181.772C318.845 182.176 318.395 182.535 317.911 182.844C317.965 183.736 317.882 184.632 317.665 185.5C317.929 185.545 318.19 185.605 318.447 185.679C318.975 185.39 319.529 185.15 320.102 184.964C324.083 183.657 328.108 185.046 329.098 188.061C329.343 188.819 329.386 189.628 329.223 190.408C330.533 188.867 331.077 186.99 330.513 185.269C329.52 182.253 325.491 180.865 321.518 182.171C320.945 182.358 320.391 182.597 319.863 182.887C319.609 182.816 319.347 182.754 319.081 182.707C319.155 182.394 319.21 182.085 319.253 181.772Z" fill="black"/>
<path d="M289.704 215.6C289.364 216.056 289.064 216.542 288.808 217.051C288.571 217.522 288.369 218.011 288.206 218.513C288.555 218.035 288.948 217.59 289.379 217.184C289.44 216.647 289.548 216.117 289.704 215.6Z" fill="black"/>
<path d="M313.852 170.249C313.816 169.674 313.838 169.096 313.918 168.524C313.159 169.273 312.527 170.141 312.049 171.094C311.812 171.564 311.614 172.052 311.454 172.553C312.101 171.641 312.915 170.86 313.852 170.249Z" fill="black"/>
<path d="M307.715 204.496C307.638 205.078 307.507 205.651 307.324 206.209C307.63 205.782 307.903 205.332 308.142 204.863C308.398 204.361 308.611 203.837 308.779 203.299C308.459 203.727 308.103 204.127 307.715 204.496Z" fill="black"/>
<path d="M301.817 216.159C301.74 216.741 301.609 217.314 301.426 217.872C301.734 217.446 302.009 216.996 302.247 216.526C302.502 216.023 302.715 215.5 302.885 214.962C302.564 215.391 302.207 215.792 301.817 216.159Z" fill="black"/>
<path d="M304.766 210.324C304.689 210.906 304.558 211.479 304.375 212.037C304.687 211.618 304.966 211.176 305.212 210.715C305.468 210.212 305.682 209.689 305.85 209.15C305.522 209.571 305.16 209.964 304.766 210.324Z" fill="black"/>
<path d="M310.665 198.665C310.588 199.245 310.457 199.818 310.273 200.374C310.58 199.949 310.854 199.5 311.091 199.032C311.35 198.521 311.565 197.989 311.732 197.44C311.414 197.88 311.056 198.289 310.665 198.665Z" fill="black"/>
<path d="M291.355 183.915C294.374 182.925 297.879 185.346 299.177 189.324C299.361 189.899 299.491 190.489 299.569 191.088C300.239 191.612 300.825 192.236 301.305 192.938C301.485 192.158 301.758 191.403 302.119 190.689C302.256 190.423 302.404 190.169 302.557 189.907C302.113 189.292 301.586 188.742 300.992 188.272C300.916 187.674 300.785 187.085 300.601 186.512C299.295 182.534 295.79 180.109 292.779 181.103C291.058 181.666 289.869 183.218 289.407 185.182C289.937 184.599 290.607 184.162 291.355 183.915Z" fill="black"/>
<path d="M305.357 187.044C305.322 186.47 305.346 185.893 305.427 185.323C304.665 186.071 304.032 186.939 303.553 187.893C303.317 188.361 303.118 188.848 302.959 189.348C303.608 188.438 304.421 187.656 305.357 187.044Z" fill="black"/>
<path d="M309.605 178.643C309.57 178.068 309.594 177.492 309.675 176.922C308.912 177.667 308.279 178.534 307.802 179.488C307.565 179.958 307.367 180.445 307.207 180.947C307.854 180.035 308.668 179.253 309.605 178.643Z" fill="black"/>
<path d="M298.868 221.991C298.791 222.574 298.66 223.149 298.477 223.708C299.119 222.817 299.612 221.828 299.935 220.778C299.616 221.213 299.258 221.619 298.868 221.991Z" fill="black"/>
</g>
<path d="M336.314 146.457C337.692 145.55 338.804 144.292 339.533 142.812C341.453 139.018 340.659 134.751 337.761 133.284C334.863 131.817 330.955 133.707 329.035 137.504C328.274 138.972 327.92 140.617 328.01 142.268C326.643 143.188 325.535 144.443 324.791 145.913C324.048 147.383 323.693 149.02 323.763 150.666C322.383 151.571 321.272 152.83 320.544 154.311C320.308 154.775 320.111 155.258 319.953 155.754C320.974 154.276 322.455 153.176 324.166 152.625C324.36 153.228 324.673 153.785 325.084 154.266C325.496 154.747 325.999 155.142 326.564 155.427C327.13 155.712 327.746 155.882 328.377 155.928C329.009 155.973 329.643 155.893 330.244 155.692C330.821 157.392 330.821 159.236 330.244 160.936C330.549 160.515 330.821 160.07 331.057 159.607C331.816 158.142 332.169 156.502 332.082 154.855C333.45 153.936 334.56 152.682 335.304 151.211C336.048 149.741 336.401 148.104 336.329 146.457H336.314Z" fill="#3F3D56"/>
<path d="M382.998 92.6229C384.177 92.0727 385.317 91.4415 386.408 90.7337L373.764 81.4955L388.626 89.1497C391.633 86.7612 394.12 83.784 395.936 80.4004C397.752 77.0169 398.858 73.2983 399.186 69.4724L373.928 69.7305L399.241 65.4986C398.979 61.6689 397.938 57.9331 396.179 54.5208C394.421 51.1084 391.984 48.0915 389.018 45.6554C386.051 43.2193 382.618 41.4154 378.929 40.3546C375.239 39.2937 371.372 38.9983 367.565 39.4864C363.757 39.9746 360.09 41.236 356.788 43.1932C353.485 45.1504 350.618 47.7621 348.362 50.8678C346.106 53.9735 344.509 57.5076 343.668 61.2531C342.828 64.9986 342.762 68.8764 343.475 72.6483C341.639 73.502 339.9 74.5511 338.289 75.7773L351.489 94.1326L335.641 78.0653C332.296 81.3496 329.823 85.4161 328.446 89.8967C327.068 94.3774 326.83 99.1308 327.752 103.727C322.964 105.961 318.902 109.498 316.029 113.932C313.156 118.366 311.589 123.519 311.505 128.801C311.422 134.084 312.827 139.284 315.559 143.806C318.291 148.328 322.24 151.991 326.955 154.375C331.669 156.759 336.96 157.769 342.221 157.289C347.483 156.809 352.503 154.858 356.709 151.66C360.914 148.462 364.135 144.145 366.004 139.203C367.872 134.262 368.313 128.894 367.275 123.713C373.004 121.046 377.67 116.53 380.521 110.891C383.373 105.252 384.245 98.8177 382.998 92.6229Z" fill="#6C63FF"/>
<path opacity="0.1" d="M330.243 85.4581C327.382 91.0945 326.507 97.5317 327.76 103.727C322.972 105.962 318.91 109.498 316.037 113.932C313.164 118.366 311.596 123.519 311.513 128.802C311.43 134.085 312.835 139.284 315.567 143.807C318.299 148.329 322.248 151.991 326.962 154.376C331.677 156.76 336.968 157.77 342.229 157.29C347.491 156.809 352.511 154.859 356.717 151.661C360.922 148.463 364.143 144.146 366.012 139.204C367.88 134.262 368.32 128.894 367.283 123.714C372.809 121.148 331.659 82.6381 330.243 85.4581Z" fill="black"/>
<path d="M361.979 44.6835C364.288 44.6835 366.16 42.8115 366.16 40.5024C366.16 38.1932 364.288 36.3213 361.979 36.3213C359.67 36.3213 357.798 38.1932 357.798 40.5024C357.798 42.8115 359.67 44.6835 361.979 44.6835Z" fill="#6C63FF"/>
<path d="M386.401 47.3661C388.71 47.3661 390.582 45.4941 390.582 43.185C390.582 40.8758 388.71 39.0039 386.401 39.0039C384.092 39.0039 382.22 40.8758 382.22 43.185C382.22 45.4941 384.092 47.3661 386.401 47.3661Z" fill="#6C63FF"/>
<path d="M395.819 84.9374C398.128 84.9374 400 83.0654 400 80.7563C400 78.4471 398.128 76.5752 395.819 76.5752C393.51 76.5752 391.638 78.4471 391.638 80.7563C391.638 83.0654 393.51 84.9374 395.819 84.9374Z" fill="#6C63FF"/>
<path d="M383.108 103.7C385.417 103.7 387.289 101.828 387.289 99.519C387.289 97.2098 385.417 95.3379 383.108 95.3379C380.799 95.3379 378.927 97.2098 378.927 99.519C378.927 101.828 380.799 103.7 383.108 103.7Z" fill="#6C63FF"/>
<path d="M365.742 142.667C368.051 142.667 369.923 140.795 369.923 138.486C369.923 136.177 368.051 134.305 365.742 134.305C363.432 134.305 361.561 136.177 361.561 138.486C361.561 140.795 363.432 142.667 365.742 142.667Z" fill="#6C63FF"/>
<path opacity="0.1" d="M365.742 142.667C368.051 142.667 369.923 140.795 369.923 138.486C369.923 136.177 368.051 134.305 365.742 134.305C363.432 134.305 361.561 136.177 361.561 138.486C361.561 140.795 363.432 142.667 365.742 142.667Z" fill="black"/>
<path d="M327.13 98.5331C329.439 98.5331 331.311 96.6611 331.311 94.352C331.311 92.0428 329.439 90.1709 327.13 90.1709C324.821 90.1709 322.949 92.0428 322.949 94.352C322.949 96.6611 324.821 98.5331 327.13 98.5331Z" fill="#6C63FF"/>
<path opacity="0.1" d="M327.13 98.5331C329.439 98.5331 331.311 96.6611 331.311 94.352C331.311 92.0428 329.439 90.1709 327.13 90.1709C324.821 90.1709 322.949 92.0428 322.949 94.352C322.949 96.6611 324.821 98.5331 327.13 98.5331Z" fill="black"/>
<path opacity="0.1" d="M322.672 163.123C319.891 161.719 319.05 157.741 320.673 154.072C320.587 154.221 320.505 154.373 320.427 154.534C318.506 158.328 319.3 162.591 322.198 164.058C325.097 165.524 329.004 163.635 330.92 159.841C331.003 159.685 331.073 159.525 331.143 159.368C329.153 162.853 325.449 164.531 322.672 163.123Z" fill="black"/>
<path opacity="0.1" d="M318.541 171.29C315.764 169.886 314.919 165.908 316.546 162.235C316.46 162.388 316.374 162.54 316.296 162.697C314.375 166.491 315.169 170.758 318.068 172.221C320.966 173.683 324.873 171.802 326.794 168.004C326.872 167.848 326.946 167.692 327.016 167.531C325.022 171.016 321.322 172.694 318.541 171.29Z" fill="black"/>
<path opacity="0.1" d="M314.411 179.452C311.634 178.048 310.789 174.07 312.416 170.401C312.33 170.55 312.244 170.703 312.166 170.863C310.245 174.657 311.043 178.92 313.941 180.387C316.84 181.853 320.743 179.964 322.663 176.17C322.742 176.014 322.816 175.854 322.886 175.697C320.896 179.182 317.192 180.86 314.411 179.452Z" fill="black"/>
<path opacity="0.1" d="M310.296 187.638C307.515 186.234 306.674 182.257 308.297 178.588C308.211 178.737 308.129 178.889 308.047 179.046C306.13 182.839 306.924 187.107 309.822 188.573C312.721 190.04 316.628 188.151 318.545 184.353C318.627 184.197 318.697 184.04 318.767 183.88C316.765 187.345 313.061 189.023 310.296 187.638Z" fill="black"/>
<path opacity="0.1" d="M306.154 195.782C303.373 194.378 302.532 190.4 304.155 186.731C304.069 186.88 303.987 187.033 303.909 187.193C301.989 190.987 302.783 195.25 305.681 196.717C308.579 198.183 312.486 196.294 314.407 192.5C314.485 192.344 314.559 192.184 314.63 192.027C312.643 195.512 308.931 197.19 306.154 195.782Z" fill="black"/>
<path opacity="0.1" d="M302.024 203.948C299.247 202.544 298.402 198.566 300.029 194.897C299.943 195.046 299.857 195.199 299.779 195.355C297.859 199.149 298.653 203.416 301.555 204.883C304.457 206.35 308.341 204.456 310.296 200.663C310.374 200.506 310.449 200.35 310.519 200.189C308.505 203.674 304.821 205.352 302.024 203.948Z" fill="black"/>
<path opacity="0.1" d="M297.893 212.111C295.116 210.707 294.272 206.729 295.899 203.061C295.813 203.213 295.73 203.362 295.648 203.522C293.732 207.316 294.526 211.579 297.424 213.046C300.322 214.513 304.23 212.623 306.146 208.83C306.228 208.673 306.299 208.513 306.369 208.356C304.378 211.841 300.674 213.519 297.893 212.111Z" fill="black"/>
<path opacity="0.1" d="M293.767 220.277C290.987 218.873 290.146 214.895 291.769 211.227C291.683 211.375 291.601 211.528 291.522 211.684C289.602 215.478 290.396 219.745 293.294 221.212C296.192 222.679 300.1 220.789 302.02 216.992C302.098 216.835 302.169 216.679 302.239 216.518C300.248 220.003 296.544 221.666 293.767 220.277Z" fill="black"/>
<path opacity="0.1" d="M291.053 225.643C288.276 224.235 287.431 220.261 289.058 216.589C288.972 216.741 288.886 216.894 288.808 217.05C286.887 220.844 287.681 225.111 290.579 226.574C293.478 228.037 297.385 226.156 299.305 222.358C299.383 222.201 299.458 222.045 299.528 221.885C297.533 225.37 293.83 227.047 291.053 225.643Z" fill="black"/>
<path d="M365.675 189.305C366.106 188.069 366.369 186.781 366.458 185.475C366.745 185.475 367.029 185.415 367.292 185.3C367.555 185.184 367.792 185.016 367.987 184.805C368.182 184.594 368.331 184.345 368.425 184.074C368.52 183.802 368.557 183.515 368.536 183.228C368.514 182.942 368.433 182.663 368.299 182.409C368.164 182.155 367.979 181.932 367.754 181.753C367.529 181.574 367.27 181.443 366.992 181.369C366.715 181.295 366.425 181.279 366.141 181.322C365.676 179.205 364.745 177.218 363.417 175.506C362.088 173.793 360.394 172.399 358.459 171.423C358.709 170.928 358.752 170.354 358.579 169.827C358.406 169.301 358.031 168.864 357.536 168.614C357.041 168.364 356.468 168.321 355.941 168.494C355.414 168.667 354.978 169.042 354.728 169.537C354.637 169.713 354.574 169.902 354.54 170.097C352.245 169.669 349.882 169.796 347.645 170.466C345.409 171.136 343.366 172.33 341.684 173.949C340.414 173.744 339.123 173.706 337.843 173.836L336.15 181.545L336.048 174.113C334.104 174.54 332.268 175.357 330.651 176.517C329.034 177.677 327.67 179.155 326.644 180.859C325.617 182.564 324.949 184.46 324.68 186.432C324.411 188.404 324.547 190.41 325.08 192.327C325.612 194.244 326.53 196.033 327.778 197.583C329.025 199.134 330.575 200.414 332.334 201.345C334.093 202.276 336.023 202.839 338.006 202.998C339.99 203.158 341.985 202.912 343.87 202.274C344.072 202.638 344.379 202.932 344.75 203.119C345.133 203.314 345.567 203.385 345.992 203.324C346.418 203.264 346.814 203.073 347.127 202.779C347.44 202.485 347.654 202.101 347.742 201.68C347.829 201.26 347.784 200.822 347.613 200.428C348.281 199.97 348.909 199.457 349.491 198.895C352.544 199.391 355.676 198.908 358.438 197.515C361.2 196.122 363.45 193.89 364.866 191.139L356.985 189.813L365.675 189.305Z" fill="#6C63FF"/>
<g opacity="0.1">
<path d="M353.5 193.048C350.59 189.207 348.806 184.658 346.753 180.293C345.929 178.502 345.005 176.757 343.988 175.068L342.447 173.272C342.189 173.491 341.93 173.718 341.664 173.957C340.395 173.751 339.103 173.713 337.824 173.844L336.13 181.553L336.028 174.121C334.085 174.547 332.248 175.365 330.631 176.525C329.014 177.685 327.651 179.163 326.624 180.867C325.598 182.572 324.93 184.468 324.661 186.44C324.392 188.412 324.528 190.417 325.06 192.335C325.593 194.252 326.511 196.041 327.758 197.591C329.005 199.142 330.556 200.422 332.315 201.353C334.073 202.284 336.003 202.846 337.987 203.006C339.97 203.166 341.966 202.919 343.851 202.282C344.052 202.646 344.359 202.94 344.731 203.127C345.114 203.321 345.548 203.393 345.973 203.332C346.398 203.271 346.794 203.081 347.107 202.787C347.42 202.492 347.635 202.109 347.722 201.688C347.809 201.267 347.764 200.83 347.594 200.436C348.261 199.978 348.889 199.465 349.471 198.903C352.461 199.387 355.527 198.933 358.248 197.604C356.431 196.349 354.828 194.811 353.5 193.048Z" fill="black"/>
</g>
<path d="M301.969 176.542C302.13 176.223 302.207 175.868 302.192 175.511C302.177 175.154 302.071 174.807 301.883 174.503C301.695 174.199 301.433 173.948 301.121 173.774C300.809 173.6 300.457 173.51 300.1 173.511C299.507 170.367 297.899 167.505 295.523 165.364C295.906 163.87 296.052 162.326 295.954 160.788L288.268 159.477L295.731 159.008C295.597 158.307 295.412 157.617 295.179 156.943C295.47 156.743 295.706 156.474 295.868 156.161C296.056 155.787 296.128 155.365 296.074 154.95C296.02 154.535 295.843 154.145 295.565 153.832C295.288 153.519 294.922 153.296 294.517 153.192C294.111 153.089 293.684 153.109 293.29 153.251C291.314 150.458 288.421 148.446 285.116 147.564C281.81 146.682 278.3 146.986 275.195 148.424C272.09 149.861 269.587 152.341 268.12 155.432C266.654 158.523 266.316 162.03 267.167 165.344C266.715 165.535 266.345 165.882 266.127 166.322C265.935 166.701 265.863 167.129 265.921 167.55C265.978 167.97 266.163 168.363 266.45 168.676C266.737 168.99 267.112 169.208 267.526 169.302C267.94 169.396 268.373 169.362 268.767 169.204C269.517 170.464 270.452 171.605 271.54 172.588C270.748 175.677 270.987 178.94 272.22 181.881L282.527 179.205L273.335 184.04C274.96 186.622 277.352 188.632 280.176 189.788C282.999 190.945 286.114 191.19 289.083 190.489C292.053 189.788 294.729 188.177 296.738 185.88C298.747 183.584 299.988 180.717 300.287 177.68C300.641 177.649 300.982 177.529 301.276 177.33C301.571 177.13 301.809 176.859 301.969 176.542Z" fill="#6C63FF"/>
<path opacity="0.1" d="M301.969 176.542C302.131 176.224 302.207 175.869 302.192 175.512C302.177 175.155 302.071 174.808 301.883 174.503C301.696 174.199 301.433 173.948 301.121 173.775C300.809 173.601 300.457 173.51 300.1 173.511C299.507 170.368 297.899 167.506 295.524 165.364C295.586 165.118 295.641 164.875 295.688 164.629C295.415 164.827 295.162 165.051 294.933 165.298C293.545 166.819 292.833 168.865 291.46 170.402C289.841 172.217 287.416 173.163 284.995 173.417C282.574 173.672 280.137 173.3 277.747 172.835C275.768 172.444 273.762 171.99 271.755 172.181C271.56 172.181 271.364 172.224 271.184 172.256C271.301 172.369 271.419 172.483 271.54 172.592C270.748 175.681 270.987 178.944 272.221 181.885L282.527 179.206L273.335 184.04C274.96 186.623 277.352 188.633 280.176 189.789C282.999 190.945 286.114 191.19 289.083 190.489C292.053 189.789 294.73 188.177 296.738 185.881C298.747 183.584 299.988 180.717 300.288 177.681C300.642 177.65 300.982 177.529 301.276 177.33C301.571 177.131 301.809 176.86 301.969 176.542Z" fill="black"/>
</g>
<g opacity="0.1">
<path d="M35.0017 200.283C35.5023 198.762 37.5323 198.062 39.5348 198.719C39.8228 198.813 40.1017 198.934 40.3679 199.079C40.497 199.043 40.6299 199.012 40.759 198.989C40.6491 198.552 40.6069 198.101 40.6339 197.651C39.9464 197.186 39.3891 196.553 39.0147 195.813C38.6403 195.072 38.4612 194.248 38.4944 193.419C37.801 192.963 37.242 192.329 36.8752 191.585C36.493 190.847 36.3134 190.021 36.355 189.191C35.662 188.732 35.1032 188.098 34.7357 187.353C33.7736 185.444 34.1647 183.297 35.6314 182.554C37.0981 181.811 39.0615 182.769 40.0276 184.677C40.4092 185.417 40.5873 186.244 40.5439 187.075C41.2332 187.537 41.792 188.169 42.1667 188.909C42.5413 189.65 42.7193 190.474 42.6833 191.303C43.3724 191.766 43.9309 192.399 44.3055 193.14C44.6801 193.881 44.8582 194.705 44.8228 195.535C45.512 195.997 46.0709 196.629 46.4455 197.369C46.8202 198.11 46.9981 198.934 46.9622 199.763C47.6566 200.221 48.2168 200.855 48.5854 201.601C48.7612 201.962 48.8926 202.343 48.9765 202.736C49.2174 202.381 49.5116 202.066 49.8487 201.801C49.8889 201.499 49.957 201.202 50.0521 200.913C50.7131 198.91 52.477 197.69 53.9985 198.175C55.5199 198.66 56.2161 200.706 55.563 202.708C55.293 203.568 54.7745 204.329 54.0728 204.895C54.0322 205.195 53.9641 205.491 53.8694 205.778C53.5484 206.84 52.8333 207.738 51.8708 208.289C51.9462 208.545 52.0012 208.807 52.035 209.072C52.4389 209.459 52.7735 209.913 53.0246 210.413C53.2805 210.912 53.4473 211.452 53.5174 212.009C53.9227 212.396 54.2587 212.85 54.5109 213.351C54.7662 213.85 54.933 214.39 55.0037 214.946C55.4099 215.334 55.746 215.789 55.9971 216.292C56.9632 218.2 56.5642 220.352 55.1054 221.087C53.6465 221.822 51.6752 220.876 50.7091 218.963C50.4544 218.464 50.2877 217.924 50.2163 217.367C49.4014 216.586 48.8772 215.55 48.7301 214.43C47.9152 213.648 47.391 212.612 47.2438 211.493C46.8388 211.105 46.5028 210.652 46.2504 210.151C45.9974 209.651 45.8308 209.111 45.7575 208.555C45.3537 208.168 45.0191 207.714 44.768 207.214C44.5121 206.715 44.3453 206.175 44.2752 205.618C44.0234 205.383 43.799 205.121 43.6064 204.836C42.8017 205 41.9677 204.949 41.1893 204.687C40.9001 204.591 40.62 204.469 40.3523 204.323C39.4824 204.555 38.5635 204.522 37.7122 204.23C35.7292 203.569 34.505 201.805 35.0017 200.283Z" fill="#3F3D56"/>
<g opacity="0.1">
<path d="M38.5332 194.287C38.7406 194.491 38.9686 194.674 39.2138 194.831C39.1806 195.392 39.255 195.955 39.4328 196.489C39.2756 196.276 39.1369 196.049 39.0182 195.812C38.7736 195.334 38.6097 194.819 38.5332 194.287Z" fill="black"/>
<path d="M36.394 190.062C36.6025 190.264 36.8304 190.445 37.0746 190.602C37.0417 191.165 37.1161 191.729 37.2936 192.265C36.8198 191.614 36.5111 190.859 36.394 190.062Z" fill="black"/>
<path d="M41.2554 188.486C41.274 188.197 41.2635 187.906 41.2241 187.618C41.6065 187.996 41.9249 188.433 42.1667 188.913C42.2848 189.15 42.3842 189.396 42.464 189.648C42.138 189.188 41.728 188.794 41.2554 188.486Z" fill="black"/>
<path d="M54.8276 214.09C54.6566 213.85 54.4627 213.627 54.2488 213.425C54.2131 213.16 54.1555 212.898 54.0767 212.643C54.2464 212.872 54.3968 213.116 54.5264 213.37C54.6451 213.602 54.7458 213.842 54.8276 214.09Z" fill="black"/>
<path d="M53.3296 211.152C53.1585 210.912 52.9647 210.69 52.7507 210.487C52.7188 210.222 52.6638 209.961 52.5864 209.705C52.9086 210.141 53.157 210.628 53.3217 211.144L53.3296 211.152Z" fill="black"/>
<path d="M40.6767 198.527C40.882 198.73 41.1089 198.909 41.3534 199.063C41.3241 199.512 41.3664 199.964 41.4785 200.4C41.3467 200.424 41.2161 200.454 41.0874 200.49C40.8195 200.346 40.5394 200.226 40.2504 200.13C38.2479 199.473 36.2179 200.173 35.7212 201.695C35.5967 202.073 35.5738 202.478 35.6547 202.868C35.3329 202.53 35.1041 202.114 34.9903 201.661C34.8766 201.208 34.8818 200.733 35.0055 200.283C35.5061 198.762 37.536 198.061 39.5386 198.718C39.8266 198.813 40.1054 198.933 40.3716 199.078C40.5007 199.043 40.6337 199.012 40.7628 198.988C40.7252 198.836 40.6964 198.682 40.6767 198.527Z" fill="black"/>
<path d="M55.563 215.563C55.7336 215.794 55.8841 216.039 56.0128 216.295C56.1322 216.532 56.2329 216.778 56.3139 217.03C56.143 216.789 55.9491 216.565 55.7351 216.361C55.7002 216.091 55.6427 215.824 55.563 215.563Z" fill="black"/>
<path d="M43.3951 192.723C43.4137 192.433 43.4033 192.142 43.3638 191.854C43.747 192.231 44.0655 192.669 44.3064 193.149C44.4244 193.385 44.5238 193.629 44.6036 193.88C44.2776 193.422 43.8675 193.029 43.3951 192.723Z" fill="black"/>
<path d="M46.489 209.97C46.5256 210.263 46.5898 210.551 46.6806 210.831C46.3547 210.384 46.1061 209.886 45.9453 209.356C46.1078 209.577 46.2898 209.782 46.489 209.97Z" fill="black"/>
<path d="M49.4572 215.845C49.4967 216.138 49.5621 216.426 49.6528 216.706C49.4956 216.493 49.3569 216.266 49.2382 216.029C49.1096 215.778 49.0023 215.516 48.9175 215.247C49.0813 215.461 49.2618 215.661 49.4572 215.845Z" fill="black"/>
<path d="M47.9748 212.908C48.0114 213.2 48.0756 213.488 48.1665 213.768C48.0107 213.554 47.8721 213.328 47.7519 213.092C47.6228 212.841 47.5155 212.579 47.4312 212.31C47.5944 212.525 47.7763 212.725 47.9748 212.908Z" fill="black"/>
<path d="M45.0026 207.029C45.0388 207.323 45.103 207.612 45.1943 207.893C45.046 207.679 44.9152 207.452 44.8031 207.217C44.672 206.966 44.5634 206.704 44.4785 206.435C44.6348 206.648 44.8102 206.847 45.0026 207.029Z" fill="black"/>
<path d="M54.7298 199.602C53.2084 199.102 51.4444 200.322 50.7873 202.34C50.6922 202.629 50.6241 202.926 50.5839 203.228C50.2457 203.491 49.9501 203.805 49.7078 204.159C49.617 203.766 49.4792 203.385 49.2972 203.025C49.2307 202.892 49.1563 202.762 49.0781 202.633C49.3001 202.325 49.5633 202.049 49.8604 201.812C49.9006 201.51 49.9686 201.213 50.0637 200.924C50.7247 198.922 52.4887 197.701 54.0102 198.186C54.4465 198.354 54.832 198.631 55.1295 198.992C55.4269 199.352 55.6261 199.783 55.7076 200.244C55.4418 199.95 55.1052 199.729 54.7298 199.602Z" fill="black"/>
<path d="M47.6739 201.179C47.6925 200.889 47.682 200.598 47.6426 200.311C48.0259 200.687 48.3443 201.125 48.5852 201.605C48.7033 201.842 48.8026 202.088 48.8824 202.34C48.5575 201.88 48.1473 201.485 47.6739 201.179Z" fill="black"/>
<path d="M45.5342 196.946C45.5528 196.657 45.5423 196.366 45.5029 196.078C45.8844 196.456 46.2027 196.894 46.4455 197.373C46.5636 197.61 46.663 197.856 46.7428 198.108C46.4169 197.648 46.0068 197.254 45.5342 196.946Z" fill="black"/>
<path d="M50.9436 218.783C50.9811 219.077 51.0466 219.366 51.1391 219.647C50.9828 219.432 50.8441 219.204 50.7245 218.967C50.5959 218.716 50.4886 218.454 50.4038 218.185C50.5676 218.398 50.7481 218.598 50.9436 218.783Z" fill="black"/>
</g>
<path d="M32.08 180.731C31.3866 180.274 30.8276 179.641 30.4608 178.897C29.4947 176.984 29.8936 174.837 31.3525 174.097C32.8114 173.358 34.7827 174.309 35.7487 176.221C36.1309 176.959 36.3091 177.785 36.265 178.615C36.9541 179.078 37.5126 179.711 37.8872 180.452C38.2618 181.193 38.4399 182.017 38.4045 182.847C39.0983 183.304 39.6585 183.937 40.0276 184.681C40.145 184.916 40.2444 185.159 40.3249 185.409C39.8068 184.669 39.0608 184.12 38.2011 183.844C38.1053 184.15 37.9496 184.433 37.7431 184.678C37.5365 184.922 37.2833 185.123 36.9981 185.269C36.713 185.415 36.4017 185.502 36.0824 185.526C35.7631 185.55 35.4423 185.51 35.1386 185.409C34.8486 186.265 34.8486 187.193 35.1386 188.049C34.9916 187.836 34.8609 187.612 34.7475 187.38C34.3652 186.642 34.1857 185.816 34.2273 184.986C33.5391 184.522 32.9811 183.89 32.6066 183.149C32.2321 182.408 32.0535 181.584 32.0878 180.754L32.08 180.731Z" fill="#3F3D56"/>
<path d="M8.56556 153.611C7.97227 153.333 7.39859 153.016 6.84854 152.66L13.216 148.006L5.72993 151.858C4.21634 150.655 2.96425 149.155 2.0503 147.451C1.13635 145.747 0.579756 143.874 0.414585 141.947L13.1417 142.08L0.387207 139.945C0.497028 137.999 1.00636 136.097 1.88347 134.356C2.76057 132.616 3.98667 131.075 5.48535 129.829C6.98404 128.584 8.72321 127.66 10.5945 127.116C12.4658 126.571 14.4291 126.418 16.3622 126.666C18.2952 126.914 20.1565 127.557 21.8302 128.555C23.5038 129.553 24.954 130.886 26.0902 132.469C27.2264 134.052 28.0244 135.853 28.4345 137.758C28.8446 139.663 28.8579 141.632 28.4736 143.543C29.3975 143.971 30.2733 144.495 31.0863 145.108L24.4373 154.354L32.4201 146.265C34.1046 147.92 35.35 149.968 36.0439 152.225C36.7377 154.482 36.858 156.877 36.3939 159.192C38.8087 160.317 40.8582 162.098 42.3081 164.333C43.7581 166.568 44.5498 169.166 44.5928 171.829C44.6358 174.493 43.9284 177.115 42.5514 179.395C41.1744 181.676 39.1834 183.523 36.8062 184.725C34.4289 185.927 31.7613 186.436 29.1085 186.193C26.4556 185.951 23.9245 184.966 21.8047 183.353C19.6849 181.74 18.0619 179.562 17.1213 177.07C16.1807 174.578 15.9604 171.871 16.4858 169.259C13.6036 167.916 11.2561 165.644 9.81982 162.807C8.38359 159.97 7.94188 156.733 8.56556 153.614V153.611Z" fill="#6C63FF"/>
<path opacity="0.1" d="M35.1423 150.004C36.5848 152.843 37.0258 156.086 36.3939 159.207C38.8087 160.332 40.8582 162.113 42.3081 164.348C43.758 166.583 44.5498 169.181 44.5928 171.844C44.6358 174.508 43.9284 177.13 42.5514 179.41C41.1744 181.691 39.1834 183.538 36.8062 184.74C34.4289 185.942 31.7613 186.451 29.1085 186.208C26.4556 185.966 23.9245 184.982 21.8047 183.368C19.6849 181.755 18.0619 179.578 17.1213 177.085C16.1807 174.593 15.9604 171.886 16.4858 169.274C13.6971 167.98 34.4265 148.584 35.1423 150.004Z" fill="black"/>
<path d="M19.1531 129.462C20.3174 129.462 21.2612 128.519 21.2612 127.354C21.2612 126.19 20.3174 125.246 19.1531 125.246C17.9888 125.246 17.0449 126.19 17.0449 127.354C17.0449 128.519 17.9888 129.462 19.1531 129.462Z" fill="#6C63FF"/>
<path d="M6.84838 130.816C8.01268 130.816 8.95652 129.872 8.95652 128.708C8.95652 127.543 8.01268 126.6 6.84838 126.6C5.68408 126.6 4.74023 127.543 4.74023 128.708C4.74023 129.872 5.68408 130.816 6.84838 130.816Z" fill="#6C63FF"/>
<path d="M2.10814 149.742C3.27244 149.742 4.21629 148.798 4.21629 147.634C4.21629 146.469 3.27244 145.525 2.10814 145.525C0.943849 145.525 0 146.469 0 147.634C0 148.798 0.943849 149.742 2.10814 149.742Z" fill="#6C63FF"/>
<path d="M8.51098 159.196C9.67527 159.196 10.6191 158.252 10.6191 157.088C10.6191 155.923 9.67527 154.979 8.51098 154.979C7.34668 154.979 6.40283 155.923 6.40283 157.088C6.40283 158.252 7.34668 159.196 8.51098 159.196Z" fill="#6C63FF"/>
<path d="M17.2561 178.826C18.4204 178.826 19.3642 177.882 19.3642 176.718C19.3642 175.553 18.4204 174.609 17.2561 174.609C16.0918 174.609 15.1479 175.553 15.1479 176.718C15.1479 177.882 16.0918 178.826 17.2561 178.826Z" fill="#6C63FF"/>
<path opacity="0.1" d="M17.2561 178.826C18.4204 178.826 19.3642 177.882 19.3642 176.718C19.3642 175.553 18.4204 174.609 17.2561 174.609C16.0918 174.609 15.1479 175.553 15.1479 176.718C15.1479 177.882 16.0918 178.826 17.2561 178.826Z" fill="black"/>
<path d="M36.7068 156.59C37.8711 156.59 38.8149 155.646 38.8149 154.482C38.8149 153.318 37.8711 152.374 36.7068 152.374C35.5425 152.374 34.5986 153.318 34.5986 154.482C34.5986 155.646 35.5425 156.59 36.7068 156.59Z" fill="#6C63FF"/>
<path opacity="0.1" d="M36.7068 156.59C37.8711 156.59 38.8149 155.646 38.8149 154.482C38.8149 153.318 37.8711 152.374 36.7068 152.374C35.5425 152.374 34.5986 153.318 34.5986 154.482C34.5986 155.646 35.5425 156.59 36.7068 156.59Z" fill="black"/>
<path opacity="0.1" d="M38.9556 189.128C40.3558 188.42 40.7782 186.417 39.9608 184.567C40.0038 184.646 40.0468 184.72 40.086 184.798C41.052 186.711 40.6531 188.858 39.1903 189.597C37.7275 190.336 35.7641 189.386 34.798 187.473C34.7589 187.395 34.7198 187.317 34.6846 187.235C35.6898 188.991 37.5554 189.836 38.9556 189.128Z" fill="black"/>
<path opacity="0.1" d="M41.0328 193.242C42.433 192.534 42.8593 190.528 42.0419 188.682C42.0849 188.756 42.1279 188.834 42.167 188.912C43.1331 190.825 42.7341 192.972 41.2713 193.711C39.8086 194.451 37.8451 193.5 36.8791 191.588C36.836 191.509 36.8008 191.427 36.7656 191.349C37.7708 193.113 39.6404 193.95 41.0328 193.242Z" fill="black"/>
<path opacity="0.1" d="M43.1133 197.353C44.5135 196.646 44.9399 194.643 44.1185 192.793C44.1654 192.871 44.2046 192.946 44.2476 193.028C45.2136 194.936 44.8108 197.087 43.3519 197.823C41.893 198.558 39.9257 197.612 38.9596 195.699C38.9166 195.621 38.8814 195.543 38.8462 195.46C39.8475 197.217 41.7131 198.061 43.1133 197.353Z" fill="black"/>
<path opacity="0.1" d="M45.1939 201.468C46.5941 200.76 47.0204 198.757 46.1991 196.907C46.2421 196.982 46.2851 197.06 46.3242 197.138C47.2942 199.051 46.8914 201.198 45.4325 201.937C43.9736 202.676 42.0023 201.726 41.0363 199.813C40.9972 199.735 40.962 199.653 40.9268 199.575C41.928 201.327 43.7937 202.176 45.1939 201.468Z" fill="black"/>
<path opacity="0.1" d="M47.275 205.578C48.6752 204.87 49.0976 202.868 48.2801 201.021C48.3232 201.096 48.3662 201.174 48.4053 201.252C49.3714 203.165 48.9724 205.312 47.5135 206.051C46.0547 206.791 44.0834 205.836 43.1173 203.928C43.0782 203.845 43.043 203.767 43.0039 203.689C44.0091 205.441 45.8747 206.286 47.275 205.578Z" fill="black"/>
<path opacity="0.1" d="M49.3555 209.693C50.7557 208.985 51.1781 206.983 50.3607 205.133C50.4037 205.211 50.4467 205.285 50.4859 205.364C51.4519 207.276 51.053 209.423 49.5941 210.163C48.1352 210.902 46.164 209.951 45.1979 208.039C45.1588 207.961 45.1197 207.882 45.0845 207.8C46.0897 209.541 47.9553 210.401 49.3555 209.693Z" fill="black"/>
<path opacity="0.1" d="M51.4366 213.808C52.8329 213.1 53.2592 211.093 52.4418 209.247C52.4848 209.321 52.5278 209.4 52.5669 209.478C53.533 211.39 53.134 213.538 51.6712 214.277C50.2084 215.016 48.245 214.062 47.2789 212.153C47.2398 212.071 47.2007 211.993 47.1655 211.915C48.1707 213.667 50.0364 214.515 51.4366 213.808Z" fill="black"/>
<path opacity="0.1" d="M53.5132 217.919C54.9134 217.211 55.3398 215.208 54.5184 213.358C54.5653 213.437 54.6045 213.511 54.6475 213.593C55.6136 215.502 55.2107 217.653 53.7518 218.388C52.2929 219.124 50.3256 218.177 49.3595 216.264C49.3165 216.186 49.2813 216.108 49.2461 216.026C50.2513 217.782 52.113 218.627 53.5132 217.919Z" fill="black"/>
<path opacity="0.1" d="M54.8941 220.621C56.2943 219.913 56.7167 217.911 55.8993 216.061C55.9423 216.139 55.9853 216.213 56.0244 216.295C56.9905 218.204 56.5916 220.355 55.1327 221.09C53.6738 221.826 51.7025 220.879 50.7365 218.967C50.6974 218.888 50.6582 218.81 50.623 218.728C51.6165 220.492 53.4821 221.329 54.8941 220.621Z" fill="black"/>
<path d="M17.2916 202.317C17.0744 201.695 16.9428 201.046 16.9005 200.389C16.7558 200.388 16.6129 200.358 16.4805 200.3C16.3481 200.241 16.2291 200.156 16.1311 200.05C16.033 199.944 15.9578 199.819 15.9103 199.682C15.8629 199.545 15.8441 199.4 15.8551 199.256C15.8662 199.112 15.9068 198.972 15.9746 198.844C16.0423 198.716 16.1357 198.604 16.2488 198.513C16.362 198.423 16.4925 198.358 16.6322 198.32C16.7719 198.283 16.9178 198.275 17.0608 198.296C17.2955 197.23 17.7643 196.23 18.4334 195.367C19.1024 194.505 19.9548 193.802 20.929 193.309C20.803 193.06 20.7812 192.771 20.8685 192.505C20.9558 192.24 21.145 192.02 21.3944 191.893C21.6439 191.767 21.9332 191.746 22.1988 191.833C22.4643 191.92 22.6843 192.109 22.8103 192.359C22.8561 192.447 22.8878 192.542 22.9042 192.641C24.0615 192.428 25.2528 192.495 26.3792 192.835C27.5057 193.175 28.5348 193.779 29.3811 194.596C30.0276 194.49 30.6854 194.472 31.3368 194.541L32.1894 198.421L32.209 194.678C33.1787 194.902 34.0931 195.321 34.8968 195.908C35.7006 196.495 36.3772 197.239 36.8858 198.094C37.3944 198.95 37.7246 199.899 37.8563 200.886C37.988 201.873 37.9185 202.876 37.6521 203.835C37.3858 204.794 36.9279 205.689 36.3063 206.466C35.6846 207.244 34.912 207.887 34.035 208.358C33.158 208.828 32.1948 209.117 31.2034 209.205C30.212 209.293 29.2129 209.18 28.2664 208.872C28.1635 209.054 28.01 209.202 27.8245 209.298C27.6312 209.396 27.4125 209.432 27.1982 209.401C26.9839 209.37 26.7842 209.274 26.6262 209.126C26.4683 208.978 26.3597 208.785 26.3152 208.573C26.2706 208.361 26.2923 208.14 26.3773 207.941C26.042 207.707 25.7267 207.445 25.4347 207.159C23.8963 207.408 22.3184 207.164 20.9273 206.461C19.5361 205.759 18.4031 204.634 17.6905 203.248L21.6604 202.579L17.2916 202.317Z" fill="#6C63FF"/>
<g opacity="0.1">
<path d="M23.4244 204.202C24.8912 202.246 25.7907 199.978 26.8233 197.78C27.2368 196.875 27.7017 195.995 28.2157 195.144L28.9979 194.24C29.1309 194.354 29.26 194.467 29.3891 194.584C30.0355 194.479 30.6933 194.46 31.3447 194.53L32.1973 198.41L32.209 194.678C33.1788 194.902 34.0931 195.321 34.8969 195.908C35.7007 196.495 36.3773 197.239 36.8859 198.094C37.3945 198.95 37.7246 199.899 37.8563 200.886C37.988 201.873 37.9186 202.876 37.6522 203.835C37.3858 204.794 36.928 205.689 36.3064 206.466C35.6847 207.244 34.9121 207.887 34.0351 208.358C33.1581 208.828 32.1949 209.117 31.2035 209.205C30.212 209.293 29.213 209.18 28.2665 208.872C28.1636 209.054 28.0101 209.202 27.8246 209.298C27.6313 209.396 27.4126 209.432 27.1983 209.401C26.9839 209.37 26.7843 209.274 26.6263 209.126C26.4684 208.978 26.3598 208.785 26.3153 208.573C26.2707 208.361 26.2924 208.14 26.3774 207.941C26.0421 207.707 25.7268 207.445 25.4348 207.159C23.9282 207.401 22.3837 207.173 21.0112 206.506C21.9344 205.873 22.7493 205.095 23.4244 204.202Z" fill="black"/>
</g>
<path d="M49.3831 195.887C49.3206 195.764 49.283 195.629 49.2725 195.491C49.2621 195.354 49.279 195.215 49.3222 195.084C49.3655 194.953 49.4342 194.831 49.5246 194.727C49.6149 194.622 49.725 194.537 49.8486 194.475C49.9962 194.399 50.1599 194.36 50.3257 194.361C50.6241 192.777 51.4333 191.335 52.6294 190.255C52.436 189.503 52.3634 188.725 52.4143 187.951L56.2825 187.302L52.5238 187.063C52.5919 186.71 52.6861 186.362 52.8054 186.023C52.6577 185.924 52.5379 185.79 52.4574 185.632C52.3633 185.443 52.3277 185.231 52.3552 185.022C52.3827 184.813 52.4719 184.618 52.6115 184.46C52.7511 184.302 52.9346 184.19 53.1386 184.137C53.3425 184.085 53.5574 184.094 53.7559 184.165C54.4467 183.182 55.3697 182.385 56.4429 181.845C57.7069 181.204 59.1291 180.941 60.5389 181.087C61.9488 181.234 63.2864 181.784 64.3916 182.671C65.4967 183.559 66.3224 184.746 66.7697 186.091C67.2169 187.436 67.2668 188.882 66.9132 190.255C67.097 190.333 67.2546 190.463 67.3674 190.628C67.4803 190.793 67.5437 190.987 67.5503 191.187C67.5568 191.387 67.5063 191.585 67.4045 191.757C67.3028 191.929 67.1541 192.069 66.9758 192.159C66.8421 192.227 66.6956 192.266 66.5458 192.272C66.3961 192.279 66.2467 192.254 66.1075 192.198C65.73 192.831 65.2593 193.404 64.7112 193.896C65.1121 195.456 64.9926 197.104 64.3709 198.589L59.1964 197.228L63.8233 199.665C63.1287 200.774 62.1517 201.677 60.9925 202.284C59.8334 202.89 58.5338 203.178 57.2271 203.116C55.9203 203.055 54.6533 202.647 53.556 201.935C52.4588 201.223 51.5707 200.231 50.9828 199.063C50.5736 198.249 50.3164 197.368 50.224 196.462C50.0465 196.446 49.8759 196.384 49.7287 196.284C49.5815 196.183 49.4626 196.046 49.3831 195.887Z" fill="#6C63FF"/>
<path opacity="0.1" d="M49.3831 195.887C49.3206 195.763 49.283 195.629 49.2725 195.491C49.2621 195.353 49.279 195.215 49.3222 195.084C49.3655 194.953 49.4342 194.831 49.5246 194.727C49.6149 194.622 49.725 194.536 49.8486 194.475C49.9962 194.399 50.1599 194.36 50.3257 194.361C50.6241 192.777 51.4333 191.335 52.6294 190.254C52.5982 190.133 52.5708 190.008 52.5473 189.887C52.6876 189.987 52.8185 190.099 52.9384 190.223C53.6385 191.005 53.9984 192.018 54.6867 192.793C55.5493 193.683 56.7089 194.224 57.9448 194.314C59.169 194.398 60.3989 194.3 61.594 194.021C62.5795 193.767 63.5962 193.655 64.6134 193.688L64.9028 193.728L64.7229 193.896C65.1238 195.455 65.0043 197.104 64.3826 198.589L59.1964 197.228L63.8233 199.665C63.1287 200.773 62.1517 201.677 60.9925 202.284C59.8334 202.89 58.5338 203.177 57.2271 203.116C55.9203 203.055 54.6533 202.647 53.556 201.935C52.4588 201.222 51.5707 200.231 50.9828 199.062C50.5736 198.249 50.3164 197.367 50.224 196.461C50.0465 196.445 49.8759 196.384 49.7287 196.283C49.5815 196.183 49.4626 196.046 49.3831 195.887Z" fill="black"/>
</g>
<path opacity="0.1" d="M135.465 20.6296C133.919 20.3361 132.32 20.5104 130.873 21.1302C130.006 21.517 129.066 21.7168 128.116 21.7168C127.166 21.7168 126.226 21.517 125.359 21.1302C124.333 20.6806 123.222 20.4593 122.102 20.4816C120.982 20.5039 119.881 20.7692 118.874 21.2593C118.299 21.563 117.659 21.7228 117.008 21.7247C114.38 21.7247 112.193 19.0768 111.74 15.5841C112.264 15.2 112.71 14.7195 113.054 14.1683C114.595 11.6846 116.965 10.0889 119.66 10.0889C122.355 10.0889 124.702 11.6534 126.243 14.1213C126.703 14.8625 127.346 15.4727 128.111 15.8933C128.875 16.3139 129.735 16.5307 130.607 16.5228H130.678C132.751 16.5111 134.562 18.189 135.465 20.6296Z" fill="#6C63FF"/>
<path opacity="0.1" d="M143.451 9.67789L139.204 12.3727L141.781 7.67926C141.05 7.09682 140.146 6.77476 139.212 6.76403H139.145C138.85 6.76764 138.556 6.74539 138.265 6.69754L136.822 7.61277L137.44 6.49025C136.423 6.13631 135.542 5.47301 134.921 4.59331L132.336 6.20864L133.963 3.24785C132.457 1.43696 130.423 0.326172 128.19 0.326172C125.511 0.326172 123.105 1.92195 121.58 4.40557C121.123 5.14741 120.479 5.75527 119.712 6.16744C118.944 6.5796 118.082 6.78138 117.211 6.7523H117.082C114.125 6.7523 111.724 10.1042 111.724 14.2462C111.724 18.3882 114.125 21.7362 117.082 21.7362C117.732 21.7342 118.373 21.5745 118.948 21.2707C119.955 20.7803 121.056 20.515 122.176 20.4934C123.296 20.4718 124.407 20.6943 125.432 21.1456C126.301 21.5311 127.24 21.7303 128.19 21.7303C129.14 21.7303 130.079 21.5311 130.947 21.1456C131.965 20.7039 133.065 20.4865 134.174 20.5081C135.283 20.5297 136.374 20.7898 137.373 21.2707C137.944 21.5664 138.577 21.7219 139.219 21.7244C142.18 21.7244 144.578 18.3725 144.578 14.2345C144.588 12.6454 144.201 11.079 143.451 9.67789Z" fill="#6C63FF"/>
<path opacity="0.1" d="M47.0714 74.815C44.8627 74.3972 42.5798 74.6449 40.5122 75.5269C39.2715 76.0769 37.9288 76.3594 36.5716 76.3561C35.2144 76.3527 33.8731 76.0635 32.6351 75.5073C31.1702 74.865 29.5832 74.5488 27.984 74.5806C26.3848 74.6123 24.8116 74.9913 23.3733 75.6912C22.5507 76.1245 21.6356 76.3526 20.7058 76.3561C16.9511 76.3561 13.826 72.5739 13.1768 67.5832C13.9271 67.0365 14.5646 66.3499 15.0541 65.5611C17.2562 62.0136 20.6667 59.7334 24.4958 59.7334C28.3249 59.7334 31.6925 61.9863 33.8827 65.4946C34.541 66.5579 35.4633 67.4327 36.56 68.0338C37.6566 68.6349 38.8902 68.9419 40.1407 68.9248H40.2385C43.2032 68.9208 45.7924 71.3184 47.0714 74.815Z" fill="#6C63FF"/>
<path opacity="0.1" d="M58.4921 59.1508L52.4219 62.9994L56.1063 56.2995C55.0621 55.466 53.7696 55.0049 52.4337 54.9892H52.3359C51.9141 54.9954 51.4927 54.964 51.0765 54.8953L49.027 56.2212L49.9109 54.6176C48.4524 54.108 47.1928 53.1496 46.3126 51.8798L42.6283 54.2265L44.9476 49.9633C42.7925 47.378 39.8904 45.7939 36.6989 45.7939C32.8698 45.7939 29.4592 48.0703 27.2572 51.6177C26.605 52.6822 25.6822 53.5548 24.5828 54.1464C23.4835 54.7379 22.2469 55.0274 20.9992 54.9853H20.7919C16.5639 54.9853 13.1377 59.7765 13.1377 65.6903C13.1377 71.6041 16.5639 76.3953 20.7919 76.3953C21.7223 76.3928 22.6379 76.1632 23.4594 75.7265C24.8979 75.0272 26.4713 74.6489 28.0705 74.6179C29.6697 74.5868 31.2565 74.9037 32.7212 75.5466C33.9592 76.1027 35.3005 76.3919 36.6577 76.3953C38.0149 76.3987 39.3576 76.1161 40.5983 75.5661C42.0522 74.9351 43.6247 74.6243 45.2093 74.6546C46.7938 74.685 48.3533 75.0559 49.7819 75.7421C50.5955 76.168 51.4997 76.392 52.418 76.3953C56.6461 76.3953 60.0723 71.6002 60.0723 65.6903C60.1018 63.4125 59.5584 61.1638 58.4921 59.1508Z" fill="#6C63FF"/>
<path opacity="0.1" d="M292.547 35.8825C294.093 35.5893 295.692 35.7636 297.139 36.3832C298.006 36.7701 298.945 36.97 299.894 36.97C300.844 36.97 301.782 36.7701 302.65 36.3832C303.675 35.9336 304.786 35.7122 305.906 35.7345C307.026 35.7568 308.127 36.0222 309.134 36.5123C309.71 36.8156 310.35 36.9753 311 36.9777C313.628 36.9777 315.819 34.3298 316.272 30.8371C315.747 30.454 315.301 29.9732 314.958 29.4212C313.425 26.9298 311.027 25.3223 308.34 25.3223C305.653 25.3223 303.303 26.8868 301.762 29.3547C301.302 30.0992 300.658 30.7125 299.892 31.1352C299.126 31.558 298.264 31.7759 297.389 31.7679H297.322C295.242 31.764 293.427 33.4419 292.547 35.8825Z" fill="#6C63FF"/>
<path opacity="0.1" d="M284.537 24.9318L288.785 27.6188L286.204 22.9253C286.935 22.3434 287.839 22.0214 288.773 22.0101H288.844C289.138 22.0135 289.433 21.9912 289.724 21.9436L291.163 22.8588L290.545 21.7363C291.569 21.3883 292.459 20.7275 293.087 19.8472L295.665 21.4821L294.034 18.5213C295.544 16.7104 297.554 15.5996 299.811 15.5996C302.49 15.5996 304.895 17.1954 306.421 19.679C306.877 20.4211 307.521 21.0292 308.289 21.4414C309.056 21.8536 309.919 22.0552 310.789 22.0257H310.93C313.891 22.0257 316.289 25.3776 316.289 29.5196C316.289 33.6616 313.891 37.0096 310.93 37.0096C310.28 37.0067 309.64 36.847 309.065 36.5442C308.058 36.0537 306.956 35.7884 305.836 35.7668C304.716 35.7452 303.605 35.9678 302.58 36.419C301.712 36.8045 300.774 37.0036 299.824 37.0036C298.875 37.0036 297.936 36.8045 297.069 36.419C296.051 35.9773 294.95 35.7598 293.84 35.7814C292.731 35.803 291.639 36.0631 290.639 36.5442C290.068 36.8402 289.435 36.9958 288.793 36.9979C285.836 36.9979 283.434 33.646 283.434 29.5079C283.414 27.9143 283.793 26.3409 284.537 24.9318Z" fill="#6C63FF"/>
<path opacity="0.1" d="M240.786 304.181C265.627 304.181 285.765 300.679 285.765 296.359C285.765 292.038 265.627 288.536 240.786 288.536C215.945 288.536 195.807 292.038 195.807 296.359C195.807 300.679 215.945 304.181 240.786 304.181Z" fill="#6C63FF"/>
<path d="M217.245 259.202L147.551 258.306L147.758 256.519L151.126 227.032H212.332L216.834 256.519L217.178 258.756L217.245 259.202Z" fill="#D0D2D5"/>
<path opacity="0.1" d="M217.178 258.756H182.4L147.551 258.306L147.758 256.519H216.834L217.178 258.756Z" fill="black"/>
<path d="M228.415 256.969H135.934V259.202H228.415V256.969Z" fill="#D0D2D5"/>
<path d="M316.648 49.9322C316.654 48.3911 316.047 46.9109 314.961 45.8167C313.876 44.7226 312.401 44.1039 310.86 44.0967H52.5943C51.8306 44.1003 51.075 44.2543 50.3707 44.5499C49.6665 44.8455 49.0273 45.2769 48.4898 45.8195C47.9523 46.3621 47.5269 47.0053 47.2379 47.7123C46.949 48.4193 46.8021 49.1763 46.8057 49.94V206.486H316.648V49.9322Z" fill="#3F3D56"/>
<path d="M46.8057 204.922V223.258C46.8057 224.793 47.4155 226.265 48.5011 227.351C49.5867 228.436 51.059 229.046 52.5943 229.046H310.86C312.395 229.046 313.867 228.436 314.953 227.351C316.038 226.265 316.648 224.793 316.648 223.258V204.922H46.8057Z" fill="#D0D2D5"/>
<path d="M306.819 53.9141H57.9761V194.644H306.819V53.9141Z" fill="white"/>
<path d="M183.069 222.088C183.982 222.089 184.884 221.882 185.706 221.483C186.528 221.084 187.249 220.503 187.813 219.784C187.984 219.565 188.141 219.335 188.282 219.096L184.969 218.537L188.548 218.56C188.891 217.814 189.078 217.005 189.098 216.184C189.117 215.363 188.969 214.546 188.662 213.784L183.863 216.272L188.29 213.018C187.874 212.303 187.316 211.681 186.65 211.192C185.984 210.702 185.224 210.354 184.418 210.17C183.611 209.987 182.776 209.971 181.963 210.123C181.151 210.276 180.378 210.594 179.694 211.058C179.009 211.522 178.427 212.121 177.984 212.82C177.541 213.518 177.247 214.3 177.119 215.117C176.991 215.934 177.032 216.768 177.24 217.568C177.448 218.369 177.818 219.117 178.328 219.769C178.89 220.49 179.61 221.073 180.431 221.475C181.252 221.877 182.154 222.086 183.069 222.088Z" fill="#6C63FF"/>
<path opacity="0.1" d="M189.1 229.042L216.904 256.968L212.637 229.042H189.1Z" fill="black"/>
<path opacity="0.1" d="M306.893 53.9297H57.7803V62.1511H306.893V53.9297Z" fill="#444053"/>
<path opacity="0.3" d="M219.102 55.3613H144.5C144.375 55.3613 144.273 55.4629 144.273 55.5882V60.1369C144.273 60.2622 144.375 60.3638 144.5 60.3638H219.102C219.228 60.3638 219.329 60.2622 219.329 60.1369V55.5882C219.329 55.4629 219.228 55.3613 219.102 55.3613Z" fill="#6C63FF"/>
<path d="M217.1 58.3801H216.916L216.849 58.3215C217.077 58.048 217.202 57.7034 217.201 57.3476C217.199 57.0555 217.11 56.7707 216.946 56.529C216.782 56.2873 216.55 56.0997 216.28 55.9897C216.009 55.8797 215.712 55.8523 215.426 55.911C215.14 55.9697 214.878 56.1118 214.672 56.3194C214.467 56.527 214.327 56.7908 214.272 57.0776C214.216 57.3643 214.247 57.6611 214.359 57.9305C214.472 58.1999 214.662 58.4298 214.906 58.5913C215.149 58.7527 215.435 58.8385 215.727 58.8377C216.083 58.8365 216.428 58.7105 216.701 58.4818L216.767 58.5405V58.7243L217.913 59.8703L218.254 59.5261L217.1 58.3801ZM215.727 58.3801C215.523 58.3809 215.323 58.321 215.152 58.208C214.982 58.095 214.849 57.934 214.77 57.7454C214.691 57.5568 214.67 57.3491 214.71 57.1485C214.749 56.948 214.847 56.7636 214.992 56.6188C215.136 56.474 215.32 56.3753 215.52 56.3351C215.721 56.295 215.928 56.3152 216.117 56.3932C216.306 56.4713 216.468 56.6036 216.581 56.7735C216.695 56.9434 216.756 57.1432 216.756 57.3476C216.757 57.4831 216.731 57.6175 216.679 57.743C216.628 57.8685 216.553 57.9826 216.457 58.0786C216.361 58.1746 216.247 58.2508 216.122 58.3025C215.997 58.3543 215.863 58.3806 215.727 58.3801Z" fill="#3F3D56"/>
<path opacity="0.8" d="M62.2587 59.5458C63.0904 59.5458 63.7646 58.8716 63.7646 58.04C63.7646 57.2084 63.0904 56.5342 62.2587 56.5342C61.4271 56.5342 60.7529 57.2084 60.7529 58.04C60.7529 58.8716 61.4271 59.5458 62.2587 59.5458Z" fill="#FA5959"/>
<path opacity="0.8" d="M66.4008 59.5458C67.2325 59.5458 67.9067 58.8716 67.9067 58.04C67.9067 57.2084 67.2325 56.5342 66.4008 56.5342C65.5692 56.5342 64.895 57.2084 64.895 58.04C64.895 58.8716 65.5692 59.5458 66.4008 59.5458Z" fill="#FED253"/>
<path opacity="0.8" d="M70.5468 59.5458C71.3785 59.5458 72.0527 58.8716 72.0527 58.04C72.0527 57.2084 71.3785 56.5342 70.5468 56.5342C69.7152 56.5342 69.041 57.2084 69.041 58.04C69.041 58.8716 69.7152 59.5458 70.5468 59.5458Z" fill="#8CCF4D"/>
<path d="M195.58 114.299C192.166 109.762 187.218 106.899 181.711 106.899C176.204 106.899 171.256 109.762 167.842 114.299C168.597 116.151 169.714 117.833 171.127 119.247C172.874 120.993 175.026 122.28 177.391 122.993C179.756 123.706 182.26 123.822 184.681 123.332C187.102 122.843 189.364 121.762 191.265 120.185C193.167 118.609 194.649 116.587 195.58 114.299Z" fill="#6C63FF"/>
<path d="M166.039 116.955C165.796 116.851 165.565 116.719 165.35 116.564C165.026 116.299 164.767 115.963 164.592 115.582C164.815 115.123 164.909 114.611 164.864 114.101C164.818 113.592 164.634 113.105 164.332 112.693C164.029 112.281 163.62 111.959 163.148 111.762C162.677 111.565 162.16 111.5 161.654 111.575C161.149 111.65 160.673 111.862 160.279 112.188C159.884 112.513 159.587 112.94 159.417 113.422C159.248 113.905 159.213 114.424 159.317 114.925C159.421 115.425 159.66 115.888 160.008 116.263C160.204 116.471 160.428 116.651 160.673 116.799C160.991 116.983 161.25 117.254 161.42 117.581C161.74 118.227 162.18 118.806 162.718 119.286C163.27 119.759 163.866 120.179 164.498 120.538C163.628 123 163.135 125.579 163.035 128.188C162.024 128.205 161.02 128.367 160.055 128.669C159.56 128.823 159.094 129.055 158.674 129.358C158.561 129.344 158.447 129.336 158.334 129.334C157.821 129.334 157.317 129.475 156.878 129.74C156.439 130.006 156.081 130.387 155.843 130.841C155.604 131.296 155.495 131.807 155.527 132.319C155.558 132.831 155.729 133.325 156.022 133.747C156.314 134.169 156.716 134.503 157.184 134.713C157.653 134.923 158.169 135 158.679 134.937C159.188 134.874 159.67 134.673 160.074 134.356C160.477 134.038 160.785 133.616 160.966 133.136C161.077 132.826 161.271 132.553 161.527 132.346C161.783 132.139 162.091 132.006 162.417 131.962C162.657 131.933 162.899 131.918 163.141 131.916C163.477 135.596 164.618 139.157 166.485 142.347C164.826 143.634 163.805 145.038 163.375 146.594C163.295 146.639 163.22 146.693 163.152 146.755C163.034 146.847 162.925 146.949 162.824 147.06C162.489 147.428 162.258 147.879 162.154 148.367C162.051 148.854 162.079 149.36 162.236 149.833C162.393 150.306 162.672 150.728 163.046 151.057C163.42 151.386 163.875 151.61 164.364 151.705C164.853 151.801 165.358 151.764 165.829 151.6C166.299 151.435 166.717 151.149 167.04 150.77C167.363 150.39 167.579 149.932 167.666 149.442C167.754 148.951 167.709 148.446 167.537 147.979C167.409 147.639 167.384 147.27 167.466 146.916C167.547 146.563 167.731 146.241 167.994 145.992C168.182 145.816 168.386 145.628 168.659 145.421C171.831 149.125 175.606 151.499 180.319 151.781V126.651C174.088 126.311 168.659 122.255 166.039 116.955ZM205.084 129.362C204.971 129.363 204.857 129.371 204.744 129.385C204.32 129.089 203.855 128.858 203.364 128.697C202.398 128.394 201.395 128.232 200.383 128.216C200.275 125.609 199.782 123.032 198.92 120.569C199.552 120.21 200.148 119.791 200.7 119.318C201.255 118.81 201.711 118.204 202.045 117.53C202.202 117.238 202.443 116.999 202.738 116.846C203.215 116.577 203.603 116.176 203.855 115.69C204.107 115.204 204.211 114.655 204.155 114.11C204.099 113.566 203.885 113.049 203.54 112.625C203.194 112.2 202.732 111.886 202.21 111.721C201.688 111.555 201.13 111.546 200.603 111.694C200.076 111.842 199.603 112.141 199.244 112.553C198.884 112.966 198.653 113.475 198.579 114.017C198.505 114.559 198.591 115.112 198.827 115.606C198.654 115.988 198.394 116.324 198.068 116.587C197.848 116.769 197.618 116.937 197.379 117.092C194.759 122.388 189.334 126.33 183.111 126.671V151.824C187.805 151.542 191.603 149.156 194.771 145.464C195.017 145.66 195.224 145.836 195.4 146C195.675 146.254 195.868 146.584 195.956 146.948C196.043 147.312 196.022 147.694 195.893 148.045C195.722 148.512 195.678 149.016 195.765 149.506C195.853 149.995 196.069 150.453 196.391 150.832C196.713 151.211 197.13 151.497 197.6 151.662C198.069 151.826 198.573 151.864 199.062 151.769C199.55 151.675 200.005 151.453 200.379 151.126C200.753 150.798 201.034 150.377 201.192 149.906C201.35 149.434 201.381 148.929 201.28 148.442C201.179 147.955 200.95 147.504 200.618 147.134C200.517 147.023 200.407 146.921 200.289 146.829C200.16 146.727 200.066 146.669 200.066 146.669C199.636 145.104 198.619 143.708 196.937 142.421C198.804 139.231 199.946 135.67 200.281 131.99C200.513 131.993 200.744 132.008 200.974 132.037C201.307 132.08 201.622 132.211 201.887 132.418C202.152 132.624 202.356 132.898 202.48 133.21C202.713 133.805 203.143 134.303 203.698 134.621C204.252 134.939 204.899 135.058 205.53 134.958C206.162 134.859 206.741 134.547 207.171 134.074C207.601 133.601 207.857 132.996 207.897 132.358C207.916 131.974 207.858 131.591 207.726 131.231C207.594 130.871 207.391 130.541 207.128 130.261C206.865 129.981 206.549 129.758 206.198 129.603C205.847 129.448 205.468 129.366 205.084 129.362Z" fill="#6C63FF"/>
<path d="M266.354 291.798C266.127 291.437 265.84 291.119 265.505 290.855C263.796 289.24 263.002 286.869 262.58 284.546C262.157 282.223 262.036 279.853 261.359 277.58C260.991 276.415 260.531 275.281 259.983 274.189C259.591 273.352 259.099 271.713 258.383 271.127C258.242 271.005 258.072 270.923 257.89 270.888C257.552 270.17 257.07 269.528 256.474 269.003C255.356 267.99 253.991 267.184 253.244 265.874C253.038 265.42 252.785 264.988 252.489 264.587C251.984 264.032 251.186 263.805 250.721 263.218C250.115 262.46 250.251 261.372 250.33 260.406C250.408 259.44 250.33 258.282 249.493 257.774C248.992 257.465 248.347 257.496 247.827 257.222C247.044 256.831 246.735 255.846 246.751 254.966C246.767 254.086 247.04 253.229 247.111 252.349C247.33 249.549 245.484 246.764 246.196 244.049C246.465 243.021 247.083 242.129 247.541 241.171C247.701 240.852 247.831 240.519 247.932 240.177C249.152 240.661 250.435 240.971 251.742 241.096C249.587 236.262 250.134 230.646 249.129 225.452L249.258 225.276C250.273 223.936 250.85 222.316 250.909 220.637C250.909 218.705 250.005 216.898 249.598 215.005C249.25 213.397 249.266 211.715 248.816 210.135C248.504 209.153 248.09 208.207 247.58 207.311C247.093 206.407 246.58 205.516 246.043 204.64C245.542 202.982 245.04 201.323 244.537 199.665C243.833 197.338 243.11 194.972 241.741 192.961C241.24 192.226 241.088 190.732 240.317 190.286C239.691 189.962 238.982 189.838 238.283 189.93C237.196 189.32 236.242 188.44 236.105 187.235C236.091 186.972 236.117 186.708 236.183 186.453H236.316C238.037 186.296 238.909 184.779 239.805 183.449C241.252 181.298 240.7 178.388 239.805 175.94C239.583 175.167 239.18 174.458 238.631 173.871C237.376 172.697 235.389 172.955 233.77 172.388C233.226 172.2 232.717 171.915 232.162 171.782C231.087 171.532 229.96 171.884 228.974 172.38C227.989 172.877 227.07 173.519 226.037 173.91C225.005 174.301 223.73 174.61 223.475 175.67C223.404 176.027 223.434 176.396 223.561 176.737C223.799 177.418 224.217 178.02 224.77 178.482C224.33 179.388 224.092 180.379 224.073 181.387C224.053 182.394 224.253 183.393 224.657 184.316C225.061 185.239 225.66 186.063 226.414 186.732C227.167 187.401 228.057 187.898 229.021 188.189C229.319 188.667 229.596 189.152 229.851 189.648C230.304 190.524 230.688 191.557 230.531 192.496C230.248 192.796 229.987 193.117 229.749 193.454C228.626 195.018 227.989 196.853 227.402 198.683C226.614 201.02 225.983 203.408 225.513 205.829C224.559 207.859 223.393 209.799 222.701 211.931C221.461 211.932 220.227 211.766 219.032 211.438L215.731 210.691C214.581 210.429 213.384 210.147 212.485 209.388C212.008 208.997 211.636 208.477 211.151 208.09C210.666 207.703 209.692 207.249 209.16 207.57C209.063 207.629 208.973 207.698 208.89 207.777C208.405 206.795 207.944 205.821 207.381 204.871C206.571 203.541 205.366 202.325 203.841 202.07C202.909 201.92 201.955 202.142 201.185 202.688C200.294 203.322 199.734 204.644 200.403 205.536C200.57 205.734 200.752 205.92 200.947 206.091C201.399 206.613 201.804 207.174 202.155 207.769C203.416 209.539 205.302 210.763 207.431 211.195L207.295 211.586C207.017 212.4 206.426 213.382 206.575 214.226L221.258 219.252C222.2 219.635 223.199 219.855 224.215 219.906C224.611 219.902 225.005 219.85 225.388 219.749V220.5V220.531C225.427 225.69 224.606 230.814 224.453 235.969C224.426 236.911 224.453 237.924 225.048 238.66C225.713 239.466 226.894 239.626 227.922 239.442C228.17 239.4 228.413 239.346 228.65 239.278C228.998 240.575 229.249 241.897 229.401 243.232L230.371 250.217C230.496 250.933 230.547 251.659 230.523 252.384C230.41 254.023 229.546 255.49 228.92 257.003C228.294 258.517 227.922 260.328 228.744 261.744C229.002 262.182 229.358 262.553 229.589 263.007C229.882 263.71 230.015 264.468 229.98 265.229C230.04 267.336 230.097 269.445 230.152 271.557C229.981 271.529 229.806 271.564 229.659 271.655C228.845 272.288 228.935 275.304 228.877 276.239C228.814 277.803 228.877 279.399 228.791 280.979C228.689 283.109 228.346 285.22 227.77 287.272C227.629 287.939 227.321 288.56 226.874 289.075C226.417 289.473 225.871 289.756 225.282 289.901C223.334 290.511 221.296 290.789 219.255 290.722C218.43 290.695 217.569 290.616 216.803 290.929C216.036 291.242 215.418 292.103 215.696 292.885C215.934 293.542 216.658 293.855 217.311 294.101C218.803 294.627 220.244 295.289 221.614 296.08C222.141 296.44 222.697 296.755 223.276 297.023C223.831 297.222 224.405 297.364 224.989 297.445L231.924 298.642C233.343 298.885 235.052 299.033 235.956 297.86C236.445 297.226 236.515 296.366 236.492 295.56C236.453 293.996 236.14 292.404 236.343 290.839C236.498 289.914 236.741 289.007 237.071 288.129C237.762 286.077 238.455 284.026 239.151 281.977C239.848 279.919 240.552 277.842 240.822 275.683C240.919 274.901 240.911 274.009 240.313 273.52C240.162 273.396 239.986 273.306 239.797 273.255C239.773 271.369 239.527 269.48 239.633 267.595C239.66 267.126 239.707 266.656 239.746 266.183C240.108 266.528 240.432 266.91 240.712 267.325C241.381 268.373 241.627 269.758 242.648 270.454C243.516 271.049 244.803 271.017 245.413 271.878C245.609 272.208 245.757 272.565 245.851 272.938C246.205 273.86 246.737 274.704 247.416 275.421C247.649 276.28 247.973 277.111 248.382 277.901C248.958 279.119 249.532 280.333 250.103 281.542C250.69 282.848 251.343 284.124 252.058 285.364C252.605 286.144 253.046 286.994 253.369 287.89C253.92 289.822 253.021 291.942 251.597 293.366C250.173 294.79 248.296 295.607 246.446 296.37C246.251 296.436 246.072 296.542 245.922 296.683C245.761 296.873 245.677 297.115 245.683 297.363C245.683 298.267 246.426 299.041 247.279 299.319C248.151 299.553 249.064 299.586 249.95 299.417C254.949 298.81 259.932 297.59 264.351 295.161C265.012 294.848 265.598 294.396 266.068 293.835C266.296 293.553 266.442 293.215 266.492 292.856C266.543 292.497 266.495 292.131 266.354 291.798Z" fill="url(#paint0_linear_9700_9887)"/>
<path d="M245.229 204.088C246.064 205.369 246.846 206.68 247.576 208.023C248.088 208.911 248.503 209.851 248.816 210.827C249.27 212.392 249.258 214.062 249.598 215.658C249.989 217.535 250.905 219.327 250.905 221.251C250.845 222.918 250.268 224.526 249.254 225.85C248.243 227.164 247.086 228.358 245.804 229.41C242.851 221.758 241.201 213.666 240.923 205.469C240.884 204.335 240.876 203.165 241.291 202.105C241.545 201.441 242.765 199.618 243.551 200.334C243.837 200.596 243.911 201.777 244.087 202.172C244.417 202.84 244.799 203.481 245.229 204.088Z" fill="#2F2E41"/>
<path opacity="0.1" d="M245.229 204.088C246.064 205.369 246.846 206.68 247.576 208.023C248.088 208.911 248.503 209.851 248.816 210.827C249.27 212.392 249.258 214.062 249.598 215.658C249.989 217.535 250.905 219.327 250.905 221.251C250.845 222.918 250.268 224.526 249.254 225.85C248.243 227.164 247.086 228.358 245.804 229.41C242.851 221.758 241.201 213.666 240.923 205.469C240.884 204.335 240.876 203.165 241.291 202.105C241.545 201.441 242.765 199.618 243.551 200.334C243.837 200.596 243.911 201.777 244.087 202.172C244.417 202.84 244.799 203.481 245.229 204.088Z" fill="black"/>
<path d="M142.114 150.728C139.02 153.818 138.649 155.179 136.791 155.793C134.933 156.407 128.249 159.869 130.349 163.706L135.997 167.437L136.161 167.547L137.026 170.144L128.484 185.35C128.484 185.35 114.403 178.913 113.023 188.436C111.642 197.96 112.518 200.561 112.146 205.646C111.775 210.73 112.268 212.201 111.028 212.201C109.788 212.201 109.299 208.861 109.299 208.861C109.299 208.861 109.221 208.708 109.084 208.423C107.242 204.594 94.7376 176.484 114.767 157.162C114.767 157.162 124.044 156.552 126.278 145.914C127.819 138.561 133.208 139.194 136.791 140.692C137.955 141.149 139.04 141.786 140.006 142.581C140.875 143.404 141.648 144.322 142.31 145.319C143.331 146.931 143.886 148.953 142.114 150.728Z" fill="#D0D2D5"/>
<path opacity="0.1" d="M136.161 167.546L137.025 170.143L128.483 185.35C128.483 185.35 114.403 178.912 113.022 188.436C111.642 197.96 112.518 200.561 112.146 205.645C111.774 210.73 112.267 212.2 111.027 212.2C109.788 212.2 109.299 208.86 109.299 208.86C109.299 208.86 109.22 208.708 109.084 208.422C108.462 203.666 105.309 175.846 116.738 177.324C116.738 177.324 126.011 181.658 127.494 179.929C128.667 178.56 133.877 170.687 135.997 167.456L136.161 167.546Z" fill="black"/>
<path opacity="0.1" d="M142.31 145.295L136.662 151.713C136.662 151.713 130.103 160.49 128.742 160.118C128.334 160.03 127.919 159.981 127.502 159.974C127.048 159.939 126.613 159.776 126.247 159.504C125.882 159.233 125.601 158.863 125.438 158.438C125.274 158.013 125.234 157.55 125.322 157.104C125.411 156.657 125.624 156.244 125.937 155.914C128.174 153.567 132.297 149.112 132.567 148.123C132.837 147.133 135.461 142.796 136.775 140.672C137.94 141.128 139.025 141.766 139.99 142.561C140.864 143.382 141.642 144.299 142.31 145.295Z" fill="black"/>
<path d="M302.106 237.635C301.148 239.551 296.239 246.74 294.092 249.881L293.087 251.359C293.087 251.359 292.696 253.956 286.285 250.738C279.875 247.519 129.258 183.965 129.258 183.965L128.237 180.899L135.668 169.771L300.749 233.552C300.749 233.552 303.346 235.159 302.106 237.635Z" fill="#454B69"/>
<path opacity="0.1" d="M294.092 249.882L293.087 251.36C293.087 251.36 292.696 253.957 286.285 250.738C279.875 247.519 129.258 183.966 129.258 183.966L128.237 180.899L294.092 249.882Z" fill="black"/>
<path d="M203.243 208.368C201.713 208.117 200.016 208.239 198.827 209.232C198.108 209.841 197.654 210.704 197.56 211.641C197.458 212.725 198.088 214.012 199.175 214.094C199.437 214.097 199.698 214.08 199.957 214.043C200.644 214.04 201.33 214.098 202.007 214.215C203.339 214.34 204.681 214.144 205.922 213.643C207.163 213.142 208.265 212.351 209.137 211.336C210.071 210.163 208.839 209.655 207.737 209.42C206.227 209.099 204.752 208.61 203.243 208.368Z" fill="#FBBEBE"/>
<path d="M229.401 243.689L230.371 250.581C230.494 251.292 230.544 252.014 230.519 252.736C230.406 254.359 229.542 255.814 228.92 257.316C228.298 258.818 227.918 260.617 228.744 262.01C228.998 262.444 229.354 262.815 229.585 263.265C229.878 263.961 230.011 264.713 229.976 265.467L230.242 275.245C233.261 275.451 236.291 275.434 239.308 275.194C239.426 275.2 239.542 275.164 239.636 275.093C239.716 274.992 239.756 274.865 239.75 274.737C239.883 272.449 239.484 270.157 239.613 267.869C239.66 267.032 239.777 266.198 239.793 265.358C239.84 261.951 238.158 258.615 238.666 255.247C238.826 254.397 239.035 253.558 239.292 252.732C240.9 246.865 240.559 240.701 240.204 234.643C240.21 234.545 240.182 234.449 240.125 234.369C240.068 234.311 239.994 234.272 239.914 234.256C238.203 233.742 236.393 233.648 234.638 233.982C232.883 234.315 231.234 235.067 229.831 236.172C229.405 236.516 228.329 236.849 228.048 237.259C227.656 237.83 228.169 238.401 228.396 239.008C228.898 240.528 229.235 242.097 229.401 243.689Z" fill="#3F3D56"/>
<path opacity="0.1" d="M229.401 243.689L230.371 250.581C230.494 251.292 230.544 252.014 230.519 252.736C230.406 254.359 229.542 255.814 228.92 257.316C228.298 258.818 227.918 260.617 228.744 262.01C228.998 262.444 229.354 262.815 229.585 263.265C229.878 263.961 230.011 264.713 229.976 265.467L230.242 275.245C233.261 275.451 236.291 275.434 239.308 275.194C239.426 275.2 239.542 275.164 239.636 275.093C239.716 274.992 239.756 274.865 239.75 274.737C239.883 272.449 239.484 270.157 239.613 267.869C239.66 267.032 239.777 266.198 239.793 265.358C239.84 261.951 238.158 258.615 238.666 255.247C238.826 254.397 239.035 253.558 239.292 252.732C240.9 246.865 240.559 240.701 240.204 234.643C240.21 234.545 240.182 234.449 240.125 234.369C240.068 234.311 239.994 234.272 239.914 234.256C238.203 233.742 236.393 233.648 234.638 233.982C232.883 234.315 231.234 235.067 229.831 236.172C229.405 236.516 228.329 236.849 228.048 237.259C227.656 237.83 228.169 238.401 228.396 239.008C228.898 240.528 229.235 242.097 229.401 243.689Z" fill="black"/>
<path d="M247.537 241.613C247.079 242.564 246.465 243.448 246.192 244.469C245.48 247.163 247.322 249.944 247.103 252.706C247.032 253.578 246.763 254.427 246.743 255.299C246.723 256.171 247.044 257.141 247.819 257.544C248.339 257.81 248.992 257.782 249.481 258.087C250.306 258.592 250.4 259.738 250.318 260.7C250.236 261.662 250.099 262.738 250.709 263.489C251.174 264.072 251.972 264.298 252.473 264.85C252.771 265.246 253.024 265.673 253.228 266.125C253.975 267.431 255.34 268.229 256.458 269.254C257.577 270.279 258.524 271.781 258.023 273.2C257.655 274.241 256.623 274.882 255.629 275.371C253.817 276.267 251.904 276.943 249.931 277.385C249.719 277.449 249.495 277.462 249.277 277.421C249.057 277.34 248.861 277.206 248.706 277.029C247.553 275.899 246.36 274.714 245.828 273.193C245.733 272.824 245.586 272.471 245.39 272.144C244.78 271.288 243.493 271.319 242.625 270.729C241.608 270.036 241.361 268.663 240.696 267.627C240.031 266.59 239.057 265.972 238.35 265.061C237.153 263.544 236.859 261.518 236.003 259.785C235.639 259.05 235.174 258.361 234.884 257.595C234.592 256.676 234.412 255.725 234.348 254.763C233.797 250.195 232.393 245.595 233.277 241.074C233.472 240.08 233.773 239.118 233.899 238.093C234.114 236.322 233.773 234.507 234.035 232.739C234.042 232.517 234.098 232.299 234.201 232.102C234.303 231.905 234.448 231.734 234.626 231.601C234.837 231.506 235.067 231.459 235.299 231.464C237.617 231.34 239.942 231.392 242.253 231.62C243.426 231.734 244.74 231.972 245.444 232.931C246.043 233.752 246.012 234.851 246.203 235.848C246.442 237.076 247.064 237.745 247.717 238.707C248.37 239.67 248.018 240.62 247.537 241.613Z" fill="#3F3D56"/>
<path d="M238.514 273.395C239.132 273.395 239.816 273.356 240.293 273.747C240.888 274.236 240.896 275.132 240.802 275.895C240.528 278.038 239.828 280.099 239.128 282.153L237.047 288.258C236.718 289.129 236.474 290.03 236.319 290.949C236.116 292.513 236.429 294.078 236.468 295.642C236.468 296.425 236.417 297.293 235.928 297.923C235.044 299.061 233.32 298.928 231.9 298.705L224.973 297.531C224.389 297.454 223.814 297.313 223.26 297.113C222.682 296.846 222.126 296.534 221.598 296.178C220.227 295.395 218.787 294.74 217.295 294.223C216.646 293.98 215.919 293.671 215.684 293.018C215.406 292.236 216.024 291.375 216.791 291.062C217.557 290.749 218.414 290.828 219.243 290.851C221.282 290.916 223.318 290.641 225.266 290.038C225.853 289.894 226.398 289.612 226.854 289.216C227.318 288.695 227.634 288.059 227.77 287.374C228.36 285.336 228.711 283.236 228.818 281.116C228.9 279.552 228.845 277.987 228.908 276.423C228.947 275.496 228.857 272.511 229.67 271.874C230.292 271.397 232.85 272.715 233.691 272.906C235.272 273.269 236.892 273.433 238.514 273.395Z" fill="#2F2E41"/>
<path d="M261.332 277.744C262.009 279.985 262.114 282.356 262.552 284.659C262.99 286.963 263.765 289.314 265.474 290.917C265.807 291.181 266.093 291.498 266.323 291.856C266.467 292.191 266.516 292.559 266.464 292.92C266.412 293.281 266.262 293.621 266.029 293.902C265.557 294.458 264.972 294.907 264.312 295.22C259.897 297.629 254.925 298.845 249.915 299.448C249.03 299.613 248.119 299.58 247.248 299.35C246.395 299.06 245.64 298.294 245.656 297.394C245.648 297.147 245.731 296.906 245.891 296.718C246.043 296.578 246.223 296.473 246.419 296.409C248.265 295.65 250.138 294.825 251.566 293.424C252.993 292.024 253.889 289.904 253.337 288.003C253.011 287.113 252.568 286.27 252.019 285.496C251.304 284.267 250.652 283.002 250.064 281.706L248.343 278.096C247.838 277.04 247.33 275.953 247.244 274.787C249.406 274.884 251.565 274.538 253.588 273.77C254.532 273.385 255.412 272.858 256.197 272.206C256.861 271.651 257.468 270.614 258.363 271.338C259.083 271.917 259.537 273.548 259.959 274.373C260.508 275.457 260.967 276.585 261.332 277.744Z" fill="#2F2E41"/>
<path d="M236.112 188.104C236.285 189.606 237.739 190.595 239.128 191.19L230.339 193.994C230.907 192.907 230.449 191.577 229.886 190.474C229.427 189.601 228.904 188.763 228.321 187.967C228.235 187.846 228.137 187.693 228.2 187.552C228.256 187.46 228.344 187.392 228.446 187.361C230.253 186.555 232.115 185.722 234.09 185.429C234.661 185.346 235.741 185.12 236.167 185.699C236.593 186.277 236.03 187.412 236.112 188.104Z" fill="#FBBEBE"/>
<path opacity="0.1" d="M236.112 188.104C236.285 189.606 237.739 190.595 239.128 191.19L230.339 193.994C230.907 192.907 230.449 191.577 229.886 190.474C229.427 189.601 228.904 188.763 228.321 187.967C228.235 187.846 228.137 187.693 228.2 187.552C228.256 187.46 228.344 187.392 228.446 187.361C230.253 186.555 232.115 185.722 234.09 185.429C234.661 185.346 235.741 185.12 236.167 185.699C236.593 186.277 236.03 187.412 236.112 188.104Z" fill="black"/>
<path d="M231.004 189.32C234.81 189.32 237.896 186.235 237.896 182.429C237.896 178.623 234.81 175.537 231.004 175.537C227.198 175.537 224.113 178.623 224.113 182.429C224.113 186.235 227.198 189.32 231.004 189.32Z" fill="#FBBEBE"/>
<path d="M225.032 239.141C225.7 239.943 226.878 240.1 227.906 239.924C230.312 239.532 232.279 237.761 234.634 237.123C237.52 236.341 240.575 237.346 243.301 238.578C246.027 239.81 248.738 241.316 251.718 241.527C249.023 235.52 250.564 228.292 247.987 222.233C247.357 220.751 246.477 219.323 246.336 217.72C246.16 215.729 247.153 213.808 247.306 211.829C247.447 210.065 246.915 208.309 246.406 206.627C245.778 204.562 245.15 202.497 244.521 200.432C243.817 198.12 243.094 195.77 241.729 193.783C241.224 193.052 241.072 191.569 240.305 191.127C238.631 190.161 236.093 191.378 234.278 191.444C232.463 191.511 230.809 192.801 229.749 194.26C228.626 195.801 227.989 197.635 227.402 199.45C226.468 202.152 225.77 204.931 225.317 207.754C225.258 208.176 225.208 208.599 225.169 209.025C224.777 213.042 225.348 217.082 225.38 221.118V221.146C225.419 226.266 224.597 231.354 224.445 236.47C224.429 237.405 224.453 238.426 225.032 239.141Z" fill="#2F2E41"/>
<path opacity="0.1" d="M225.391 221.122C226.741 220.782 227.961 219.909 229.009 218.955C229.917 218.143 230.723 217.223 231.411 216.217C232.276 214.865 232.971 213.41 233.48 211.888C234.928 207.815 235.848 203.573 236.218 199.266C236.319 198.093 236.351 196.833 235.651 195.902C235.257 195.398 234.705 195.042 234.084 194.891C233.463 194.741 232.809 194.805 232.228 195.073C231.305 195.523 230.707 196.434 230.151 197.306C229.052 199.035 227.945 200.787 227.238 202.712C226.925 203.564 226.694 204.441 226.389 205.297C226.079 206.142 225.721 206.969 225.317 207.773C225.258 208.195 225.208 208.618 225.168 209.044C224.805 213.061 225.36 217.086 225.391 221.122Z" fill="black"/>
<path d="M235.631 195.148C236.331 196.078 236.3 197.35 236.202 198.507C235.833 202.814 234.913 207.056 233.464 211.129C232.96 212.664 232.265 214.131 231.395 215.494C230.707 216.499 229.901 217.418 228.994 218.232C227.664 219.444 226.045 220.527 224.242 220.543C223.227 220.495 222.227 220.277 221.285 219.898L206.598 214.899C206.45 214.062 207.04 213.084 207.318 212.279L208.1 209.959C208.323 209.318 208.581 208.626 209.164 208.277C209.747 207.929 210.67 208.407 211.155 208.794C211.64 209.181 212.008 209.689 212.485 210.084C213.388 210.835 214.581 211.117 215.731 211.375L219.028 212.114C220.224 212.442 221.458 212.606 222.697 212.603C223.616 209.795 225.364 207.323 226.354 204.538C226.659 203.686 226.89 202.806 227.207 201.953C227.911 200.029 229.021 198.28 230.12 196.548C230.672 195.679 231.27 194.768 232.197 194.314C232.779 194.043 233.436 193.977 234.06 194.129C234.685 194.28 235.239 194.639 235.631 195.148Z" fill="#2F2E41"/>
<path d="M233.202 183.985C233.15 183.532 233.009 183.093 232.788 182.695C232.673 182.495 232.497 182.337 232.286 182.244C232.075 182.151 231.84 182.128 231.614 182.178C230.926 182.393 230.695 183.457 229.976 183.492C229.491 183.516 229.143 183.023 228.99 182.562C228.838 182.1 228.755 181.572 228.392 181.247C228.138 181.058 227.848 180.925 227.539 180.856C225.869 180.328 224.144 179.354 223.589 177.692C223.458 177.355 223.427 176.987 223.499 176.632C223.753 175.58 225.063 175.263 226.061 174.884C227.058 174.504 228.016 173.855 228.994 173.362C229.972 172.87 231.106 172.521 232.182 172.772C232.727 172.943 233.264 173.143 233.789 173.37C235.408 173.933 237.391 173.671 238.647 174.841C239.195 175.421 239.598 176.123 239.82 176.89C240.696 179.323 241.252 182.21 239.801 184.345C238.905 185.663 238.037 187.169 236.316 187.329C234.313 187.497 233.519 185.683 233.202 183.985Z" fill="#2F2E41"/>
<g opacity="0.1">
<path d="M230.144 181.733C229.991 181.271 229.909 180.743 229.549 180.419C229.296 180.229 229.005 180.096 228.697 180.027C227.023 179.499 225.302 178.526 224.742 176.863C224.615 176.525 224.585 176.158 224.656 175.803C224.695 175.636 224.765 175.478 224.864 175.338C224.226 175.616 223.671 175.983 223.514 176.633C223.442 176.987 223.474 177.355 223.604 177.692C224.16 179.355 225.885 180.329 227.555 180.857C227.863 180.925 228.154 181.058 228.407 181.248C228.771 181.572 228.849 182.096 229.006 182.562C229.162 183.027 229.506 183.516 229.991 183.493C230.476 183.469 230.711 183.027 231.02 182.656C230.594 182.601 230.285 182.163 230.144 181.733Z" fill="black"/>
<path d="M237.466 186.489C235.455 186.673 234.661 184.842 234.337 183.156C234.294 182.704 234.161 182.266 233.945 181.866C233.83 181.666 233.654 181.509 233.443 181.416C233.232 181.324 232.997 181.3 232.772 181.349C232.415 181.523 232.115 181.794 231.908 182.132C232.087 182.149 232.26 182.207 232.414 182.302C232.567 182.397 232.696 182.526 232.792 182.679C233.013 183.078 233.154 183.517 233.206 183.97C233.523 185.656 234.317 187.49 236.335 187.302C237.133 187.214 237.869 186.832 238.4 186.231C238.105 186.368 237.789 186.456 237.466 186.489Z" fill="black"/>
</g>
<path d="M318.025 259.244C325 259.244 330.654 258.157 330.654 256.816C330.654 255.474 325 254.387 318.025 254.387C311.05 254.387 305.396 255.474 305.396 256.816C305.396 258.157 311.05 259.244 318.025 259.244Z" fill="#6C63FF"/>
<path d="M317.813 257.708C318.626 257.708 319.284 256.846 319.284 255.784C319.284 254.721 318.626 253.859 317.813 253.859C317.001 253.859 316.343 254.721 316.343 255.784C316.343 256.846 317.001 257.708 317.813 257.708Z" fill="#3F3D56"/>
<path d="M317.813 255.354C318.626 255.354 319.284 254.492 319.284 253.429C319.284 252.366 318.626 251.505 317.813 251.505C317.001 251.505 316.343 252.366 316.343 253.429C316.343 254.492 317.001 255.354 317.813 255.354Z" fill="#3F3D56"/>
<path d="M317.813 253.002C318.626 253.002 319.284 252.14 319.284 251.078C319.284 250.015 318.626 249.153 317.813 249.153C317.001 249.153 316.343 250.015 316.343 251.078C316.343 252.14 317.001 253.002 317.813 253.002Z" fill="#3F3D56"/>
<path d="M317.813 250.647C318.626 250.647 319.284 249.786 319.284 248.723C319.284 247.66 318.626 246.799 317.813 246.799C317.001 246.799 316.343 247.66 316.343 248.723C316.343 249.786 317.001 250.647 317.813 250.647Z" fill="#3F3D56"/>
<path d="M317.813 248.293C318.626 248.293 319.284 247.431 319.284 246.369C319.284 245.306 318.626 244.444 317.813 244.444C317.001 244.444 316.343 245.306 316.343 246.369C316.343 247.431 317.001 248.293 317.813 248.293Z" fill="#3F3D56"/>
<path d="M317.813 245.942C318.626 245.942 319.284 245.081 319.284 244.018C319.284 242.955 318.626 242.094 317.813 242.094C317.001 242.094 316.343 242.955 316.343 244.018C316.343 245.081 317.001 245.942 317.813 245.942Z" fill="#3F3D56"/>
<path d="M317.813 243.588C318.626 243.588 319.284 242.726 319.284 241.664C319.284 240.601 318.626 239.739 317.813 239.739C317.001 239.739 316.343 240.601 316.343 241.664C316.343 242.726 317.001 243.588 317.813 243.588Z" fill="#3F3D56"/>
<path d="M323.317 225.577C323.518 225.322 323.701 225.052 323.865 224.772L320 224.138L324.181 224.165C324.581 223.293 324.798 222.348 324.821 221.388C324.844 220.429 324.671 219.475 324.314 218.584L318.706 221.494L323.876 217.692C323.391 216.857 322.739 216.131 321.961 215.558C321.183 214.986 320.296 214.58 319.354 214.365C318.413 214.15 317.437 214.131 316.488 214.31C315.538 214.488 314.636 214.86 313.837 215.402C313.037 215.945 312.358 216.646 311.841 217.461C311.324 218.277 310.981 219.191 310.832 220.145C310.684 221.1 310.733 222.074 310.977 223.009C311.222 223.943 311.656 224.818 312.252 225.577C311.938 225.975 311.668 226.405 311.446 226.86L316.465 229.469L311.114 227.674C310.74 228.782 310.649 229.966 310.847 231.119C311.046 232.271 311.529 233.357 312.252 234.276C311.436 235.314 310.929 236.562 310.788 237.875C310.648 239.188 310.879 240.515 311.457 241.703C312.034 242.891 312.934 243.892 314.054 244.593C315.174 245.293 316.468 245.665 317.789 245.665C319.109 245.665 320.404 245.293 321.523 244.593C322.643 243.892 323.543 242.891 324.12 241.703C324.698 240.515 324.929 239.188 324.789 237.875C324.648 236.562 324.141 235.314 323.325 234.276C324.302 233.034 324.834 231.501 324.834 229.921C324.834 228.341 324.302 226.807 323.325 225.566L323.317 225.577Z" fill="#6C63FF"/>
<path opacity="0.1" d="M310.734 229.918C310.734 231.5 311.269 233.036 312.252 234.275C311.436 235.314 310.929 236.561 310.788 237.874C310.647 239.188 310.879 240.514 311.457 241.702C312.034 242.89 312.934 243.891 314.054 244.592C315.173 245.293 316.467 245.664 317.788 245.664C319.109 245.664 320.403 245.293 321.523 244.592C322.643 243.891 323.543 242.89 324.12 241.702C324.697 240.514 324.929 239.188 324.788 237.874C324.648 236.561 324.14 235.314 323.325 234.275C324.259 233.074 310.734 229.128 310.734 229.918Z" fill="black"/>
<path d="M58.0504 307.673C68.0928 307.673 76.2337 306.107 76.2337 304.176C76.2337 302.245 68.0928 300.68 58.0504 300.68C48.0081 300.68 39.8672 302.245 39.8672 304.176C39.8672 306.107 48.0081 307.673 58.0504 307.673Z" fill="#6C63FF"/>
<path d="M57.7454 305.463C58.914 305.463 59.8613 304.222 59.8613 302.69C59.8613 301.159 58.914 299.917 57.7454 299.917C56.5767 299.917 55.6294 301.159 55.6294 302.69C55.6294 304.222 56.5767 305.463 57.7454 305.463Z" fill="#3F3D56"/>
<path d="M57.7454 302.076C58.914 302.076 59.8613 300.835 59.8613 299.303C59.8613 297.772 58.914 296.53 57.7454 296.53C56.5767 296.53 55.6294 297.772 55.6294 299.303C55.6294 300.835 56.5767 302.076 57.7454 302.076Z" fill="#3F3D56"/>
<path d="M57.7454 298.69C58.914 298.69 59.8613 297.448 59.8613 295.917C59.8613 294.385 58.914 293.144 57.7454 293.144C56.5767 293.144 55.6294 294.385 55.6294 295.917C55.6294 297.448 56.5767 298.69 57.7454 298.69Z" fill="#3F3D56"/>
<path d="M57.7454 295.302C58.914 295.302 59.8613 294.06 59.8613 292.529C59.8613 290.997 58.914 289.756 57.7454 289.756C56.5767 289.756 55.6294 290.997 55.6294 292.529C55.6294 294.06 56.5767 295.302 57.7454 295.302Z" fill="#3F3D56"/>
<path d="M57.7454 291.915C58.914 291.915 59.8613 290.674 59.8613 289.142C59.8613 287.611 58.914 286.369 57.7454 286.369C56.5767 286.369 55.6294 287.611 55.6294 289.142C55.6294 290.674 56.5767 291.915 57.7454 291.915Z" fill="#3F3D56"/>
<path d="M57.7454 288.524C58.914 288.524 59.8613 287.282 59.8613 285.751C59.8613 284.219 58.914 282.978 57.7454 282.978C56.5767 282.978 55.6294 284.219 55.6294 285.751C55.6294 287.282 56.5767 288.524 57.7454 288.524Z" fill="#3F3D56"/>
<path d="M57.7454 285.137C58.914 285.137 59.8613 283.895 59.8613 282.364C59.8613 280.832 58.914 279.591 57.7454 279.591C56.5767 279.591 55.6294 280.832 55.6294 282.364C55.6294 283.895 56.5767 285.137 57.7454 285.137Z" fill="#3F3D56"/>
<path d="M65.6693 259.186C65.9557 258.812 66.217 258.42 66.4516 258.012L60.8898 257.097L66.9053 257.144C67.4818 255.888 67.7962 254.527 67.8291 253.145C67.8621 251.763 67.613 250.389 67.0969 249.106L59.032 253.307L66.4633 247.831C65.7674 246.624 64.8302 245.573 63.71 244.744C62.5899 243.915 61.3108 243.325 59.9528 243.013C58.5948 242.7 57.1868 242.67 55.8169 242.926C54.4469 243.181 53.1443 243.717 51.9903 244.498C50.8364 245.279 49.8558 246.29 49.1099 247.467C48.3639 248.644 47.8686 249.963 47.6548 251.34C47.4409 252.717 47.5132 254.123 47.8671 255.471C48.221 256.819 48.8489 258.079 49.7116 259.174C49.2548 259.745 48.8614 260.364 48.5382 261.02L55.7622 264.775L48.061 262.189C47.5213 263.792 47.391 265.505 47.682 267.171C47.973 268.837 48.6761 270.404 49.7272 271.729C48.5505 273.225 47.8184 275.022 47.6147 276.914C47.4111 278.807 47.744 280.718 48.5755 282.43C49.4071 284.142 50.7036 285.586 52.3168 286.596C53.9301 287.606 55.795 288.141 57.6983 288.141C59.6016 288.141 61.4665 287.606 63.0797 286.596C64.693 285.586 65.9895 284.142 66.821 282.43C67.6525 280.718 67.9855 278.807 67.7818 276.914C67.5782 275.022 66.8461 273.225 65.6693 271.729C67.0758 269.942 67.8406 267.734 67.8406 265.459C67.8406 263.185 67.0758 260.977 65.6693 259.19V259.186Z" fill="#6C63FF"/>
<path opacity="0.1" d="M47.5567 265.472C47.557 267.742 48.3216 269.947 49.7274 271.73C48.5506 273.226 47.8185 275.022 47.6149 276.915C47.4112 278.807 47.7442 280.719 48.5757 282.431C49.4072 284.143 50.7037 285.586 52.317 286.596C53.9302 287.606 55.7951 288.142 57.6984 288.142C59.6017 288.142 61.4666 287.606 63.0799 286.596C64.6932 285.586 65.9897 284.143 66.8212 282.431C67.6527 280.719 67.9856 278.807 67.782 276.915C67.5783 275.022 66.8463 273.226 65.6695 271.73C67.0189 270.001 47.5567 264.318 47.5567 265.472Z" fill="black"/>
</g>
<defs>
<linearGradient id="paint0_linear_9700_9887" x1="235.409" y1="300.061" x2="230.232" y2="171.725" gradientUnits="userSpaceOnUse">
<stop stop-color="#808080" stop-opacity="0.25"/>
<stop offset="0.54" stop-color="#808080" stop-opacity="0.12"/>
<stop offset="1" stop-color="#808080" stop-opacity="0.1"/>
</linearGradient>
<clipPath id="clip0_9700_9887">
<rect width="400" height="307.347" fill="white" transform="translate(0 0.326172)"/>
</clipPath>
</defs>
</svg>
